solid OpenSCAD_Model
  facet normal 0 -1 0
    outer loop
      vertex -226 0 3.5
      vertex -226 0 -3.5
      vertex -219 0 -3.5
    endloop
  endfacet
  facet normal 0 -1 0
    outer loop
      vertex -219 0 3.5
      vertex -226 0 3.5
      vertex -219 0 -3.5
    endloop
  endfacet
  facet normal 0 0 -1
    outer loop
      vertex -226 0 -3.5
      vertex -226 46 -3.5
      vertex -219 0 -3.5
    endloop
  endfacet
  facet normal 0 0 -1
    outer loop
      vertex -219 26 -3.5
      vertex -226 46 -3.5
      vertex -219 46 -3.5
    endloop
  endfacet
  facet normal 0 0 -1
    outer loop
      vertex -219 0 -3.5
      vertex -226 46 -3.5
      vertex -219 20 -3.5
    endloop
  endfacet
  facet normal 0 0 -1
    outer loop
      vertex -219 20 -3.5
      vertex -207 26 -3.5
      vertex -207 20 -3.5
    endloop
  endfacet
  facet normal 0 0 -1
    outer loop
      vertex -190 0 -3.5
      vertex -182 1 -3.5
      vertex -182 0 -3.5
    endloop
  endfacet
  facet normal 0 0 -1
    outer loop
      vertex -207 26 -3.5
      vertex -190 46 -3.5
      vertex -207 20 -3.5
    endloop
  endfacet
  facet normal 0 0 -1
    outer loop
      vertex -219 26 -3.5
      vertex -207 26 -3.5
      vertex -219 20 -3.5
    endloop
  endfacet
  facet normal 0 0 -1
    outer loop
      vertex -219 26 -3.5
      vertex -219 20 -3.5
      vertex -226 46 -3.5
    endloop
  endfacet
  facet normal 0 0 -1
    outer loop
      vertex -207 20 -3.5
      vertex -190 46 -3.5
      vertex -182 46 -3.5
    endloop
  endfacet
  facet normal 0 0 -1
    outer loop
      vertex -207 20 -3.5
      vertex -182 46 -3.5
      vertex -182 45 -3.5
    endloop
  endfacet
  facet normal 0 0 -1
    outer loop
      vertex -207 20 -3.5
      vertex -182 45 -3.5
      vertex -200 23 -3.5
    endloop
  endfacet
  facet normal 0 0 -1
    outer loop
      vertex -207 20 -3.5
      vertex -200 23 -3.5
      vertex -182 1 -3.5
    endloop
  endfacet
  facet normal 0 0 -1
    outer loop
      vertex -207 20 -3.5
      vertex -182 1 -3.5
      vertex -190 0 -3.5
    endloop
  endfacet
  facet normal -1 0 0
    outer loop
      vertex -226 0 -3.5
      vertex -226 0 3.5
      vertex -226 46 -3.5
    endloop
  endfacet
  facet normal -1 0 0
    outer loop
      vertex -226 46 -3.5
      vertex -226 0 3.5
      vertex -226 46 3.5
    endloop
  endfacet
  facet normal 0 0 1
    outer loop
      vertex -226 46 3.5
      vertex -226 0 3.5
      vertex -219 0 3.5
    endloop
  endfacet
  facet normal 0 0 1
    outer loop
      vertex -219 26 3.5
      vertex -226 46 3.5
      vertex -219 20 3.5
    endloop
  endfacet
  facet normal 0 0 1
    outer loop
      vertex -219 20 3.5
      vertex -226 46 3.5
      vertex -219 0 3.5
    endloop
  endfacet
  facet normal 0 0 1
    outer loop
      vertex -219 26 3.5
      vertex -219 46 3.5
      vertex -226 46 3.5
    endloop
  endfacet
  facet normal 0 0 1
    outer loop
      vertex -207 26 3.5
      vertex -207 20 3.5
      vertex -190 0 3.5
    endloop
  endfacet
  facet normal 0 0 1
    outer loop
      vertex -207 26 3.5
      vertex -219 26 3.5
      vertex -207 20 3.5
    endloop
  endfacet
  facet normal 0 0 1
    outer loop
      vertex -182 46 3.5
      vertex -190 46 3.5
      vertex -182 45 3.5
    endloop
  endfacet
  facet normal 0 0 1
    outer loop
      vertex -182 0 3.5
      vertex -207 26 3.5
      vertex -190 0 3.5
    endloop
  endfacet
  facet normal 0 0 1
    outer loop
      vertex -207 20 3.5
      vertex -219 26 3.5
      vertex -219 20 3.5
    endloop
  endfacet
  facet normal 0 0 1
    outer loop
      vertex -190 46 3.5
      vertex -200 23 3.5
      vertex -182 45 3.5
    endloop
  endfacet
  facet normal 0 0 1
    outer loop
      vertex -200 23 3.5
      vertex -182 0 3.5
      vertex -182 1 3.5
    endloop
  endfacet
  facet normal 0 0 1
    outer loop
      vertex -200 23 3.5
      vertex -207 26 3.5
      vertex -182 0 3.5
    endloop
  endfacet
  facet normal 0 0 1
    outer loop
      vertex -190 46 3.5
      vertex -207 26 3.5
      vertex -200 23 3.5
    endloop
  endfacet
  facet normal 1 0 0
    outer loop
      vertex -219 0 3.5
      vertex -219 0 -3.5
      vertex -219 20 -3.5
    endloop
  endfacet
  facet normal 1 0 0
    outer loop
      vertex -219 20 3.5
      vertex -219 0 3.5
      vertex -219 20 -3.5
    endloop
  endfacet
  facet normal 0 -1 0
    outer loop
      vertex -219 20 3.5
      vertex -219 20 -3.5
      vertex -207 20 -3.5
    endloop
  endfacet
  facet normal 0 -1 0
    outer loop
      vertex -207 20 3.5
      vertex -219 20 3.5
      vertex -207 20 -3.5
    endloop
  endfacet
  facet normal -0.761939 -0.647648 0
    outer loop
      vertex -207 20 -3.5
      vertex -190 0 -3.5
      vertex -207 20 3.5
    endloop
  endfacet
  facet normal -0.761939 -0.647648 0
    outer loop
      vertex -207 20 3.5
      vertex -190 0 -3.5
      vertex -190 0 3.5
    endloop
  endfacet
  facet normal 0 -1 0
    outer loop
      vertex -190 0 3.5
      vertex -190 0 -3.5
      vertex -182 0 -3.5
    endloop
  endfacet
  facet normal 0 -1 0
    outer loop
      vertex -182 0 3.5
      vertex -190 0 3.5
      vertex -182 0 -3.5
    endloop
  endfacet
  facet normal 1 0 0
    outer loop
      vertex -182 0 3.5
      vertex -182 0 -3.5
      vertex -182 1 -3.5
    endloop
  endfacet
  facet normal 1 0 0
    outer loop
      vertex -182 1 3.5
      vertex -182 0 3.5
      vertex -182 1 -3.5
    endloop
  endfacet
  facet normal 0.773957 0.633238 0
    outer loop
      vertex -182 1 -3.5
      vertex -200 23 -3.5
      vertex -200 23 3.5
    endloop
  endfacet
  facet normal 0.773957 0.633238 0
    outer loop
      vertex -182 1 3.5
      vertex -182 1 -3.5
      vertex -200 23 3.5
    endloop
  endfacet
  facet normal 0.773957 -0.633238 0
    outer loop
      vertex -200 23 3.5
      vertex -200 23 -3.5
      vertex -182 45 -3.5
    endloop
  endfacet
  facet normal 0.773957 -0.633238 0
    outer loop
      vertex -182 45 3.5
      vertex -200 23 3.5
      vertex -182 45 -3.5
    endloop
  endfacet
  facet normal 1 0 0
    outer loop
      vertex -182 45 3.5
      vertex -182 45 -3.5
      vertex -182 46 -3.5
    endloop
  endfacet
  facet normal 1 0 0
    outer loop
      vertex -182 46 3.5
      vertex -182 45 3.5
      vertex -182 46 -3.5
    endloop
  endfacet
  facet normal 0 1 0
    outer loop
      vertex -190 46 -3.5
      vertex -190 46 3.5
      vertex -182 46 -3.5
    endloop
  endfacet
  facet normal 0 1 0
    outer loop
      vertex -182 46 -3.5
      vertex -190 46 3.5
      vertex -182 46 3.5
    endloop
  endfacet
  facet normal -0.761939 0.647648 0
    outer loop
      vertex -207 26 -3.5
      vertex -207 26 3.5
      vertex -190 46 -3.5
    endloop
  endfacet
  facet normal -0.761939 0.647648 0
    outer loop
      vertex -190 46 -3.5
      vertex -207 26 3.5
      vertex -190 46 3.5
    endloop
  endfacet
  facet normal 0 1 0
    outer loop
      vertex -219 26 -3.5
      vertex -219 26 3.5
      vertex -207 26 -3.5
    endloop
  endfacet
  facet normal 0 1 0
    outer loop
      vertex -207 26 -3.5
      vertex -219 26 3.5
      vertex -207 26 3.5
    endloop
  endfacet
  facet normal 1 0 0
    outer loop
      vertex -219 26 3.5
      vertex -219 26 -3.5
      vertex -219 46 -3.5
    endloop
  endfacet
  facet normal 1 0 0
    outer loop
      vertex -219 46 3.5
      vertex -219 26 3.5
      vertex -219 46 -3.5
    endloop
  endfacet
  facet normal 0 1 0
    outer loop
      vertex -226 46 -3.5
      vertex -226 46 3.5
      vertex -219 46 -3.5
    endloop
  endfacet
  facet normal 0 1 0
    outer loop
      vertex -219 46 -3.5
      vertex -226 46 3.5
      vertex -219 46 3.5
    endloop
  endfacet
  facet normal -1 0 0
    outer loop
      vertex -174 8 -3.5
      vertex -174 8 3.5
      vertex -174 38 -3.5
    endloop
  endfacet
  facet normal -1 0 0
    outer loop
      vertex -174 38 -3.5
      vertex -174 8 3.5
      vertex -174 38 3.5
    endloop
  endfacet
  facet normal -0.910366 -0.413803 0
    outer loop
      vertex -171.5 2.5 3.5
      vertex -174 8 3.5
      vertex -171.5 2.5 -3.5
    endloop
  endfacet
  facet normal -0.910366 -0.413803 0
    outer loop
      vertex -171.5 2.5 -3.5
      vertex -174 8 3.5
      vertex -174 8 -3.5
    endloop
  endfacet
  facet normal 0 0 -1
    outer loop
      vertex -174 8 -3.5
      vertex -174 38 -3.5
      vertex -171.5 2.5 -3.5
    endloop
  endfacet
  facet normal 0 0 -1
    outer loop
      vertex -171.5 2.5 -3.5
      vertex -174 38 -3.5
      vertex -171.5 43.5 -3.5
    endloop
  endfacet
  facet normal 0 0 -1
    outer loop
      vertex -167 38 -3.5
      vertex -171.5 43.5 -3.5
      vertex -165 46 -3.5
    endloop
  endfacet
  facet normal 0 0 -1
    outer loop
      vertex -165 39 -3.5
      vertex -165 46 -3.5
      vertex -136 46 -3.5
    endloop
  endfacet
  facet normal 0 0 -1
    outer loop
      vertex -136 39 -3.5
      vertex -136 46 -3.5
      vertex -129.5 43.5 -3.5
    endloop
  endfacet
  facet normal 0 0 -1
    outer loop
      vertex -134 38 -3.5
      vertex -129.5 43.5 -3.5
      vertex -127 38 -3.5
    endloop
  endfacet
  facet normal 0 0 -1
    outer loop
      vertex -134 8 -3.5
      vertex -127 38 -3.5
      vertex -127 8 -3.5
    endloop
  endfacet
  facet normal 0 0 -1
    outer loop
      vertex -171.5 2.5 -3.5
      vertex -127 8 -3.5
      vertex -129.5 2.5 -3.5
    endloop
  endfacet
  facet normal 0 0 -1
    outer loop
      vertex -171.5 2.5 -3.5
      vertex -129.5 2.5 -3.5
      vertex -136 0 -3.5
    endloop
  endfacet
  facet normal 0 0 -1
    outer loop
      vertex -171.5 2.5 -3.5
      vertex -136 0 -3.5
      vertex -165 0 -3.5
    endloop
  endfacet
  facet normal 0 0 -1
    outer loop
      vertex -171.5 2.5 -3.5
      vertex -171.5 43.5 -3.5
      vertex -167 38 -3.5
    endloop
  endfacet
  facet normal 0 0 -1
    outer loop
      vertex -166.5 38.5 -3.5
      vertex -167 38 -3.5
      vertex -165 46 -3.5
    endloop
  endfacet
  facet normal 0 0 -1
    outer loop
      vertex -165 7 -3.5
      vertex -171.5 2.5 -3.5
      vertex -166.5 7.5 -3.5
    endloop
  endfacet
  facet normal 0 0 -1
    outer loop
      vertex -171.5 2.5 -3.5
      vertex -167 8 -3.5
      vertex -166.5 7.5 -3.5
    endloop
  endfacet
  facet normal 0 0 -1
    outer loop
      vertex -134 8 -3.5
      vertex -127 8 -3.5
      vertex -134.5 7.5 -3.5
    endloop
  endfacet
  facet normal 0 0 -1
    outer loop
      vertex -171.5 2.5 -3.5
      vertex -165 7 -3.5
      vertex -136 7 -3.5
    endloop
  endfacet
  facet normal 0 0 -1
    outer loop
      vertex -171.5 2.5 -3.5
      vertex -136 7 -3.5
      vertex -127 8 -3.5
    endloop
  endfacet
  facet normal 0 0 -1
    outer loop
      vertex -136 7 -3.5
      vertex -134.5 7.5 -3.5
      vertex -127 8 -3.5
    endloop
  endfacet
  facet normal 0 0 -1
    outer loop
      vertex -134 38 -3.5
      vertex -127 38 -3.5
      vertex -134 8 -3.5
    endloop
  endfacet
  facet normal 0 0 -1
    outer loop
      vertex -134.5 38.5 -3.5
      vertex -129.5 43.5 -3.5
      vertex -134 38 -3.5
    endloop
  endfacet
  facet normal 0 0 -1
    outer loop
      vertex -165 39 -3.5
      vertex -136 46 -3.5
      vertex -136 39 -3.5
    endloop
  endfacet
  facet normal 0 0 -1
    outer loop
      vertex -136 39 -3.5
      vertex -129.5 43.5 -3.5
      vertex -134.5 38.5 -3.5
    endloop
  endfacet
  facet normal 0 0 -1
    outer loop
      vertex -167 8 -3.5
      vertex -171.5 2.5 -3.5
      vertex -167 38 -3.5
    endloop
  endfacet
  facet normal 0 0 -1
    outer loop
      vertex -166.5 38.5 -3.5
      vertex -165 46 -3.5
      vertex -165 39 -3.5
    endloop
  endfacet
  facet normal -0.910366 0.413803 0
    outer loop
      vertex -171.5 43.5 3.5
      vertex -171.5 43.5 -3.5
      vertex -174 38 3.5
    endloop
  endfacet
  facet normal -0.910366 0.413803 0
    outer loop
      vertex -174 38 3.5
      vertex -171.5 43.5 -3.5
      vertex -174 38 -3.5
    endloop
  endfacet
  facet normal 0 0 1
    outer loop
      vertex -174 38 3.5
      vertex -174 8 3.5
      vertex -171.5 2.5 3.5
    endloop
  endfacet
  facet normal 0 0 1
    outer loop
      vertex -167 8 3.5
      vertex -174 38 3.5
      vertex -171.5 2.5 3.5
    endloop
  endfacet
  facet normal 0 0 1
    outer loop
      vertex -127 38 3.5
      vertex -134 38 3.5
      vertex -127 8 3.5
    endloop
  endfacet
  facet normal 0 0 1
    outer loop
      vertex -136 46 3.5
      vertex -174 38 3.5
      vertex -129.5 43.5 3.5
    endloop
  endfacet
  facet normal 0 0 1
    outer loop
      vertex -165 46 3.5
      vertex -174 38 3.5
      vertex -136 46 3.5
    endloop
  endfacet
  facet normal 0 0 1
    outer loop
      vertex -171.5 43.5 3.5
      vertex -174 38 3.5
      vertex -165 46 3.5
    endloop
  endfacet
  facet normal 0 0 1
    outer loop
      vertex -165 0 3.5
      vertex -167 8 3.5
      vertex -171.5 2.5 3.5
    endloop
  endfacet
  facet normal 0 0 1
    outer loop
      vertex -134.5 7.5 3.5
      vertex -136 7 3.5
      vertex -129.5 2.5 3.5
    endloop
  endfacet
  facet normal 0 0 1
    outer loop
      vertex -166.5 38.5 3.5
      vertex -174 38 3.5
      vertex -167 38 3.5
    endloop
  endfacet
  facet normal 0 0 1
    outer loop
      vertex -134 38 3.5
      vertex -134 8 3.5
      vertex -127 8 3.5
    endloop
  endfacet
  facet normal 0 0 1
    outer loop
      vertex -165 39 3.5
      vertex -174 38 3.5
      vertex -166.5 38.5 3.5
    endloop
  endfacet
  facet normal 0 0 1
    outer loop
      vertex -129.5 43.5 3.5
      vertex -174 38 3.5
      vertex -165 39 3.5
    endloop
  endfacet
  facet normal 0 0 1
    outer loop
      vertex -129.5 43.5 3.5
      vertex -136 39 3.5
      vertex -127 38 3.5
    endloop
  endfacet
  facet normal 0 0 1
    outer loop
      vertex -136 39 3.5
      vertex -134.5 38.5 3.5
      vertex -127 38 3.5
    endloop
  endfacet
  facet normal 0 0 1
    outer loop
      vertex -134.5 38.5 3.5
      vertex -134 38 3.5
      vertex -127 38 3.5
    endloop
  endfacet
  facet normal 0 0 1
    outer loop
      vertex -127 8 3.5
      vertex -134 8 3.5
      vertex -129.5 2.5 3.5
    endloop
  endfacet
  facet normal 0 0 1
    outer loop
      vertex -134 8 3.5
      vertex -134.5 7.5 3.5
      vertex -129.5 2.5 3.5
    endloop
  endfacet
  facet normal 0 0 1
    outer loop
      vertex -165 39 3.5
      vertex -136 39 3.5
      vertex -129.5 43.5 3.5
    endloop
  endfacet
  facet normal 0 0 1
    outer loop
      vertex -129.5 2.5 3.5
      vertex -136 7 3.5
      vertex -136 0 3.5
    endloop
  endfacet
  facet normal 0 0 1
    outer loop
      vertex -136 0 3.5
      vertex -165 7 3.5
      vertex -165 0 3.5
    endloop
  endfacet
  facet normal 0 0 1
    outer loop
      vertex -165 7 3.5
      vertex -166.5 7.5 3.5
      vertex -165 0 3.5
    endloop
  endfacet
  facet normal 0 0 1
    outer loop
      vertex -166.5 7.5 3.5
      vertex -167 8 3.5
      vertex -165 0 3.5
    endloop
  endfacet
  facet normal 0 0 1
    outer loop
      vertex -136 7 3.5
      vertex -165 7 3.5
      vertex -136 0 3.5
    endloop
  endfacet
  facet normal 0 0 1
    outer loop
      vertex -167 8 3.5
      vertex -167 38 3.5
      vertex -174 38 3.5
    endloop
  endfacet
  facet normal -0.358979 -0.933346 0
    outer loop
      vertex -165 0 -3.5
      vertex -165 0 3.5
      vertex -171.5 2.5 3.5
    endloop
  endfacet
  facet normal -0.358979 -0.933346 0
    outer loop
      vertex -171.5 2.5 -3.5
      vertex -165 0 -3.5
      vertex -171.5 2.5 3.5
    endloop
  endfacet
  facet normal 0 -1 0
    outer loop
      vertex -165 0 3.5
      vertex -165 0 -3.5
      vertex -136 0 -3.5
    endloop
  endfacet
  facet normal 0 -1 0
    outer loop
      vertex -136 0 3.5
      vertex -165 0 3.5
      vertex -136 0 -3.5
    endloop
  endfacet
  facet normal 0.358979 -0.933346 0
    outer loop
      vertex -129.5 2.5 -3.5
      vertex -129.5 2.5 3.5
      vertex -136 0 3.5
    endloop
  endfacet
  facet normal 0.358979 -0.933346 0
    outer loop
      vertex -136 0 -3.5
      vertex -129.5 2.5 -3.5
      vertex -136 0 3.5
    endloop
  endfacet
  facet normal 0.910366 -0.413803 0
    outer loop
      vertex -127 8 -3.5
      vertex -127 8 3.5
      vertex -129.5 2.5 3.5
    endloop
  endfacet
  facet normal 0.910366 -0.413803 0
    outer loop
      vertex -129.5 2.5 -3.5
      vertex -127 8 -3.5
      vertex -129.5 2.5 3.5
    endloop
  endfacet
  facet normal 1 0 0
    outer loop
      vertex -127 8 3.5
      vertex -127 8 -3.5
      vertex -127 38 -3.5
    endloop
  endfacet
  facet normal 1 0 0
    outer loop
      vertex -127 38 3.5
      vertex -127 8 3.5
      vertex -127 38 -3.5
    endloop
  endfacet
  facet normal 0.910366 0.413803 0
    outer loop
      vertex -129.5 43.5 3.5
      vertex -127 38 3.5
      vertex -127 38 -3.5
    endloop
  endfacet
  facet normal 0.910366 0.413803 0
    outer loop
      vertex -129.5 43.5 -3.5
      vertex -129.5 43.5 3.5
      vertex -127 38 -3.5
    endloop
  endfacet
  facet normal 0.358979 0.933346 0
    outer loop
      vertex -129.5 43.5 3.5
      vertex -129.5 43.5 -3.5
      vertex -136 46 3.5
    endloop
  endfacet
  facet normal 0.358979 0.933346 0
    outer loop
      vertex -136 46 3.5
      vertex -129.5 43.5 -3.5
      vertex -136 46 -3.5
    endloop
  endfacet
  facet normal 0 1 0
    outer loop
      vertex -165 46 -3.5
      vertex -165 46 3.5
      vertex -136 46 -3.5
    endloop
  endfacet
  facet normal 0 1 0
    outer loop
      vertex -136 46 -3.5
      vertex -165 46 3.5
      vertex -136 46 3.5
    endloop
  endfacet
  facet normal -0.358979 0.933346 0
    outer loop
      vertex -165 46 3.5
      vertex -165 46 -3.5
      vertex -171.5 43.5 3.5
    endloop
  endfacet
  facet normal -0.358979 0.933346 0
    outer loop
      vertex -171.5 43.5 3.5
      vertex -165 46 -3.5
      vertex -171.5 43.5 -3.5
    endloop
  endfacet
  facet normal 0.707107 -0.707107 0
    outer loop
      vertex -166.5 38.5 -3.5
      vertex -166.5 38.5 3.5
      vertex -167 38 3.5
    endloop
  endfacet
  facet normal 0.707107 -0.707107 0
    outer loop
      vertex -167 38 -3.5
      vertex -166.5 38.5 -3.5
      vertex -167 38 3.5
    endloop
  endfacet
  facet normal 1 0 0
    outer loop
      vertex -167 38 -3.5
      vertex -167 38 3.5
      vertex -167 8 3.5
    endloop
  endfacet
  facet normal 1 0 0
    outer loop
      vertex -167 8 -3.5
      vertex -167 38 -3.5
      vertex -167 8 3.5
    endloop
  endfacet
  facet normal 0.316228 -0.948683 0
    outer loop
      vertex -166.5 38.5 3.5
      vertex -166.5 38.5 -3.5
      vertex -165 39 -3.5
    endloop
  endfacet
  facet normal 0.316228 -0.948683 0
    outer loop
      vertex -165 39 3.5
      vertex -166.5 38.5 3.5
      vertex -165 39 -3.5
    endloop
  endfacet
  facet normal 0 -1 0
    outer loop
      vertex -136 39 -3.5
      vertex -136 39 3.5
      vertex -165 39 3.5
    endloop
  endfacet
  facet normal 0 -1 0
    outer loop
      vertex -165 39 -3.5
      vertex -136 39 -3.5
      vertex -165 39 3.5
    endloop
  endfacet
  facet normal -0.316228 -0.948683 0
    outer loop
      vertex -136 39 3.5
      vertex -136 39 -3.5
      vertex -134.5 38.5 -3.5
    endloop
  endfacet
  facet normal -0.316228 -0.948683 0
    outer loop
      vertex -134.5 38.5 3.5
      vertex -136 39 3.5
      vertex -134.5 38.5 -3.5
    endloop
  endfacet
  facet normal -0.707107 -0.707107 0
    outer loop
      vertex -134 38 -3.5
      vertex -134 38 3.5
      vertex -134.5 38.5 3.5
    endloop
  endfacet
  facet normal -0.707107 -0.707107 0
    outer loop
      vertex -134.5 38.5 -3.5
      vertex -134 38 -3.5
      vertex -134.5 38.5 3.5
    endloop
  endfacet
  facet normal -1 0 0
    outer loop
      vertex -134 38 3.5
      vertex -134 38 -3.5
      vertex -134 8 3.5
    endloop
  endfacet
  facet normal -1 0 0
    outer loop
      vertex -134 8 3.5
      vertex -134 38 -3.5
      vertex -134 8 -3.5
    endloop
  endfacet
  facet normal -0.707107 0.707107 0
    outer loop
      vertex -134 8 3.5
      vertex -134 8 -3.5
      vertex -134.5 7.5 3.5
    endloop
  endfacet
  facet normal -0.707107 0.707107 0
    outer loop
      vertex -134.5 7.5 3.5
      vertex -134 8 -3.5
      vertex -134.5 7.5 -3.5
    endloop
  endfacet
  facet normal -0.316228 0.948683 0
    outer loop
      vertex -136 7 -3.5
      vertex -136 7 3.5
      vertex -134.5 7.5 -3.5
    endloop
  endfacet
  facet normal -0.316228 0.948683 0
    outer loop
      vertex -134.5 7.5 -3.5
      vertex -136 7 3.5
      vertex -134.5 7.5 3.5
    endloop
  endfacet
  facet normal 0 1 0
    outer loop
      vertex -136 7 3.5
      vertex -136 7 -3.5
      vertex -165 7 3.5
    endloop
  endfacet
  facet normal 0 1 0
    outer loop
      vertex -165 7 3.5
      vertex -136 7 -3.5
      vertex -165 7 -3.5
    endloop
  endfacet
  facet normal 0.316228 0.948683 0
    outer loop
      vertex -166.5 7.5 -3.5
      vertex -166.5 7.5 3.5
      vertex -165 7 -3.5
    endloop
  endfacet
  facet normal 0.316228 0.948683 0
    outer loop
      vertex -165 7 -3.5
      vertex -166.5 7.5 3.5
      vertex -165 7 3.5
    endloop
  endfacet
  facet normal 0.707107 0.707107 0
    outer loop
      vertex -166.5 7.5 3.5
      vertex -166.5 7.5 -3.5
      vertex -167 8 3.5
    endloop
  endfacet
  facet normal 0.707107 0.707107 0
    outer loop
      vertex -167 8 3.5
      vertex -166.5 7.5 -3.5
      vertex -167 8 -3.5
    endloop
  endfacet
  facet normal -1 0 0
    outer loop
      vertex -119 8 -3.5
      vertex -119 8 3.5
      vertex -119 11 -3.5
    endloop
  endfacet
  facet normal -1 0 0
    outer loop
      vertex -119 11 -3.5
      vertex -119 8 3.5
      vertex -119 11 3.5
    endloop
  endfacet
  facet normal -0.910366 -0.413803 0
    outer loop
      vertex -116.5 2.5 3.5
      vertex -119 8 3.5
      vertex -116.5 2.5 -3.5
    endloop
  endfacet
  facet normal -0.910366 -0.413803 0
    outer loop
      vertex -116.5 2.5 -3.5
      vertex -119 8 3.5
      vertex -119 8 -3.5
    endloop
  endfacet
  facet normal 0 0 -1
    outer loop
      vertex -119 8 -3.5
      vertex -119 11 -3.5
      vertex -116.5 2.5 -3.5
    endloop
  endfacet
  facet normal 0 0 -1
    outer loop
      vertex -116.5 2.5 -3.5
      vertex -119 11 -3.5
      vertex -112 11 -3.5
    endloop
  endfacet
  facet normal 0 0 -1
    outer loop
      vertex -116.5 2.5 -3.5
      vertex -112 11 -3.5
      vertex -112 8 -3.5
    endloop
  endfacet
  facet normal 0 0 -1
    outer loop
      vertex -116.5 2.5 -3.5
      vertex -112 8 -3.5
      vertex -111.5 7.5 -3.5
    endloop
  endfacet
  facet normal 0 0 -1
    outer loop
      vertex -111.5 7.5 -3.5
      vertex -110 7 -3.5
      vertex -116.5 2.5 -3.5
    endloop
  endfacet
  facet normal 0 0 -1
    outer loop
      vertex -110 7 -3.5
      vertex -81 7 -3.5
      vertex -116.5 2.5 -3.5
    endloop
  endfacet
  facet normal 0 0 -1
    outer loop
      vertex -81 7 -3.5
      vertex -73 8 -3.5
      vertex -116.5 2.5 -3.5
    endloop
  endfacet
  facet normal 0 0 -1
    outer loop
      vertex -81 20 -3.5
      vertex -110 20 -3.5
      vertex -116.5 22 -3.5
    endloop
  endfacet
  facet normal 0 0 -1
    outer loop
      vertex -110 26 -3.5
      vertex -116.5 22 -3.5
      vertex -119 28 -3.5
    endloop
  endfacet
  facet normal 0 0 -1
    outer loop
      vertex -112 28 -3.5
      vertex -119 28 -3.5
      vertex -119 38 -3.5
    endloop
  endfacet
  facet normal 0 0 -1
    outer loop
      vertex -110 39 -3.5
      vertex -119 38 -3.5
      vertex -116.5 43.5 -3.5
    endloop
  endfacet
  facet normal 0 0 -1
    outer loop
      vertex -81 39 -3.5
      vertex -110 46 -3.5
      vertex -81 46 -3.5
    endloop
  endfacet
  facet normal 0 0 -1
    outer loop
      vertex -80 38.5 -3.5
      vertex -81 46 -3.5
      vertex -75.5 43.5 -3.5
    endloop
  endfacet
  facet normal 0 0 -1
    outer loop
      vertex -75.5 24 -3.5
      vertex -80 7.5 -3.5
      vertex -80 19.5 -3.5
    endloop
  endfacet
  facet normal 0 0 -1
    outer loop
      vertex -110 39 -3.5
      vertex -110 46 -3.5
      vertex -81 39 -3.5
    endloop
  endfacet
  facet normal 0 0 -1
    outer loop
      vertex -81 39 -3.5
      vertex -81 46 -3.5
      vertex -80 38.5 -3.5
    endloop
  endfacet
  facet normal 0 0 -1
    outer loop
      vertex -81 26 -3.5
      vertex -80 19.5 -3.5
      vertex -81 20 -3.5
    endloop
  endfacet
  facet normal 0 0 -1
    outer loop
      vertex -80 35 -3.5
      vertex -80 38.5 -3.5
      vertex -75.5 43.5 -3.5
    endloop
  endfacet
  facet normal 0 0 -1
    outer loop
      vertex -110 39 -3.5
      vertex -116.5 43.5 -3.5
      vertex -110 46 -3.5
    endloop
  endfacet
  facet normal 0 0 -1
    outer loop
      vertex -111.5 38.5 -3.5
      vertex -119 38 -3.5
      vertex -110 39 -3.5
    endloop
  endfacet
  facet normal 0 0 -1
    outer loop
      vertex -112 28 -3.5
      vertex -119 38 -3.5
      vertex -112 38 -3.5
    endloop
  endfacet
  facet normal 0 0 -1
    outer loop
      vertex -112 38 -3.5
      vertex -119 38 -3.5
      vertex -111.5 38.5 -3.5
    endloop
  endfacet
  facet normal 0 0 -1
    outer loop
      vertex -75.5 24 -3.5
      vertex -80 19.5 -3.5
      vertex -81 26 -3.5
    endloop
  endfacet
  facet normal 0 0 -1
    outer loop
      vertex -111.5 26.5 -3.5
      vertex -119 28 -3.5
      vertex -112 28 -3.5
    endloop
  endfacet
  facet normal 0 0 -1
    outer loop
      vertex -110 26 -3.5
      vertex -119 28 -3.5
      vertex -111.5 26.5 -3.5
    endloop
  endfacet
  facet normal 0 0 -1
    outer loop
      vertex -81 20 -3.5
      vertex -116.5 22 -3.5
      vertex -110 26 -3.5
    endloop
  endfacet
  facet normal 0 0 -1
    outer loop
      vertex -81 26 -3.5
      vertex -81 20 -3.5
      vertex -110 26 -3.5
    endloop
  endfacet
  facet normal 0 0 -1
    outer loop
      vertex -80 7.5 -3.5
      vertex -75.5 24 -3.5
      vertex -73 18 -3.5
    endloop
  endfacet
  facet normal 0 0 -1
    outer loop
      vertex -80 7.5 -3.5
      vertex -73 18 -3.5
      vertex -73 8 -3.5
    endloop
  endfacet
  facet normal 0 0 -1
    outer loop
      vertex -80 7.5 -3.5
      vertex -73 8 -3.5
      vertex -81 7 -3.5
    endloop
  endfacet
  facet normal 0 0 -1
    outer loop
      vertex -116.5 2.5 -3.5
      vertex -73 8 -3.5
      vertex -75.5 2.5 -3.5
    endloop
  endfacet
  facet normal 0 0 -1
    outer loop
      vertex -116.5 2.5 -3.5
      vertex -75.5 2.5 -3.5
      vertex -81 0 -3.5
    endloop
  endfacet
  facet normal 0 0 -1
    outer loop
      vertex -116.5 2.5 -3.5
      vertex -81 0 -3.5
      vertex -110 0 -3.5
    endloop
  endfacet
  facet normal 0 0 -1
    outer loop
      vertex -80 35 -3.5
      vertex -75.5 43.5 -3.5
      vertex -73 38 -3.5
    endloop
  endfacet
  facet normal 0 0 -1
    outer loop
      vertex -80 35 -3.5
      vertex -73 38 -3.5
      vertex -73 35 -3.5
    endloop
  endfacet
  facet normal 0 1 0
    outer loop
      vertex -119 11 -3.5
      vertex -119 11 3.5
      vertex -112 11 -3.5
    endloop
  endfacet
  facet normal 0 1 0
    outer loop
      vertex -112 11 -3.5
      vertex -119 11 3.5
      vertex -112 11 3.5
    endloop
  endfacet
  facet normal 0 0 1
    outer loop
      vertex -119 11 3.5
      vertex -119 8 3.5
      vertex -116.5 2.5 3.5
    endloop
  endfacet
  facet normal 0 0 1
    outer loop
      vertex -111.5 7.5 3.5
      vertex -119 11 3.5
      vertex -110 0 3.5
    endloop
  endfacet
  facet normal 0 0 1
    outer loop
      vertex -110 0 3.5
      vertex -119 11 3.5
      vertex -116.5 2.5 3.5
    endloop
  endfacet
  facet normal 0 0 1
    outer loop
      vertex -112 8 3.5
      vertex -112 11 3.5
      vertex -119 11 3.5
    endloop
  endfacet
  facet normal 0 0 1
    outer loop
      vertex -80 35 3.5
      vertex -73 35 3.5
      vertex -80 38.5 3.5
    endloop
  endfacet
  facet normal 0 0 1
    outer loop
      vertex -110 20 3.5
      vertex -75.5 24 3.5
      vertex -81 26 3.5
    endloop
  endfacet
  facet normal 0 0 1
    outer loop
      vertex -110 20 3.5
      vertex -81 20 3.5
      vertex -75.5 24 3.5
    endloop
  endfacet
  facet normal 0 0 1
    outer loop
      vertex -80 19.5 3.5
      vertex -73 8 3.5
      vertex -73 18 3.5
    endloop
  endfacet
  facet normal 0 0 1
    outer loop
      vertex -80 19.5 3.5
      vertex -80 7.5 3.5
      vertex -73 8 3.5
    endloop
  endfacet
  facet normal 0 0 1
    outer loop
      vertex -110 46 3.5
      vertex -112 38 3.5
      vertex -111.5 38.5 3.5
    endloop
  endfacet
  facet normal 0 0 1
    outer loop
      vertex -110 46 3.5
      vertex -111.5 38.5 3.5
      vertex -110 39 3.5
    endloop
  endfacet
  facet normal 0 0 1
    outer loop
      vertex -75.5 43.5 3.5
      vertex -110 39 3.5
      vertex -81 39 3.5
    endloop
  endfacet
  facet normal 0 0 1
    outer loop
      vertex -73 38 3.5
      vertex -81 39 3.5
      vertex -80 38.5 3.5
    endloop
  endfacet
  facet normal 0 0 1
    outer loop
      vertex -73 38 3.5
      vertex -80 38.5 3.5
      vertex -73 35 3.5
    endloop
  endfacet
  facet normal 0 0 1
    outer loop
      vertex -75.5 43.5 3.5
      vertex -81 39 3.5
      vertex -73 38 3.5
    endloop
  endfacet
  facet normal 0 0 1
    outer loop
      vertex -81 46 3.5
      vertex -110 39 3.5
      vertex -75.5 43.5 3.5
    endloop
  endfacet
  facet normal 0 0 1
    outer loop
      vertex -110 46 3.5
      vertex -110 39 3.5
      vertex -81 46 3.5
    endloop
  endfacet
  facet normal 0 0 1
    outer loop
      vertex -116.5 22 3.5
      vertex -112 38 3.5
      vertex -110 46 3.5
    endloop
  endfacet
  facet normal 0 0 1
    outer loop
      vertex -119 38 3.5
      vertex -119 28 3.5
      vertex -116.5 43.5 3.5
    endloop
  endfacet
  facet normal 0 0 1
    outer loop
      vertex -116.5 43.5 3.5
      vertex -116.5 22 3.5
      vertex -110 46 3.5
    endloop
  endfacet
  facet normal 0 0 1
    outer loop
      vertex -110 26 3.5
      vertex -110 20 3.5
      vertex -81 26 3.5
    endloop
  endfacet
  facet normal 0 0 1
    outer loop
      vertex -75.5 24 3.5
      vertex -81 20 3.5
      vertex -73 18 3.5
    endloop
  endfacet
  facet normal 0 0 1
    outer loop
      vertex -81 20 3.5
      vertex -80 19.5 3.5
      vertex -73 18 3.5
    endloop
  endfacet
  facet normal 0 0 1
    outer loop
      vertex -73 8 3.5
      vertex -80 7.5 3.5
      vertex -75.5 2.5 3.5
    endloop
  endfacet
  facet normal 0 0 1
    outer loop
      vertex -80 7.5 3.5
      vertex -81 7 3.5
      vertex -75.5 2.5 3.5
    endloop
  endfacet
  facet normal 0 0 1
    outer loop
      vertex -81 0 3.5
      vertex -110 7 3.5
      vertex -110 0 3.5
    endloop
  endfacet
  facet normal 0 0 1
    outer loop
      vertex -110 7 3.5
      vertex -111.5 7.5 3.5
      vertex -110 0 3.5
    endloop
  endfacet
  facet normal 0 0 1
    outer loop
      vertex -111.5 7.5 3.5
      vertex -112 8 3.5
      vertex -119 11 3.5
    endloop
  endfacet
  facet normal 0 0 1
    outer loop
      vertex -81 7 3.5
      vertex -81 0 3.5
      vertex -75.5 2.5 3.5
    endloop
  endfacet
  facet normal 0 0 1
    outer loop
      vertex -81 7 3.5
      vertex -110 7 3.5
      vertex -81 0 3.5
    endloop
  endfacet
  facet normal 0 0 1
    outer loop
      vertex -119 28 3.5
      vertex -116.5 22 3.5
      vertex -116.5 43.5 3.5
    endloop
  endfacet
  facet normal 0 0 1
    outer loop
      vertex -116.5 22 3.5
      vertex -112 28 3.5
      vertex -112 38 3.5
    endloop
  endfacet
  facet normal 0 0 1
    outer loop
      vertex -116.5 22 3.5
      vertex -111.5 26.5 3.5
      vertex -112 28 3.5
    endloop
  endfacet
  facet normal 0 0 1
    outer loop
      vertex -116.5 22 3.5
      vertex -110 26 3.5
      vertex -111.5 26.5 3.5
    endloop
  endfacet
  facet normal 0 0 1
    outer loop
      vertex -116.5 22 3.5
      vertex -110 20 3.5
      vertex -110 26 3.5
    endloop
  endfacet
  facet normal -0.358979 -0.933346 0
    outer loop
      vertex -110 0 -3.5
      vertex -110 0 3.5
      vertex -116.5 2.5 3.5
    endloop
  endfacet
  facet normal -0.358979 -0.933346 0
    outer loop
      vertex -116.5 2.5 -3.5
      vertex -110 0 -3.5
      vertex -116.5 2.5 3.5
    endloop
  endfacet
  facet normal 0 -1 0
    outer loop
      vertex -110 0 3.5
      vertex -110 0 -3.5
      vertex -81 0 -3.5
    endloop
  endfacet
  facet normal 0 -1 0
    outer loop
      vertex -81 0 3.5
      vertex -110 0 3.5
      vertex -81 0 -3.5
    endloop
  endfacet
  facet normal 0.413803 -0.910366 0
    outer loop
      vertex -75.5 2.5 -3.5
      vertex -75.5 2.5 3.5
      vertex -81 0 3.5
    endloop
  endfacet
  facet normal 0.413803 -0.910366 0
    outer loop
      vertex -81 0 -3.5
      vertex -75.5 2.5 -3.5
      vertex -81 0 3.5
    endloop
  endfacet
  facet normal 0.910366 -0.413803 0
    outer loop
      vertex -73 8 -3.5
      vertex -73 8 3.5
      vertex -75.5 2.5 3.5
    endloop
  endfacet
  facet normal 0.910366 -0.413803 0
    outer loop
      vertex -75.5 2.5 -3.5
      vertex -73 8 -3.5
      vertex -75.5 2.5 3.5
    endloop
  endfacet
  facet normal 1 0 0
    outer loop
      vertex -73 8 3.5
      vertex -73 8 -3.5
      vertex -73 18 -3.5
    endloop
  endfacet
  facet normal 1 0 0
    outer loop
      vertex -73 18 3.5
      vertex -73 8 3.5
      vertex -73 18 -3.5
    endloop
  endfacet
  facet normal 0.923077 0.384615 0
    outer loop
      vertex -75.5 24 3.5
      vertex -73 18 3.5
      vertex -73 18 -3.5
    endloop
  endfacet
  facet normal 0.923077 0.384615 0
    outer loop
      vertex -75.5 24 -3.5
      vertex -75.5 24 3.5
      vertex -73 18 -3.5
    endloop
  endfacet
  facet normal 0.341743 0.939793 0
    outer loop
      vertex -75.5 24 3.5
      vertex -75.5 24 -3.5
      vertex -81 26 3.5
    endloop
  endfacet
  facet normal 0.341743 0.939793 0
    outer loop
      vertex -81 26 3.5
      vertex -75.5 24 -3.5
      vertex -81 26 -3.5
    endloop
  endfacet
  facet normal 0 1 0
    outer loop
      vertex -110 26 -3.5
      vertex -110 26 3.5
      vertex -81 26 -3.5
    endloop
  endfacet
  facet normal 0 1 0
    outer loop
      vertex -81 26 -3.5
      vertex -110 26 3.5
      vertex -81 26 3.5
    endloop
  endfacet
  facet normal 0.316228 0.948683 0
    outer loop
      vertex -111.5 26.5 -3.5
      vertex -111.5 26.5 3.5
      vertex -110 26 -3.5
    endloop
  endfacet
  facet normal 0.316228 0.948683 0
    outer loop
      vertex -110 26 -3.5
      vertex -111.5 26.5 3.5
      vertex -110 26 3.5
    endloop
  endfacet
  facet normal 0.948683 0.316228 0
    outer loop
      vertex -111.5 26.5 -3.5
      vertex -112 28 -3.5
      vertex -112 28 3.5
    endloop
  endfacet
  facet normal 0.948683 0.316228 0
    outer loop
      vertex -111.5 26.5 3.5
      vertex -111.5 26.5 -3.5
      vertex -112 28 3.5
    endloop
  endfacet
  facet normal 1 0 0
    outer loop
      vertex -112 28 3.5
      vertex -112 28 -3.5
      vertex -112 38 -3.5
    endloop
  endfacet
  facet normal 1 0 0
    outer loop
      vertex -112 38 3.5
      vertex -112 28 3.5
      vertex -112 38 -3.5
    endloop
  endfacet
  facet normal 0.707107 -0.707107 0
    outer loop
      vertex -112 38 3.5
      vertex -112 38 -3.5
      vertex -111.5 38.5 -3.5
    endloop
  endfacet
  facet normal 0.707107 -0.707107 0
    outer loop
      vertex -111.5 38.5 3.5
      vertex -112 38 3.5
      vertex -111.5 38.5 -3.5
    endloop
  endfacet
  facet normal 0.316228 -0.948683 0
    outer loop
      vertex -111.5 38.5 3.5
      vertex -111.5 38.5 -3.5
      vertex -110 39 -3.5
    endloop
  endfacet
  facet normal 0.316228 -0.948683 0
    outer loop
      vertex -110 39 3.5
      vertex -111.5 38.5 3.5
      vertex -110 39 -3.5
    endloop
  endfacet
  facet normal 0 -1 0
    outer loop
      vertex -110 39 3.5
      vertex -110 39 -3.5
      vertex -81 39 -3.5
    endloop
  endfacet
  facet normal 0 -1 0
    outer loop
      vertex -81 39 3.5
      vertex -110 39 3.5
      vertex -81 39 -3.5
    endloop
  endfacet
  facet normal -0.447214 -0.894427 0
    outer loop
      vertex -81 39 3.5
      vertex -81 39 -3.5
      vertex -80 38.5 -3.5
    endloop
  endfacet
  facet normal -0.447214 -0.894427 0
    outer loop
      vertex -80 38.5 3.5
      vertex -81 39 3.5
      vertex -80 38.5 -3.5
    endloop
  endfacet
  facet normal -1 0 0
    outer loop
      vertex -80 35 -3.5
      vertex -80 35 3.5
      vertex -80 38.5 -3.5
    endloop
  endfacet
  facet normal -1 0 0
    outer loop
      vertex -80 38.5 -3.5
      vertex -80 35 3.5
      vertex -80 38.5 3.5
    endloop
  endfacet
  facet normal 0 -1 0
    outer loop
      vertex -80 35 3.5
      vertex -80 35 -3.5
      vertex -73 35 -3.5
    endloop
  endfacet
  facet normal 0 -1 0
    outer loop
      vertex -73 35 3.5
      vertex -80 35 3.5
      vertex -73 35 -3.5
    endloop
  endfacet
  facet normal 1 0 0
    outer loop
      vertex -73 35 3.5
      vertex -73 35 -3.5
      vertex -73 38 -3.5
    endloop
  endfacet
  facet normal 1 0 0
    outer loop
      vertex -73 38 3.5
      vertex -73 35 3.5
      vertex -73 38 -3.5
    endloop
  endfacet
  facet normal 0.910366 0.413803 0
    outer loop
      vertex -75.5 43.5 3.5
      vertex -73 38 3.5
      vertex -73 38 -3.5
    endloop
  endfacet
  facet normal 0.910366 0.413803 0
    outer loop
      vertex -75.5 43.5 -3.5
      vertex -75.5 43.5 3.5
      vertex -73 38 -3.5
    endloop
  endfacet
  facet normal 0.413803 0.910366 0
    outer loop
      vertex -75.5 43.5 3.5
      vertex -75.5 43.5 -3.5
      vertex -81 46 3.5
    endloop
  endfacet
  facet normal 0.413803 0.910366 0
    outer loop
      vertex -81 46 3.5
      vertex -75.5 43.5 -3.5
      vertex -81 46 -3.5
    endloop
  endfacet
  facet normal 0 1 0
    outer loop
      vertex -110 46 -3.5
      vertex -110 46 3.5
      vertex -81 46 -3.5
    endloop
  endfacet
  facet normal 0 1 0
    outer loop
      vertex -81 46 -3.5
      vertex -110 46 3.5
      vertex -81 46 3.5
    endloop
  endfacet
  facet normal -0.358979 0.933346 0
    outer loop
      vertex -110 46 3.5
      vertex -110 46 -3.5
      vertex -116.5 43.5 3.5
    endloop
  endfacet
  facet normal -0.358979 0.933346 0
    outer loop
      vertex -116.5 43.5 3.5
      vertex -110 46 -3.5
      vertex -116.5 43.5 -3.5
    endloop
  endfacet
  facet normal -0.910366 0.413803 0
    outer loop
      vertex -116.5 43.5 3.5
      vertex -116.5 43.5 -3.5
      vertex -119 38 3.5
    endloop
  endfacet
  facet normal -0.910366 0.413803 0
    outer loop
      vertex -119 38 3.5
      vertex -116.5 43.5 -3.5
      vertex -119 38 -3.5
    endloop
  endfacet
  facet normal -1 0 0
    outer loop
      vertex -119 28 -3.5
      vertex -119 28 3.5
      vertex -119 38 -3.5
    endloop
  endfacet
  facet normal -1 0 0
    outer loop
      vertex -119 38 -3.5
      vertex -119 28 3.5
      vertex -119 38 3.5
    endloop
  endfacet
  facet normal -0.923077 -0.384615 0
    outer loop
      vertex -116.5 22 3.5
      vertex -119 28 3.5
      vertex -116.5 22 -3.5
    endloop
  endfacet
  facet normal -0.923077 -0.384615 0
    outer loop
      vertex -116.5 22 -3.5
      vertex -119 28 3.5
      vertex -119 28 -3.5
    endloop
  endfacet
  facet normal -0.294086 -0.955779 0
    outer loop
      vertex -110 20 -3.5
      vertex -110 20 3.5
      vertex -116.5 22 3.5
    endloop
  endfacet
  facet normal -0.294086 -0.955779 0
    outer loop
      vertex -116.5 22 -3.5
      vertex -110 20 -3.5
      vertex -116.5 22 3.5
    endloop
  endfacet
  facet normal 0 -1 0
    outer loop
      vertex -110 20 3.5
      vertex -110 20 -3.5
      vertex -81 20 -3.5
    endloop
  endfacet
  facet normal 0 -1 0
    outer loop
      vertex -81 20 3.5
      vertex -110 20 3.5
      vertex -81 20 -3.5
    endloop
  endfacet
  facet normal -0.447214 -0.894427 0
    outer loop
      vertex -81 20 3.5
      vertex -81 20 -3.5
      vertex -80 19.5 -3.5
    endloop
  endfacet
  facet normal -0.447214 -0.894427 0
    outer loop
      vertex -80 19.5 3.5
      vertex -81 20 3.5
      vertex -80 19.5 -3.5
    endloop
  endfacet
  facet normal -1 0 0
    outer loop
      vertex -80 7.5 -3.5
      vertex -80 7.5 3.5
      vertex -80 19.5 -3.5
    endloop
  endfacet
  facet normal -1 0 0
    outer loop
      vertex -80 19.5 -3.5
      vertex -80 7.5 3.5
      vertex -80 19.5 3.5
    endloop
  endfacet
  facet normal -0.447214 0.894427 0
    outer loop
      vertex -81 7 -3.5
      vertex -81 7 3.5
      vertex -80 7.5 -3.5
    endloop
  endfacet
  facet normal -0.447214 0.894427 0
    outer loop
      vertex -80 7.5 -3.5
      vertex -81 7 3.5
      vertex -80 7.5 3.5
    endloop
  endfacet
  facet normal 0 1 0
    outer loop
      vertex -110 7 -3.5
      vertex -110 7 3.5
      vertex -81 7 -3.5
    endloop
  endfacet
  facet normal 0 1 0
    outer loop
      vertex -81 7 -3.5
      vertex -110 7 3.5
      vertex -81 7 3.5
    endloop
  endfacet
  facet normal 0.316228 0.948683 0
    outer loop
      vertex -111.5 7.5 -3.5
      vertex -111.5 7.5 3.5
      vertex -110 7 -3.5
    endloop
  endfacet
  facet normal 0.316228 0.948683 0
    outer loop
      vertex -110 7 -3.5
      vertex -111.5 7.5 3.5
      vertex -110 7 3.5
    endloop
  endfacet
  facet normal 0.707107 0.707107 0
    outer loop
      vertex -112 8 -3.5
      vertex -112 8 3.5
      vertex -111.5 7.5 -3.5
    endloop
  endfacet
  facet normal 0.707107 0.707107 0
    outer loop
      vertex -111.5 7.5 -3.5
      vertex -112 8 3.5
      vertex -111.5 7.5 3.5
    endloop
  endfacet
  facet normal 1 0 0
    outer loop
      vertex -112 8 3.5
      vertex -112 8 -3.5
      vertex -112 11 -3.5
    endloop
  endfacet
  facet normal 1 0 0
    outer loop
      vertex -112 11 3.5
      vertex -112 8 3.5
      vertex -112 11 -3.5
    endloop
  endfacet
  facet normal -1 0 0
    outer loop
      vertex -65 8 -3.5
      vertex -65 8 3.5
      vertex -65 11 -3.5
    endloop
  endfacet
  facet normal -1 0 0
    outer loop
      vertex -65 11 -3.5
      vertex -65 8 3.5
      vertex -65 11 3.5
    endloop
  endfacet
  facet normal -0.910366 -0.413803 0
    outer loop
      vertex -62.5 2.5 3.5
      vertex -65 8 3.5
      vertex -62.5 2.5 -3.5
    endloop
  endfacet
  facet normal -0.910366 -0.413803 0
    outer loop
      vertex -62.5 2.5 -3.5
      vertex -65 8 3.5
      vertex -65 8 -3.5
    endloop
  endfacet
  facet normal 0 0 -1
    outer loop
      vertex -65 8 -3.5
      vertex -65 11 -3.5
      vertex -62.5 2.5 -3.5
    endloop
  endfacet
  facet normal 0 0 -1
    outer loop
      vertex -62.5 2.5 -3.5
      vertex -65 11 -3.5
      vertex -58 11 -3.5
    endloop
  endfacet
  facet normal 0 0 -1
    outer loop
      vertex -62.5 2.5 -3.5
      vertex -58 11 -3.5
      vertex -58 8 -3.5
    endloop
  endfacet
  facet normal 0 0 -1
    outer loop
      vertex -62.5 2.5 -3.5
      vertex -58 8 -3.5
      vertex -57.5 7.5 -3.5
    endloop
  endfacet
  facet normal 0 0 -1
    outer loop
      vertex -57.5 7.5 -3.5
      vertex -56 7 -3.5
      vertex -62.5 2.5 -3.5
    endloop
  endfacet
  facet normal 0 0 -1
    outer loop
      vertex -56 7 -3.5
      vertex -27 7 -3.5
      vertex -62.5 2.5 -3.5
    endloop
  endfacet
  facet normal 0 0 -1
    outer loop
      vertex -27 7 -3.5
      vertex -19 8 -3.5
      vertex -62.5 2.5 -3.5
    endloop
  endfacet
  facet normal 0 0 -1
    outer loop
      vertex -27 20 -3.5
      vertex -56 20 -3.5
      vertex -62.5 22 -3.5
    endloop
  endfacet
  facet normal 0 0 -1
    outer loop
      vertex -56 26 -3.5
      vertex -62.5 22 -3.5
      vertex -65 28 -3.5
    endloop
  endfacet
  facet normal 0 0 -1
    outer loop
      vertex -58 28 -3.5
      vertex -65 28 -3.5
      vertex -65 38 -3.5
    endloop
  endfacet
  facet normal 0 0 -1
    outer loop
      vertex -56 39 -3.5
      vertex -65 38 -3.5
      vertex -62.5 43.5 -3.5
    endloop
  endfacet
  facet normal 0 0 -1
    outer loop
      vertex -27 39 -3.5
      vertex -56 46 -3.5
      vertex -27 46 -3.5
    endloop
  endfacet
  facet normal 0 0 -1
    outer loop
      vertex -26 38.5 -3.5
      vertex -27 46 -3.5
      vertex -21.5 43.5 -3.5
    endloop
  endfacet
  facet normal 0 0 -1
    outer loop
      vertex -21.5 24 -3.5
      vertex -26 7.5 -3.5
      vertex -26 19.5 -3.5
    endloop
  endfacet
  facet normal 0 0 -1
    outer loop
      vertex -56 39 -3.5
      vertex -56 46 -3.5
      vertex -27 39 -3.5
    endloop
  endfacet
  facet normal 0 0 -1
    outer loop
      vertex -27 39 -3.5
      vertex -27 46 -3.5
      vertex -26 38.5 -3.5
    endloop
  endfacet
  facet normal 0 0 -1
    outer loop
      vertex -27 26 -3.5
      vertex -26 19.5 -3.5
      vertex -27 20 -3.5
    endloop
  endfacet
  facet normal 0 0 -1
    outer loop
      vertex -26 35 -3.5
      vertex -26 38.5 -3.5
      vertex -21.5 43.5 -3.5
    endloop
  endfacet
  facet normal 0 0 -1
    outer loop
      vertex -56 39 -3.5
      vertex -62.5 43.5 -3.5
      vertex -56 46 -3.5
    endloop
  endfacet
  facet normal 0 0 -1
    outer loop
      vertex -57.5 38.5 -3.5
      vertex -65 38 -3.5
      vertex -56 39 -3.5
    endloop
  endfacet
  facet normal 0 0 -1
    outer loop
      vertex -58 28 -3.5
      vertex -65 38 -3.5
      vertex -58 38 -3.5
    endloop
  endfacet
  facet normal 0 0 -1
    outer loop
      vertex -58 38 -3.5
      vertex -65 38 -3.5
      vertex -57.5 38.5 -3.5
    endloop
  endfacet
  facet normal 0 0 -1
    outer loop
      vertex -21.5 24 -3.5
      vertex -26 19.5 -3.5
      vertex -27 26 -3.5
    endloop
  endfacet
  facet normal 0 0 -1
    outer loop
      vertex -57.5 26.5 -3.5
      vertex -65 28 -3.5
      vertex -58 28 -3.5
    endloop
  endfacet
  facet normal 0 0 -1
    outer loop
      vertex -56 26 -3.5
      vertex -65 28 -3.5
      vertex -57.5 26.5 -3.5
    endloop
  endfacet
  facet normal 0 0 -1
    outer loop
      vertex -27 20 -3.5
      vertex -62.5 22 -3.5
      vertex -56 26 -3.5
    endloop
  endfacet
  facet normal 0 0 -1
    outer loop
      vertex -27 26 -3.5
      vertex -27 20 -3.5
      vertex -56 26 -3.5
    endloop
  endfacet
  facet normal 0 0 -1
    outer loop
      vertex -26 7.5 -3.5
      vertex -21.5 24 -3.5
      vertex -19 18 -3.5
    endloop
  endfacet
  facet normal 0 0 -1
    outer loop
      vertex -26 7.5 -3.5
      vertex -19 18 -3.5
      vertex -19 8 -3.5
    endloop
  endfacet
  facet normal 0 0 -1
    outer loop
      vertex -26 7.5 -3.5
      vertex -19 8 -3.5
      vertex -27 7 -3.5
    endloop
  endfacet
  facet normal 0 0 -1
    outer loop
      vertex -62.5 2.5 -3.5
      vertex -19 8 -3.5
      vertex -21.5 2.5 -3.5
    endloop
  endfacet
  facet normal 0 0 -1
    outer loop
      vertex -62.5 2.5 -3.5
      vertex -21.5 2.5 -3.5
      vertex -27 0 -3.5
    endloop
  endfacet
  facet normal 0 0 -1
    outer loop
      vertex -62.5 2.5 -3.5
      vertex -27 0 -3.5
      vertex -56 0 -3.5
    endloop
  endfacet
  facet normal 0 0 -1
    outer loop
      vertex -26 35 -3.5
      vertex -21.5 43.5 -3.5
      vertex -19 38 -3.5
    endloop
  endfacet
  facet normal 0 0 -1
    outer loop
      vertex -26 35 -3.5
      vertex -19 38 -3.5
      vertex -19 35 -3.5
    endloop
  endfacet
  facet normal 0 1 0
    outer loop
      vertex -65 11 -3.5
      vertex -65 11 3.5
      vertex -58 11 -3.5
    endloop
  endfacet
  facet normal 0 1 0
    outer loop
      vertex -58 11 -3.5
      vertex -65 11 3.5
      vertex -58 11 3.5
    endloop
  endfacet
  facet normal 0 0 1
    outer loop
      vertex -65 11 3.5
      vertex -65 8 3.5
      vertex -62.5 2.5 3.5
    endloop
  endfacet
  facet normal 0 0 1
    outer loop
      vertex -57.5 7.5 3.5
      vertex -65 11 3.5
      vertex -56 0 3.5
    endloop
  endfacet
  facet normal 0 0 1
    outer loop
      vertex -56 0 3.5
      vertex -65 11 3.5
      vertex -62.5 2.5 3.5
    endloop
  endfacet
  facet normal 0 0 1
    outer loop
      vertex -58 8 3.5
      vertex -58 11 3.5
      vertex -65 11 3.5
    endloop
  endfacet
  facet normal 0 0 1
    outer loop
      vertex -26 35 3.5
      vertex -19 35 3.5
      vertex -26 38.5 3.5
    endloop
  endfacet
  facet normal 0 0 1
    outer loop
      vertex -56 20 3.5
      vertex -21.5 24 3.5
      vertex -27 26 3.5
    endloop
  endfacet
  facet normal 0 0 1
    outer loop
      vertex -56 20 3.5
      vertex -27 20 3.5
      vertex -21.5 24 3.5
    endloop
  endfacet
  facet normal 0 0 1
    outer loop
      vertex -26 19.5 3.5
      vertex -19 8 3.5
      vertex -19 18 3.5
    endloop
  endfacet
  facet normal 0 0 1
    outer loop
      vertex -26 19.5 3.5
      vertex -26 7.5 3.5
      vertex -19 8 3.5
    endloop
  endfacet
  facet normal 0 0 1
    outer loop
      vertex -56 46 3.5
      vertex -58 38 3.5
      vertex -57.5 38.5 3.5
    endloop
  endfacet
  facet normal 0 0 1
    outer loop
      vertex -56 46 3.5
      vertex -57.5 38.5 3.5
      vertex -56 39 3.5
    endloop
  endfacet
  facet normal 0 0 1
    outer loop
      vertex -21.5 43.5 3.5
      vertex -56 39 3.5
      vertex -27 39 3.5
    endloop
  endfacet
  facet normal 0 0 1
    outer loop
      vertex -19 38 3.5
      vertex -27 39 3.5
      vertex -26 38.5 3.5
    endloop
  endfacet
  facet normal 0 0 1
    outer loop
      vertex -19 38 3.5
      vertex -26 38.5 3.5
      vertex -19 35 3.5
    endloop
  endfacet
  facet normal 0 0 1
    outer loop
      vertex -21.5 43.5 3.5
      vertex -27 39 3.5
      vertex -19 38 3.5
    endloop
  endfacet
  facet normal 0 0 1
    outer loop
      vertex -27 46 3.5
      vertex -56 39 3.5
      vertex -21.5 43.5 3.5
    endloop
  endfacet
  facet normal 0 0 1
    outer loop
      vertex -56 46 3.5
      vertex -56 39 3.5
      vertex -27 46 3.5
    endloop
  endfacet
  facet normal 0 0 1
    outer loop
      vertex -62.5 22 3.5
      vertex -58 38 3.5
      vertex -56 46 3.5
    endloop
  endfacet
  facet normal 0 0 1
    outer loop
      vertex -65 38 3.5
      vertex -65 28 3.5
      vertex -62.5 43.5 3.5
    endloop
  endfacet
  facet normal 0 0 1
    outer loop
      vertex -62.5 43.5 3.5
      vertex -62.5 22 3.5
      vertex -56 46 3.5
    endloop
  endfacet
  facet normal 0 0 1
    outer loop
      vertex -56 26 3.5
      vertex -56 20 3.5
      vertex -27 26 3.5
    endloop
  endfacet
  facet normal 0 0 1
    outer loop
      vertex -21.5 24 3.5
      vertex -27 20 3.5
      vertex -19 18 3.5
    endloop
  endfacet
  facet normal 0 0 1
    outer loop
      vertex -27 20 3.5
      vertex -26 19.5 3.5
      vertex -19 18 3.5
    endloop
  endfacet
  facet normal 0 0 1
    outer loop
      vertex -19 8 3.5
      vertex -26 7.5 3.5
      vertex -21.5 2.5 3.5
    endloop
  endfacet
  facet normal 0 0 1
    outer loop
      vertex -26 7.5 3.5
      vertex -27 7 3.5
      vertex -21.5 2.5 3.5
    endloop
  endfacet
  facet normal 0 0 1
    outer loop
      vertex -27 0 3.5
      vertex -56 7 3.5
      vertex -56 0 3.5
    endloop
  endfacet
  facet normal 0 0 1
    outer loop
      vertex -56 7 3.5
      vertex -57.5 7.5 3.5
      vertex -56 0 3.5
    endloop
  endfacet
  facet normal 0 0 1
    outer loop
      vertex -57.5 7.5 3.5
      vertex -58 8 3.5
      vertex -65 11 3.5
    endloop
  endfacet
  facet normal 0 0 1
    outer loop
      vertex -27 7 3.5
      vertex -27 0 3.5
      vertex -21.5 2.5 3.5
    endloop
  endfacet
  facet normal 0 0 1
    outer loop
      vertex -27 7 3.5
      vertex -56 7 3.5
      vertex -27 0 3.5
    endloop
  endfacet
  facet normal 0 0 1
    outer loop
      vertex -65 28 3.5
      vertex -62.5 22 3.5
      vertex -62.5 43.5 3.5
    endloop
  endfacet
  facet normal 0 0 1
    outer loop
      vertex -62.5 22 3.5
      vertex -58 28 3.5
      vertex -58 38 3.5
    endloop
  endfacet
  facet normal 0 0 1
    outer loop
      vertex -62.5 22 3.5
      vertex -57.5 26.5 3.5
      vertex -58 28 3.5
    endloop
  endfacet
  facet normal 0 0 1
    outer loop
      vertex -62.5 22 3.5
      vertex -56 26 3.5
      vertex -57.5 26.5 3.5
    endloop
  endfacet
  facet normal 0 0 1
    outer loop
      vertex -62.5 22 3.5
      vertex -56 20 3.5
      vertex -56 26 3.5
    endloop
  endfacet
  facet normal -0.358979 -0.933346 0
    outer loop
      vertex -56 0 -3.5
      vertex -56 0 3.5
      vertex -62.5 2.5 3.5
    endloop
  endfacet
  facet normal -0.358979 -0.933346 0
    outer loop
      vertex -62.5 2.5 -3.5
      vertex -56 0 -3.5
      vertex -62.5 2.5 3.5
    endloop
  endfacet
  facet normal 0 -1 0
    outer loop
      vertex -56 0 3.5
      vertex -56 0 -3.5
      vertex -27 0 -3.5
    endloop
  endfacet
  facet normal 0 -1 0
    outer loop
      vertex -27 0 3.5
      vertex -56 0 3.5
      vertex -27 0 -3.5
    endloop
  endfacet
  facet normal 0.413803 -0.910366 0
    outer loop
      vertex -21.5 2.5 -3.5
      vertex -21.5 2.5 3.5
      vertex -27 0 3.5
    endloop
  endfacet
  facet normal 0.413803 -0.910366 0
    outer loop
      vertex -27 0 -3.5
      vertex -21.5 2.5 -3.5
      vertex -27 0 3.5
    endloop
  endfacet
  facet normal 0.910366 -0.413803 0
    outer loop
      vertex -19 8 -3.5
      vertex -19 8 3.5
      vertex -21.5 2.5 3.5
    endloop
  endfacet
  facet normal 0.910366 -0.413803 0
    outer loop
      vertex -21.5 2.5 -3.5
      vertex -19 8 -3.5
      vertex -21.5 2.5 3.5
    endloop
  endfacet
  facet normal 1 0 0
    outer loop
      vertex -19 8 3.5
      vertex -19 8 -3.5
      vertex -19 18 -3.5
    endloop
  endfacet
  facet normal 1 0 0
    outer loop
      vertex -19 18 3.5
      vertex -19 8 3.5
      vertex -19 18 -3.5
    endloop
  endfacet
  facet normal 0.923077 0.384615 0
    outer loop
      vertex -21.5 24 3.5
      vertex -19 18 3.5
      vertex -19 18 -3.5
    endloop
  endfacet
  facet normal 0.923077 0.384615 0
    outer loop
      vertex -21.5 24 -3.5
      vertex -21.5 24 3.5
      vertex -19 18 -3.5
    endloop
  endfacet
  facet normal 0.341743 0.939793 0
    outer loop
      vertex -21.5 24 3.5
      vertex -21.5 24 -3.5
      vertex -27 26 3.5
    endloop
  endfacet
  facet normal 0.341743 0.939793 0
    outer loop
      vertex -27 26 3.5
      vertex -21.5 24 -3.5
      vertex -27 26 -3.5
    endloop
  endfacet
  facet normal 0 1 0
    outer loop
      vertex -56 26 -3.5
      vertex -56 26 3.5
      vertex -27 26 -3.5
    endloop
  endfacet
  facet normal 0 1 0
    outer loop
      vertex -27 26 -3.5
      vertex -56 26 3.5
      vertex -27 26 3.5
    endloop
  endfacet
  facet normal 0.316228 0.948683 0
    outer loop
      vertex -57.5 26.5 -3.5
      vertex -57.5 26.5 3.5
      vertex -56 26 -3.5
    endloop
  endfacet
  facet normal 0.316228 0.948683 0
    outer loop
      vertex -56 26 -3.5
      vertex -57.5 26.5 3.5
      vertex -56 26 3.5
    endloop
  endfacet
  facet normal 0.948683 0.316228 0
    outer loop
      vertex -57.5 26.5 -3.5
      vertex -58 28 -3.5
      vertex -58 28 3.5
    endloop
  endfacet
  facet normal 0.948683 0.316228 0
    outer loop
      vertex -57.5 26.5 3.5
      vertex -57.5 26.5 -3.5
      vertex -58 28 3.5
    endloop
  endfacet
  facet normal 1 0 0
    outer loop
      vertex -58 28 3.5
      vertex -58 28 -3.5
      vertex -58 38 -3.5
    endloop
  endfacet
  facet normal 1 0 0
    outer loop
      vertex -58 38 3.5
      vertex -58 28 3.5
      vertex -58 38 -3.5
    endloop
  endfacet
  facet normal 0.707107 -0.707107 0
    outer loop
      vertex -58 38 3.5
      vertex -58 38 -3.5
      vertex -57.5 38.5 -3.5
    endloop
  endfacet
  facet normal 0.707107 -0.707107 0
    outer loop
      vertex -57.5 38.5 3.5
      vertex -58 38 3.5
      vertex -57.5 38.5 -3.5
    endloop
  endfacet
  facet normal 0.316228 -0.948683 0
    outer loop
      vertex -57.5 38.5 3.5
      vertex -57.5 38.5 -3.5
      vertex -56 39 -3.5
    endloop
  endfacet
  facet normal 0.316228 -0.948683 0
    outer loop
      vertex -56 39 3.5
      vertex -57.5 38.5 3.5
      vertex -56 39 -3.5
    endloop
  endfacet
  facet normal 0 -1 0
    outer loop
      vertex -56 39 3.5
      vertex -56 39 -3.5
      vertex -27 39 -3.5
    endloop
  endfacet
  facet normal 0 -1 0
    outer loop
      vertex -27 39 3.5
      vertex -56 39 3.5
      vertex -27 39 -3.5
    endloop
  endfacet
  facet normal -0.447214 -0.894427 0
    outer loop
      vertex -27 39 3.5
      vertex -27 39 -3.5
      vertex -26 38.5 -3.5
    endloop
  endfacet
  facet normal -0.447214 -0.894427 0
    outer loop
      vertex -26 38.5 3.5
      vertex -27 39 3.5
      vertex -26 38.5 -3.5
    endloop
  endfacet
  facet normal -1 0 0
    outer loop
      vertex -26 35 -3.5
      vertex -26 35 3.5
      vertex -26 38.5 -3.5
    endloop
  endfacet
  facet normal -1 0 0
    outer loop
      vertex -26 38.5 -3.5
      vertex -26 35 3.5
      vertex -26 38.5 3.5
    endloop
  endfacet
  facet normal 0 -1 0
    outer loop
      vertex -26 35 3.5
      vertex -26 35 -3.5
      vertex -19 35 -3.5
    endloop
  endfacet
  facet normal 0 -1 0
    outer loop
      vertex -19 35 3.5
      vertex -26 35 3.5
      vertex -19 35 -3.5
    endloop
  endfacet
  facet normal 1 0 0
    outer loop
      vertex -19 35 3.5
      vertex -19 35 -3.5
      vertex -19 38 -3.5
    endloop
  endfacet
  facet normal 1 0 0
    outer loop
      vertex -19 38 3.5
      vertex -19 35 3.5
      vertex -19 38 -3.5
    endloop
  endfacet
  facet normal 0.910366 0.413803 0
    outer loop
      vertex -21.5 43.5 3.5
      vertex -19 38 3.5
      vertex -19 38 -3.5
    endloop
  endfacet
  facet normal 0.910366 0.413803 0
    outer loop
      vertex -21.5 43.5 -3.5
      vertex -21.5 43.5 3.5
      vertex -19 38 -3.5
    endloop
  endfacet
  facet normal 0.413803 0.910366 0
    outer loop
      vertex -21.5 43.5 3.5
      vertex -21.5 43.5 -3.5
      vertex -27 46 3.5
    endloop
  endfacet
  facet normal 0.413803 0.910366 0
    outer loop
      vertex -27 46 3.5
      vertex -21.5 43.5 -3.5
      vertex -27 46 -3.5
    endloop
  endfacet
  facet normal 0 1 0
    outer loop
      vertex -56 46 -3.5
      vertex -56 46 3.5
      vertex -27 46 -3.5
    endloop
  endfacet
  facet normal 0 1 0
    outer loop
      vertex -27 46 -3.5
      vertex -56 46 3.5
      vertex -27 46 3.5
    endloop
  endfacet
  facet normal -0.358979 0.933346 0
    outer loop
      vertex -56 46 3.5
      vertex -56 46 -3.5
      vertex -62.5 43.5 3.5
    endloop
  endfacet
  facet normal -0.358979 0.933346 0
    outer loop
      vertex -62.5 43.5 3.5
      vertex -56 46 -3.5
      vertex -62.5 43.5 -3.5
    endloop
  endfacet
  facet normal -0.910366 0.413803 0
    outer loop
      vertex -62.5 43.5 3.5
      vertex -62.5 43.5 -3.5
      vertex -65 38 3.5
    endloop
  endfacet
  facet normal -0.910366 0.413803 0
    outer loop
      vertex -65 38 3.5
      vertex -62.5 43.5 -3.5
      vertex -65 38 -3.5
    endloop
  endfacet
  facet normal -1 0 0
    outer loop
      vertex -65 28 -3.5
      vertex -65 28 3.5
      vertex -65 38 -3.5
    endloop
  endfacet
  facet normal -1 0 0
    outer loop
      vertex -65 38 -3.5
      vertex -65 28 3.5
      vertex -65 38 3.5
    endloop
  endfacet
  facet normal -0.923077 -0.384615 0
    outer loop
      vertex -62.5 22 3.5
      vertex -65 28 3.5
      vertex -62.5 22 -3.5
    endloop
  endfacet
  facet normal -0.923077 -0.384615 0
    outer loop
      vertex -62.5 22 -3.5
      vertex -65 28 3.5
      vertex -65 28 -3.5
    endloop
  endfacet
  facet normal -0.294086 -0.955779 0
    outer loop
      vertex -56 20 -3.5
      vertex -56 20 3.5
      vertex -62.5 22 3.5
    endloop
  endfacet
  facet normal -0.294086 -0.955779 0
    outer loop
      vertex -62.5 22 -3.5
      vertex -56 20 -3.5
      vertex -62.5 22 3.5
    endloop
  endfacet
  facet normal 0 -1 0
    outer loop
      vertex -56 20 3.5
      vertex -56 20 -3.5
      vertex -27 20 -3.5
    endloop
  endfacet
  facet normal 0 -1 0
    outer loop
      vertex -27 20 3.5
      vertex -56 20 3.5
      vertex -27 20 -3.5
    endloop
  endfacet
  facet normal -0.447214 -0.894427 0
    outer loop
      vertex -27 20 3.5
      vertex -27 20 -3.5
      vertex -26 19.5 -3.5
    endloop
  endfacet
  facet normal -0.447214 -0.894427 0
    outer loop
      vertex -26 19.5 3.5
      vertex -27 20 3.5
      vertex -26 19.5 -3.5
    endloop
  endfacet
  facet normal -1 0 0
    outer loop
      vertex -26 7.5 -3.5
      vertex -26 7.5 3.5
      vertex -26 19.5 -3.5
    endloop
  endfacet
  facet normal -1 0 0
    outer loop
      vertex -26 19.5 -3.5
      vertex -26 7.5 3.5
      vertex -26 19.5 3.5
    endloop
  endfacet
  facet normal -0.447214 0.894427 0
    outer loop
      vertex -27 7 -3.5
      vertex -27 7 3.5
      vertex -26 7.5 -3.5
    endloop
  endfacet
  facet normal -0.447214 0.894427 0
    outer loop
      vertex -26 7.5 -3.5
      vertex -27 7 3.5
      vertex -26 7.5 3.5
    endloop
  endfacet
  facet normal 0 1 0
    outer loop
      vertex -56 7 -3.5
      vertex -56 7 3.5
      vertex -27 7 -3.5
    endloop
  endfacet
  facet normal 0 1 0
    outer loop
      vertex -27 7 -3.5
      vertex -56 7 3.5
      vertex -27 7 3.5
    endloop
  endfacet
  facet normal 0.316228 0.948683 0
    outer loop
      vertex -57.5 7.5 -3.5
      vertex -57.5 7.5 3.5
      vertex -56 7 -3.5
    endloop
  endfacet
  facet normal 0.316228 0.948683 0
    outer loop
      vertex -56 7 -3.5
      vertex -57.5 7.5 3.5
      vertex -56 7 3.5
    endloop
  endfacet
  facet normal 0.707107 0.707107 0
    outer loop
      vertex -58 8 -3.5
      vertex -58 8 3.5
      vertex -57.5 7.5 -3.5
    endloop
  endfacet
  facet normal 0.707107 0.707107 0
    outer loop
      vertex -57.5 7.5 -3.5
      vertex -58 8 3.5
      vertex -57.5 7.5 3.5
    endloop
  endfacet
  facet normal 1 0 0
    outer loop
      vertex -58 8 3.5
      vertex -58 8 -3.5
      vertex -58 11 -3.5
    endloop
  endfacet
  facet normal 1 0 0
    outer loop
      vertex -58 11 3.5
      vertex -58 8 3.5
      vertex -58 11 -3.5
    endloop
  endfacet
  facet normal 0 -1 0
    outer loop
      vertex -10 0 3.5
      vertex -10 0 -3.5
      vertex 32 0 -3.5
    endloop
  endfacet
  facet normal 0 -1 0
    outer loop
      vertex 32 0 3.5
      vertex -10 0 3.5
      vertex 32 0 -3.5
    endloop
  endfacet
  facet normal 0 0 -1
    outer loop
      vertex 32 39 -3.5
      vertex -10 46 -3.5
      vertex 32 46 -3.5
    endloop
  endfacet
  facet normal 0 0 -1
    outer loop
      vertex -3 39 -3.5
      vertex -10 46 -3.5
      vertex 32 39 -3.5
    endloop
  endfacet
  facet normal 0 0 -1
    outer loop
      vertex 25 26 -3.5
      vertex 25 20 -3.5
      vertex -3 26 -3.5
    endloop
  endfacet
  facet normal 0 0 -1
    outer loop
      vertex -10 0 -3.5
      vertex -10 46 -3.5
      vertex -3 26 -3.5
    endloop
  endfacet
  facet normal 0 0 -1
    outer loop
      vertex 32 7 -3.5
      vertex 32 0 -3.5
      vertex -3 7 -3.5
    endloop
  endfacet
  facet normal 0 0 -1
    outer loop
      vertex -3 20 -3.5
      vertex -3 26 -3.5
      vertex 25 20 -3.5
    endloop
  endfacet
  facet normal 0 0 -1
    outer loop
      vertex -10 0 -3.5
      vertex -3 26 -3.5
      vertex -3 20 -3.5
    endloop
  endfacet
  facet normal 0 0 -1
    outer loop
      vertex -10 0 -3.5
      vertex -3 20 -3.5
      vertex -3 7 -3.5
    endloop
  endfacet
  facet normal 0 0 -1
    outer loop
      vertex -10 0 -3.5
      vertex -3 7 -3.5
      vertex 32 0 -3.5
    endloop
  endfacet
  facet normal 0 0 -1
    outer loop
      vertex -3 26 -3.5
      vertex -10 46 -3.5
      vertex -3 39 -3.5
    endloop
  endfacet
  facet normal -1 0 0
    outer loop
      vertex -10 0 -3.5
      vertex -10 0 3.5
      vertex -10 46 -3.5
    endloop
  endfacet
  facet normal -1 0 0
    outer loop
      vertex -10 46 -3.5
      vertex -10 0 3.5
      vertex -10 46 3.5
    endloop
  endfacet
  facet normal 0 0 1
    outer loop
      vertex -3 7 3.5
      vertex -10 0 3.5
      vertex 32 0 3.5
    endloop
  endfacet
  facet normal 0 0 1
    outer loop
      vertex -3 20 3.5
      vertex 25 20 3.5
      vertex -3 26 3.5
    endloop
  endfacet
  facet normal 0 0 1
    outer loop
      vertex -10 46 3.5
      vertex -10 0 3.5
      vertex -3 7 3.5
    endloop
  endfacet
  facet normal 0 0 1
    outer loop
      vertex -3 39 3.5
      vertex 32 39 3.5
      vertex -10 46 3.5
    endloop
  endfacet
  facet normal 0 0 1
    outer loop
      vertex -10 46 3.5
      vertex -3 7 3.5
      vertex -3 20 3.5
    endloop
  endfacet
  facet normal 0 0 1
    outer loop
      vertex -10 46 3.5
      vertex -3 20 3.5
      vertex -3 26 3.5
    endloop
  endfacet
  facet normal 0 0 1
    outer loop
      vertex 32 46 3.5
      vertex -10 46 3.5
      vertex 32 39 3.5
    endloop
  endfacet
  facet normal 0 0 1
    outer loop
      vertex -3 26 3.5
      vertex -3 39 3.5
      vertex -10 46 3.5
    endloop
  endfacet
  facet normal 0 0 1
    outer loop
      vertex 25 26 3.5
      vertex -3 26 3.5
      vertex 25 20 3.5
    endloop
  endfacet
  facet normal 0 0 1
    outer loop
      vertex 32 7 3.5
      vertex -3 7 3.5
      vertex 32 0 3.5
    endloop
  endfacet
  facet normal 1 0 0
    outer loop
      vertex 32 0 3.5
      vertex 32 0 -3.5
      vertex 32 7 -3.5
    endloop
  endfacet
  facet normal 1 0 0
    outer loop
      vertex 32 7 3.5
      vertex 32 0 3.5
      vertex 32 7 -3.5
    endloop
  endfacet
  facet normal 0 1 0
    outer loop
      vertex -3 7 -3.5
      vertex -3 7 3.5
      vertex 32 7 -3.5
    endloop
  endfacet
  facet normal 0 1 0
    outer loop
      vertex 32 7 -3.5
      vertex -3 7 3.5
      vertex 32 7 3.5
    endloop
  endfacet
  facet normal 1 0 0
    outer loop
      vertex -3 7 3.5
      vertex -3 7 -3.5
      vertex -3 20 -3.5
    endloop
  endfacet
  facet normal 1 0 0
    outer loop
      vertex -3 20 3.5
      vertex -3 7 3.5
      vertex -3 20 -3.5
    endloop
  endfacet
  facet normal 0 -1 0
    outer loop
      vertex -3 20 3.5
      vertex -3 20 -3.5
      vertex 25 20 -3.5
    endloop
  endfacet
  facet normal 0 -1 0
    outer loop
      vertex 25 20 3.5
      vertex -3 20 3.5
      vertex 25 20 -3.5
    endloop
  endfacet
  facet normal 1 0 0
    outer loop
      vertex 25 20 3.5
      vertex 25 20 -3.5
      vertex 25 26 -3.5
    endloop
  endfacet
  facet normal 1 0 0
    outer loop
      vertex 25 26 3.5
      vertex 25 20 3.5
      vertex 25 26 -3.5
    endloop
  endfacet
  facet normal 0 1 0
    outer loop
      vertex -3 26 -3.5
      vertex -3 26 3.5
      vertex 25 26 -3.5
    endloop
  endfacet
  facet normal 0 1 0
    outer loop
      vertex 25 26 -3.5
      vertex -3 26 3.5
      vertex 25 26 3.5
    endloop
  endfacet
  facet normal 1 0 0
    outer loop
      vertex -3 26 3.5
      vertex -3 26 -3.5
      vertex -3 39 -3.5
    endloop
  endfacet
  facet normal 1 0 0
    outer loop
      vertex -3 39 3.5
      vertex -3 26 3.5
      vertex -3 39 -3.5
    endloop
  endfacet
  facet normal 0 -1 0
    outer loop
      vertex -3 39 3.5
      vertex -3 39 -3.5
      vertex 32 39 -3.5
    endloop
  endfacet
  facet normal 0 -1 0
    outer loop
      vertex 32 39 3.5
      vertex -3 39 3.5
      vertex 32 39 -3.5
    endloop
  endfacet
  facet normal 1 0 0
    outer loop
      vertex 32 39 3.5
      vertex 32 39 -3.5
      vertex 32 46 -3.5
    endloop
  endfacet
  facet normal 1 0 0
    outer loop
      vertex 32 46 3.5
      vertex 32 39 3.5
      vertex 32 46 -3.5
    endloop
  endfacet
  facet normal 0 1 0
    outer loop
      vertex -10 46 -3.5
      vertex -10 46 3.5
      vertex 32 46 -3.5
    endloop
  endfacet
  facet normal 0 1 0
    outer loop
      vertex 32 46 -3.5
      vertex -10 46 3.5
      vertex 32 46 3.5
    endloop
  endfacet
  facet normal 0 -1 0
    outer loop
      vertex 41 0 3.5
      vertex 41 0 -3.5
      vertex 87 0 -3.5
    endloop
  endfacet
  facet normal 0 -1 0
    outer loop
      vertex 87 0 3.5
      vertex 41 0 3.5
      vertex 87 0 -3.5
    endloop
  endfacet
  facet normal 0 0 -1
    outer loop
      vertex 87 7 -3.5
      vertex 87 0 -3.5
      vertex 48 7 -3.5
    endloop
  endfacet
  facet normal 0 0 -1
    outer loop
      vertex 41 0 -3.5
      vertex 41 46 -3.5
      vertex 48 7 -3.5
    endloop
  endfacet
  facet normal 0 0 -1
    outer loop
      vertex 41 0 -3.5
      vertex 48 7 -3.5
      vertex 87 0 -3.5
    endloop
  endfacet
  facet normal 0 0 -1
    outer loop
      vertex 48 7 -3.5
      vertex 41 46 -3.5
      vertex 48 46 -3.5
    endloop
  endfacet
  facet normal -1 0 0
    outer loop
      vertex 41 0 -3.5
      vertex 41 0 3.5
      vertex 41 46 -3.5
    endloop
  endfacet
  facet normal -1 0 0
    outer loop
      vertex 41 46 -3.5
      vertex 41 0 3.5
      vertex 41 46 3.5
    endloop
  endfacet
  facet normal 0 0 1
    outer loop
      vertex 48 7 3.5
      vertex 41 0 3.5
      vertex 87 0 3.5
    endloop
  endfacet
  facet normal 0 0 1
    outer loop
      vertex 48 7 3.5
      vertex 48 46 3.5
      vertex 41 46 3.5
    endloop
  endfacet
  facet normal 0 0 1
    outer loop
      vertex 41 46 3.5
      vertex 41 0 3.5
      vertex 48 7 3.5
    endloop
  endfacet
  facet normal 0 0 1
    outer loop
      vertex 87 7 3.5
      vertex 48 7 3.5
      vertex 87 0 3.5
    endloop
  endfacet
  facet normal 1 0 0
    outer loop
      vertex 87 0 3.5
      vertex 87 0 -3.5
      vertex 87 7 -3.5
    endloop
  endfacet
  facet normal 1 0 0
    outer loop
      vertex 87 7 3.5
      vertex 87 0 3.5
      vertex 87 7 -3.5
    endloop
  endfacet
  facet normal 0 1 0
    outer loop
      vertex 48 7 -3.5
      vertex 48 7 3.5
      vertex 87 7 -3.5
    endloop
  endfacet
  facet normal 0 1 0
    outer loop
      vertex 87 7 -3.5
      vertex 48 7 3.5
      vertex 87 7 3.5
    endloop
  endfacet
  facet normal 1 0 0
    outer loop
      vertex 48 7 3.5
      vertex 48 7 -3.5
      vertex 48 46 -3.5
    endloop
  endfacet
  facet normal 1 0 0
    outer loop
      vertex 48 46 3.5
      vertex 48 7 3.5
      vertex 48 46 -3.5
    endloop
  endfacet
  facet normal 0 1 0
    outer loop
      vertex 41 46 -3.5
      vertex 41 46 3.5
      vertex 48 46 -3.5
    endloop
  endfacet
  facet normal 0 1 0
    outer loop
      vertex 48 46 -3.5
      vertex 41 46 3.5
      vertex 48 46 3.5
    endloop
  endfacet
  facet normal 0 -1 0
    outer loop
      vertex 124 0 3.5
      vertex 124 0 -3.5
      vertex 132 0 -3.5
    endloop
  endfacet
  facet normal 0 -1 0
    outer loop
      vertex 132 0 3.5
      vertex 124 0 3.5
      vertex 132 0 -3.5
    endloop
  endfacet
  facet normal 0 0 -1
    outer loop
      vertex 124 0 -3.5
      vertex 124 1 -3.5
      vertex 132 0 -3.5
    endloop
  endfacet
  facet normal 0 0 -1
    outer loop
      vertex 132 0 -3.5
      vertex 124 1 -3.5
      vertex 142 23 -3.5
    endloop
  endfacet
  facet normal 0 0 -1
    outer loop
      vertex 142 23 -3.5
      vertex 124 45 -3.5
      vertex 124 46 -3.5
    endloop
  endfacet
  facet normal 0 0 -1
    outer loop
      vertex 142 23 -3.5
      vertex 124 46 -3.5
      vertex 132 46 -3.5
    endloop
  endfacet
  facet normal 0 0 -1
    outer loop
      vertex 142 23 -3.5
      vertex 132 46 -3.5
      vertex 147 28 -3.5
    endloop
  endfacet
  facet normal 0 0 -1
    outer loop
      vertex 142 23 -3.5
      vertex 147 28 -3.5
      vertex 132 0 -3.5
    endloop
  endfacet
  facet normal 0 0 -1
    outer loop
      vertex 147 28 -3.5
      vertex 162 46 -3.5
      vertex 132 0 -3.5
    endloop
  endfacet
  facet normal 0 0 -1
    outer loop
      vertex 132 0 -3.5
      vertex 162 46 -3.5
      vertex 151 23 -3.5
    endloop
  endfacet
  facet normal 0 0 -1
    outer loop
      vertex 151 23 -3.5
      vertex 170 46 -3.5
      vertex 170 45 -3.5
    endloop
  endfacet
  facet normal 0 0 -1
    outer loop
      vertex 162 46 -3.5
      vertex 170 46 -3.5
      vertex 151 23 -3.5
    endloop
  endfacet
  facet normal 0 0 -1
    outer loop
      vertex 147 18 -3.5
      vertex 170 1 -3.5
      vertex 162 0 -3.5
    endloop
  endfacet
  facet normal 0 0 -1
    outer loop
      vertex 162 0 -3.5
      vertex 170 1 -3.5
      vertex 170 0 -3.5
    endloop
  endfacet
  facet normal 0 0 -1
    outer loop
      vertex 132 0 -3.5
      vertex 151 23 -3.5
      vertex 147 18 -3.5
    endloop
  endfacet
  facet normal 0 0 -1
    outer loop
      vertex 170 1 -3.5
      vertex 147 18 -3.5
      vertex 151 23 -3.5
    endloop
  endfacet
  facet normal -1 0 0
    outer loop
      vertex 124 0 -3.5
      vertex 124 0 3.5
      vertex 124 1 -3.5
    endloop
  endfacet
  facet normal -1 0 0
    outer loop
      vertex 124 1 -3.5
      vertex 124 0 3.5
      vertex 124 1 3.5
    endloop
  endfacet
  facet normal 0 0 1
    outer loop
      vertex 124 1 3.5
      vertex 124 0 3.5
      vertex 132 0 3.5
    endloop
  endfacet
  facet normal 0 0 1
    outer loop
      vertex 151 23 3.5
      vertex 124 1 3.5
      vertex 147 18 3.5
    endloop
  endfacet
  facet normal 0 0 1
    outer loop
      vertex 147 18 3.5
      vertex 124 1 3.5
      vertex 132 0 3.5
    endloop
  endfacet
  facet normal 0 0 1
    outer loop
      vertex 170 0 3.5
      vertex 147 18 3.5
      vertex 162 0 3.5
    endloop
  endfacet
  facet normal 0 0 1
    outer loop
      vertex 170 1 3.5
      vertex 147 18 3.5
      vertex 170 0 3.5
    endloop
  endfacet
  facet normal 0 0 1
    outer loop
      vertex 151 23 3.5
      vertex 147 18 3.5
      vertex 170 1 3.5
    endloop
  endfacet
  facet normal 0 0 1
    outer loop
      vertex 170 45 3.5
      vertex 124 1 3.5
      vertex 151 23 3.5
    endloop
  endfacet
  facet normal 0 0 1
    outer loop
      vertex 170 46 3.5
      vertex 124 1 3.5
      vertex 170 45 3.5
    endloop
  endfacet
  facet normal 0 0 1
    outer loop
      vertex 147 28 3.5
      vertex 124 1 3.5
      vertex 170 46 3.5
    endloop
  endfacet
  facet normal 0 0 1
    outer loop
      vertex 124 45 3.5
      vertex 142 23 3.5
      vertex 132 46 3.5
    endloop
  endfacet
  facet normal 0 0 1
    outer loop
      vertex 162 46 3.5
      vertex 147 28 3.5
      vertex 170 46 3.5
    endloop
  endfacet
  facet normal 0 0 1
    outer loop
      vertex 124 46 3.5
      vertex 124 45 3.5
      vertex 132 46 3.5
    endloop
  endfacet
  facet normal 0 0 1
    outer loop
      vertex 147 28 3.5
      vertex 142 23 3.5
      vertex 124 1 3.5
    endloop
  endfacet
  facet normal 0 0 1
    outer loop
      vertex 147 28 3.5
      vertex 132 46 3.5
      vertex 142 23 3.5
    endloop
  endfacet
  facet normal 0.768221 -0.640184 0
    outer loop
      vertex 132 0 3.5
      vertex 132 0 -3.5
      vertex 147 18 -3.5
    endloop
  endfacet
  facet normal 0.768221 -0.640184 0
    outer loop
      vertex 147 18 3.5
      vertex 132 0 3.5
      vertex 147 18 -3.5
    endloop
  endfacet
  facet normal -0.768221 -0.640184 0
    outer loop
      vertex 147 18 -3.5
      vertex 162 0 -3.5
      vertex 147 18 3.5
    endloop
  endfacet
  facet normal -0.768221 -0.640184 0
    outer loop
      vertex 147 18 3.5
      vertex 162 0 -3.5
      vertex 162 0 3.5
    endloop
  endfacet
  facet normal 0 -1 0
    outer loop
      vertex 162 0 3.5
      vertex 162 0 -3.5
      vertex 170 0 -3.5
    endloop
  endfacet
  facet normal 0 -1 0
    outer loop
      vertex 170 0 3.5
      vertex 162 0 3.5
      vertex 170 0 -3.5
    endloop
  endfacet
  facet normal 1 0 0
    outer loop
      vertex 170 0 3.5
      vertex 170 0 -3.5
      vertex 170 1 -3.5
    endloop
  endfacet
  facet normal 1 0 0
    outer loop
      vertex 170 1 3.5
      vertex 170 0 3.5
      vertex 170 1 -3.5
    endloop
  endfacet
  facet normal 0.756823 0.65362 0
    outer loop
      vertex 170 1 -3.5
      vertex 151 23 -3.5
      vertex 151 23 3.5
    endloop
  endfacet
  facet normal 0.756823 0.65362 0
    outer loop
      vertex 170 1 3.5
      vertex 170 1 -3.5
      vertex 151 23 3.5
    endloop
  endfacet
  facet normal 0.756823 -0.65362 0
    outer loop
      vertex 151 23 3.5
      vertex 151 23 -3.5
      vertex 170 45 -3.5
    endloop
  endfacet
  facet normal 0.756823 -0.65362 0
    outer loop
      vertex 170 45 3.5
      vertex 151 23 3.5
      vertex 170 45 -3.5
    endloop
  endfacet
  facet normal 1 0 0
    outer loop
      vertex 170 45 3.5
      vertex 170 45 -3.5
      vertex 170 46 -3.5
    endloop
  endfacet
  facet normal 1 0 0
    outer loop
      vertex 170 46 3.5
      vertex 170 45 3.5
      vertex 170 46 -3.5
    endloop
  endfacet
  facet normal 0 1 0
    outer loop
      vertex 162 46 -3.5
      vertex 162 46 3.5
      vertex 170 46 -3.5
    endloop
  endfacet
  facet normal 0 1 0
    outer loop
      vertex 170 46 -3.5
      vertex 162 46 3.5
      vertex 170 46 3.5
    endloop
  endfacet
  facet normal -0.768221 0.640184 0
    outer loop
      vertex 147 28 -3.5
      vertex 147 28 3.5
      vertex 162 46 -3.5
    endloop
  endfacet
  facet normal -0.768221 0.640184 0
    outer loop
      vertex 162 46 -3.5
      vertex 147 28 3.5
      vertex 162 46 3.5
    endloop
  endfacet
  facet normal 0.768221 0.640184 0
    outer loop
      vertex 147 28 -3.5
      vertex 132 46 -3.5
      vertex 132 46 3.5
    endloop
  endfacet
  facet normal 0.768221 0.640184 0
    outer loop
      vertex 147 28 3.5
      vertex 147 28 -3.5
      vertex 132 46 3.5
    endloop
  endfacet
  facet normal 0 1 0
    outer loop
      vertex 124 46 -3.5
      vertex 124 46 3.5
      vertex 132 46 -3.5
    endloop
  endfacet
  facet normal 0 1 0
    outer loop
      vertex 132 46 -3.5
      vertex 124 46 3.5
      vertex 132 46 3.5
    endloop
  endfacet
  facet normal -1 0 0
    outer loop
      vertex 124 45 -3.5
      vertex 124 45 3.5
      vertex 124 46 -3.5
    endloop
  endfacet
  facet normal -1 0 0
    outer loop
      vertex 124 46 -3.5
      vertex 124 45 3.5
      vertex 124 46 3.5
    endloop
  endfacet
  facet normal -0.773957 -0.633238 0
    outer loop
      vertex 124 45 -3.5
      vertex 142 23 -3.5
      vertex 124 45 3.5
    endloop
  endfacet
  facet normal -0.773957 -0.633238 0
    outer loop
      vertex 124 45 3.5
      vertex 142 23 -3.5
      vertex 142 23 3.5
    endloop
  endfacet
  facet normal -0.773957 0.633238 0
    outer loop
      vertex 124 1 -3.5
      vertex 124 1 3.5
      vertex 142 23 -3.5
    endloop
  endfacet
  facet normal -0.773957 0.633238 0
    outer loop
      vertex 142 23 -3.5
      vertex 124 1 3.5
      vertex 142 23 3.5
    endloop
  endfacet
  facet normal 0 -1 0
    outer loop
      vertex 179 0 3.5
      vertex 179 0 -3.5
      vertex 225 0 -3.5
    endloop
  endfacet
  facet normal 0 -1 0
    outer loop
      vertex 225 0 3.5
      vertex 179 0 3.5
      vertex 225 0 -3.5
    endloop
  endfacet
  facet normal 0 0 -1
    outer loop
      vertex 225 7 -3.5
      vertex 225 0 -3.5
      vertex 186 7 -3.5
    endloop
  endfacet
  facet normal 0 0 -1
    outer loop
      vertex 179 0 -3.5
      vertex 179 46 -3.5
      vertex 186 7 -3.5
    endloop
  endfacet
  facet normal 0 0 -1
    outer loop
      vertex 179 0 -3.5
      vertex 186 7 -3.5
      vertex 225 0 -3.5
    endloop
  endfacet
  facet normal 0 0 -1
    outer loop
      vertex 186 7 -3.5
      vertex 179 46 -3.5
      vertex 186 46 -3.5
    endloop
  endfacet
  facet normal -1 0 0
    outer loop
      vertex 179 0 -3.5
      vertex 179 0 3.5
      vertex 179 46 -3.5
    endloop
  endfacet
  facet normal -1 0 0
    outer loop
      vertex 179 46 -3.5
      vertex 179 0 3.5
      vertex 179 46 3.5
    endloop
  endfacet
  facet normal 0 0 1
    outer loop
      vertex 186 7 3.5
      vertex 179 0 3.5
      vertex 225 0 3.5
    endloop
  endfacet
  facet normal 0 0 1
    outer loop
      vertex 186 7 3.5
      vertex 186 46 3.5
      vertex 179 46 3.5
    endloop
  endfacet
  facet normal 0 0 1
    outer loop
      vertex 179 46 3.5
      vertex 179 0 3.5
      vertex 186 7 3.5
    endloop
  endfacet
  facet normal 0 0 1
    outer loop
      vertex 225 7 3.5
      vertex 186 7 3.5
      vertex 225 0 3.5
    endloop
  endfacet
  facet normal 1 0 0
    outer loop
      vertex 225 0 3.5
      vertex 225 0 -3.5
      vertex 225 7 -3.5
    endloop
  endfacet
  facet normal 1 0 0
    outer loop
      vertex 225 7 3.5
      vertex 225 0 3.5
      vertex 225 7 -3.5
    endloop
  endfacet
  facet normal 0 1 0
    outer loop
      vertex 186 7 -3.5
      vertex 186 7 3.5
      vertex 225 7 -3.5
    endloop
  endfacet
  facet normal 0 1 0
    outer loop
      vertex 225 7 -3.5
      vertex 186 7 3.5
      vertex 225 7 3.5
    endloop
  endfacet
  facet normal 1 0 0
    outer loop
      vertex 186 7 3.5
      vertex 186 7 -3.5
      vertex 186 46 -3.5
    endloop
  endfacet
  facet normal 1 0 0
    outer loop
      vertex 186 46 3.5
      vertex 186 7 3.5
      vertex 186 46 -3.5
    endloop
  endfacet
  facet normal 0 1 0
    outer loop
      vertex 179 46 -3.5
      vertex 179 46 3.5
      vertex 186 46 -3.5
    endloop
  endfacet
  facet normal 0 1 0
    outer loop
      vertex 186 46 -3.5
      vertex 179 46 3.5
      vertex 186 46 3.5
    endloop
  endfacet
endsolid OpenSCAD_Model
