<?xml version="1.0" encoding="utf-8"?>
<!-- Generator: Adobe Illustrator 16.0.4, SVG Export Plug-In . SVG Version: 6.00 Build 0)  -->
<!DOCTYPE svg PUBLIC "-//W3C//DTD SVG 1.1//EN" "http://www.w3.org/Graphics/SVG/1.1/DTD/svg11.dtd">
<svg version="1.1" id="图层_1" xmlns="http://www.w3.org/2000/svg" xmlns:xlink="http://www.w3.org/1999/xlink" x="0px" y="0px"
	 width="595.28px" height="841.89px" viewBox="0 0 595.28 841.89" enable-background="new 0 0 595.28 841.89" xml:space="preserve">
<path fill="none" stroke="#000000" stroke-miterlimit="10" d="M192.999,202.667V288h15.333v-19.333h41.333V288h19.333v48.667h-16
	L250.332,360h-41.333l0.667-20l-16.667-1.333v82.278l4.667,3.055h80v-14l-21.333-2.667l0.667-40l20.667-2.667v-17.333h50v19.333
	l22-0.667v42l-21.334-0.667V424h85.334v-84.666l-16.667-0.667L397.666,360h-40l-1.334-19.333l-18-3.333L337.666,290l18-1.333
	l1.333-21.333h39.333l1.334,20l16-1.333v-80l-84.667-3.333v16.667h20.667v40L328.332,262l-0.666,16.667l-48-0.667l-2-15.333l-20-4
	c0,0-2.667-38.667-0.667-38.667s20-0.667,20-0.667l0.667-16.667H192.999z"/>
<circle fill="none" stroke="#000000" stroke-miterlimit="10" cx="223.669" cy="233.632" r="18"/>
<circle fill="none" stroke="#000000" stroke-miterlimit="10" cx="383.153" cy="233.632" r="18"/>
<circle fill="none" stroke="#000000" stroke-miterlimit="10" cx="303.332" cy="316.446" r="18"/>
<circle fill="none" stroke="#000000" stroke-miterlimit="10" cx="223.669" cy="393.453" r="18"/>
<circle fill="none" stroke="#000000" stroke-miterlimit="10" cx="383.153" cy="393.453" r="18"/>
</svg>
