solid OpenSCAD_Model
  facet normal -1 0 0
    outer loop
      vertex 0 0 0
      vertex 0 25 3
      vertex 0 25 0
    endloop
  endfacet
  facet normal -1 -0 0
    outer loop
      vertex 0 25 3
      vertex 0 0 0
      vertex 0 0 3
    endloop
  endfacet
  facet normal 0 0 1
    outer loop
      vertex 4.46353 4.42658 3
      vertex 7.69098 6.08779 3
      vertex 4.46353 20.0734 3
    endloop
  endfacet
  facet normal 0 0 1
    outer loop
      vertex 7.69098 6.08779 3
      vertex 4.46353 4.42658 3
      vertex 5.5 3 3
    endloop
  endfacet
  facet normal 0 0 1
    outer loop
      vertex 2.78647 20.6183 3
      vertex 4.46353 4.42658 3
      vertex 4.46353 20.0734 3
    endloop
  endfacet
  facet normal 0 0 1
    outer loop
      vertex 4.46353 4.42658 3
      vertex 2.78647 20.6183 3
      vertex 2.78647 3.88168 3
    endloop
  endfacet
  facet normal 0 0 1
    outer loop
      vertex 7.69098 21.4122 3
      vertex 10 18 3
      vertex 8.80902 21.0489 3
    endloop
  endfacet
  facet normal 0 0 1
    outer loop
      vertex 10 18 3
      vertex 8.80902 6.45106 3
      vertex 9.5 5.5 3
    endloop
  endfacet
  facet normal 0 0 1
    outer loop
      vertex 4.46353 20.0734 3
      vertex 7.69098 21.4122 3
      vertex 5.5 21.5 3
    endloop
  endfacet
  facet normal 0 0 1
    outer loop
      vertex 7.69098 21.4122 3
      vertex 4.46353 20.0734 3
      vertex 10 18 3
    endloop
  endfacet
  facet normal 0 0 1
    outer loop
      vertex 36 18 3
      vertex 44.7865 20.6183 3
      vertex 38.309 21.0489 3
    endloop
  endfacet
  facet normal 0 0 1
    outer loop
      vertex 44.7865 20.6183 3
      vertex 38.309 6.45106 3
      vertex 39 5.5 3
    endloop
  endfacet
  facet normal 0 0 1
    outer loop
      vertex 36 18 3
      vertex 38.309 21.0489 3
      vertex 37.191 21.4122 3
    endloop
  endfacet
  facet normal 0 0 1
    outer loop
      vertex 44.7865 20.6183 3
      vertex 36 18 3
      vertex 38.309 6.45106 3
    endloop
  endfacet
  facet normal -0 0 1
    outer loop
      vertex 46.4635 20.0734 3
      vertex 47.5 3 3
      vertex 47.5 21.5 3
    endloop
  endfacet
  facet normal 0 0 1
    outer loop
      vertex 46.4635 20.0734 3
      vertex 46.4635 4.42658 3
      vertex 47.5 3 3
    endloop
  endfacet
  facet normal 0 0 1
    outer loop
      vertex 39 5.5 3
      vertex 46.4635 20.0734 3
      vertex 44.7865 20.6183 3
    endloop
  endfacet
  facet normal 0 0 1
    outer loop
      vertex 46.4635 20.0734 3
      vertex 39 5.5 3
      vertex 46.4635 4.42658 3
    endloop
  endfacet
  facet normal 0 0 1
    outer loop
      vertex 50 25 3
      vertex 47.5 21.5 3
      vertex 50 0 3
    endloop
  endfacet
  facet normal 0 0 1
    outer loop
      vertex 50 25 3
      vertex 46.4635 22.9266 3
      vertex 47.5 21.5 3
    endloop
  endfacet
  facet normal -0 0 1
    outer loop
      vertex 38.309 22.9511 3
      vertex 46.4635 22.9266 3
      vertex 50 25 3
    endloop
  endfacet
  facet normal -0 0 1
    outer loop
      vertex 39 22 3
      vertex 44.7865 20.6183 3
      vertex 44.7865 22.3817 3
    endloop
  endfacet
  facet normal 0 0 1
    outer loop
      vertex 46.4635 4.42658 3
      vertex 39 5.5 3
      vertex 44.7865 3.88168 3
    endloop
  endfacet
  facet normal -0 0 1
    outer loop
      vertex 38.309 21.0489 3
      vertex 44.7865 20.6183 3
      vertex 39 22 3
    endloop
  endfacet
  facet normal 0 0 1
    outer loop
      vertex 46.4635 22.9266 3
      vertex 38.309 22.9511 3
      vertex 44.7865 22.3817 3
    endloop
  endfacet
  facet normal 0 0 1
    outer loop
      vertex 44.7865 22.3817 3
      vertex 38.309 22.9511 3
      vertex 39 22 3
    endloop
  endfacet
  facet normal 0 0 1
    outer loop
      vertex 36 18 3
      vertex 37.191 21.4122 3
      vertex 37.191 22.5878 3
    endloop
  endfacet
  facet normal 0 0 1
    outer loop
      vertex 38.309 6.45106 3
      vertex 36 18 3
      vertex 37.191 6.08779 3
    endloop
  endfacet
  facet normal 0 0 1
    outer loop
      vertex 36 4 3
      vertex 37.191 6.08779 3
      vertex 36 18 3
    endloop
  endfacet
  facet normal -0 0 1
    outer loop
      vertex 9.5 22 3
      vertex 36 18 3
      vertex 37.191 22.5878 3
    endloop
  endfacet
  facet normal -0 0 1
    outer loop
      vertex 8.80902 22.9511 3
      vertex 37.191 22.5878 3
      vertex 38.309 22.9511 3
    endloop
  endfacet
  facet normal -0 0 1
    outer loop
      vertex 0 25 3
      vertex 38.309 22.9511 3
      vertex 50 25 3
    endloop
  endfacet
  facet normal -0 0 1
    outer loop
      vertex 8.80902 21.0489 3
      vertex 10 18 3
      vertex 9.5 22 3
    endloop
  endfacet
  facet normal 0 0 1
    outer loop
      vertex 36 18 3
      vertex 9.5 22 3
      vertex 10 18 3
    endloop
  endfacet
  facet normal 0 0 1
    outer loop
      vertex 37.191 22.5878 3
      vertex 8.80902 22.9511 3
      vertex 9.5 22 3
    endloop
  endfacet
  facet normal -0 0 1
    outer loop
      vertex 5.5 21.5 3
      vertex 7.69098 21.4122 3
      vertex 7.69098 22.5878 3
    endloop
  endfacet
  facet normal 0 0 1
    outer loop
      vertex 10 18 3
      vertex 7.69098 6.08779 3
      vertex 8.80902 6.45106 3
    endloop
  endfacet
  facet normal 0 0 1
    outer loop
      vertex 10 18 3
      vertex 4.46353 20.0734 3
      vertex 7.69098 6.08779 3
    endloop
  endfacet
  facet normal 0 0 1
    outer loop
      vertex 7.69098 22.5878 3
      vertex 4.46353 22.9266 3
      vertex 5.5 21.5 3
    endloop
  endfacet
  facet normal 0 0 1
    outer loop
      vertex 8.80902 22.9511 3
      vertex 4.46353 22.9266 3
      vertex 7.69098 22.5878 3
    endloop
  endfacet
  facet normal 0 0 1
    outer loop
      vertex 38.309 22.9511 3
      vertex 0 25 3
      vertex 8.80902 22.9511 3
    endloop
  endfacet
  facet normal 0 0 1
    outer loop
      vertex 0 25 3
      vertex 2.78647 20.6183 3
      vertex 2.78647 22.3817 3
    endloop
  endfacet
  facet normal 0 0 1
    outer loop
      vertex 0 0 3
      vertex 2.78647 20.6183 3
      vertex 0 25 3
    endloop
  endfacet
  facet normal 0 0 1
    outer loop
      vertex 2.78647 20.6183 3
      vertex 0 0 3
      vertex 2.78647 3.88168 3
    endloop
  endfacet
  facet normal 0 0 1
    outer loop
      vertex 4.46353 22.9266 3
      vertex 0 25 3
      vertex 2.78647 22.3817 3
    endloop
  endfacet
  facet normal 0 0 1
    outer loop
      vertex 8.80902 22.9511 3
      vertex 0 25 3
      vertex 4.46353 22.9266 3
    endloop
  endfacet
  facet normal -0 0 1
    outer loop
      vertex 47.5 3 3
      vertex 50 0 3
      vertex 47.5 21.5 3
    endloop
  endfacet
  facet normal -0 0 1
    outer loop
      vertex 46.4635 1.57342 3
      vertex 50 0 3
      vertex 47.5 3 3
    endloop
  endfacet
  facet normal 0 0 1
    outer loop
      vertex 44.7865 2.11832 3
      vertex 50 0 3
      vertex 46.4635 1.57342 3
    endloop
  endfacet
  facet normal 0 0 1
    outer loop
      vertex 44.7865 3.88168 3
      vertex 39 5.5 3
      vertex 44.7865 2.11832 3
    endloop
  endfacet
  facet normal -0 0 1
    outer loop
      vertex 38.309 4.54894 3
      vertex 44.7865 2.11832 3
      vertex 39 5.5 3
    endloop
  endfacet
  facet normal -0 0 1
    outer loop
      vertex 36 4 3
      vertex 44.7865 2.11832 3
      vertex 38.309 4.54894 3
    endloop
  endfacet
  facet normal 0 0 1
    outer loop
      vertex 36 4 3
      vertex 38.309 4.54894 3
      vertex 37.191 4.91221 3
    endloop
  endfacet
  facet normal 0 0 1
    outer loop
      vertex 37.191 6.08779 3
      vertex 36 4 3
      vertex 37.191 4.91221 3
    endloop
  endfacet
  facet normal 0 0 1
    outer loop
      vertex 44.7865 2.11832 3
      vertex 36 4 3
      vertex 50 0 3
    endloop
  endfacet
  facet normal 0 0 1
    outer loop
      vertex 4.46353 1.57342 3
      vertex 36 4 3
      vertex 10 4 3
    endloop
  endfacet
  facet normal 0 0 1
    outer loop
      vertex 10 18 3
      vertex 9.5 5.5 3
      vertex 10 4 3
    endloop
  endfacet
  facet normal -0 0 1
    outer loop
      vertex 8.80902 4.54894 3
      vertex 10 4 3
      vertex 9.5 5.5 3
    endloop
  endfacet
  facet normal 0 0 1
    outer loop
      vertex 5.5 3 3
      vertex 8.80902 4.54894 3
      vertex 7.69098 4.91221 3
    endloop
  endfacet
  facet normal 0 0 1
    outer loop
      vertex 7.69098 6.08779 3
      vertex 5.5 3 3
      vertex 7.69098 4.91221 3
    endloop
  endfacet
  facet normal 0 0 1
    outer loop
      vertex 8.80902 4.54894 3
      vertex 5.5 3 3
      vertex 10 4 3
    endloop
  endfacet
  facet normal 0 0 1
    outer loop
      vertex 4.46353 1.57342 3
      vertex 10 4 3
      vertex 5.5 3 3
    endloop
  endfacet
  facet normal 0 0 1
    outer loop
      vertex 36 4 3
      vertex 4.46353 1.57342 3
      vertex 50 0 3
    endloop
  endfacet
  facet normal 0 0 1
    outer loop
      vertex 4.46353 1.57342 3
      vertex 0 0 3
      vertex 50 0 3
    endloop
  endfacet
  facet normal 0 0 1
    outer loop
      vertex 2.78647 2.11832 3
      vertex 0 0 3
      vertex 4.46353 1.57342 3
    endloop
  endfacet
  facet normal 0 0 1
    outer loop
      vertex 2.78647 3.88168 3
      vertex 0 0 3
      vertex 2.78647 2.11832 3
    endloop
  endfacet
  facet normal 1 -0 0
    outer loop
      vertex 50 0 3
      vertex 50 25 0
      vertex 50 25 3
    endloop
  endfacet
  facet normal 1 0 0
    outer loop
      vertex 50 25 0
      vertex 50 0 3
      vertex 50 0 0
    endloop
  endfacet
  facet normal 0 0 -1
    outer loop
      vertex 4.46353 20.0734 0
      vertex 7.69098 6.08779 0
      vertex 4.46353 4.42658 0
    endloop
  endfacet
  facet normal 0 0 -1
    outer loop
      vertex 7.69098 6.08779 0
      vertex 4.46353 20.0734 0
      vertex 5.5 21.5 0
    endloop
  endfacet
  facet normal 0 0 -1
    outer loop
      vertex 2.78647 3.88168 0
      vertex 4.46353 20.0734 0
      vertex 4.46353 4.42658 0
    endloop
  endfacet
  facet normal -0 0 -1
    outer loop
      vertex 4.46353 20.0734 0
      vertex 2.78647 3.88168 0
      vertex 2.78647 20.6183 0
    endloop
  endfacet
  facet normal 0 0 -1
    outer loop
      vertex 7.69098 6.08779 0
      vertex 10 18 0
      vertex 8.80902 6.45106 0
    endloop
  endfacet
  facet normal 0 0 -1
    outer loop
      vertex 10 18 0
      vertex 8.80902 21.0489 0
      vertex 9.5 22 0
    endloop
  endfacet
  facet normal -0 0 -1
    outer loop
      vertex 10 18 0
      vertex 7.69098 6.08779 0
      vertex 5.5 21.5 0
    endloop
  endfacet
  facet normal -0 -0 -1
    outer loop
      vertex 7.69098 21.4122 0
      vertex 10 18 0
      vertex 5.5 21.5 0
    endloop
  endfacet
  facet normal 0 0 -1
    outer loop
      vertex 36 18 0
      vertex 44.7865 20.6183 0
      vertex 38.309 6.45106 0
    endloop
  endfacet
  facet normal 0 0 -1
    outer loop
      vertex 44.7865 20.6183 0
      vertex 38.309 21.0489 0
      vertex 39 22 0
    endloop
  endfacet
  facet normal 0 0 -1
    outer loop
      vertex 36 18 0
      vertex 38.309 6.45106 0
      vertex 37.191 6.08779 0
    endloop
  endfacet
  facet normal -0 0 -1
    outer loop
      vertex 44.7865 20.6183 0
      vertex 36 18 0
      vertex 38.309 21.0489 0
    endloop
  endfacet
  facet normal 0 0 -1
    outer loop
      vertex 46.4635 4.42658 0
      vertex 47.5 21.5 0
      vertex 47.5 3 0
    endloop
  endfacet
  facet normal 0 0 -1
    outer loop
      vertex 46.4635 4.42658 0
      vertex 46.4635 20.0734 0
      vertex 47.5 21.5 0
    endloop
  endfacet
  facet normal 0 0 -1
    outer loop
      vertex 38.309 6.45106 0
      vertex 44.7865 3.88168 0
      vertex 39 5.5 0
    endloop
  endfacet
  facet normal 0 0 -1
    outer loop
      vertex 44.7865 3.88168 0
      vertex 38.309 6.45106 0
      vertex 46.4635 4.42658 0
    endloop
  endfacet
  facet normal 0 0 -1
    outer loop
      vertex 47.5 21.5 0
      vertex 50 0 0
      vertex 47.5 3 0
    endloop
  endfacet
  facet normal 0 0 -1
    outer loop
      vertex 50 0 0
      vertex 46.4635 1.57342 0
      vertex 47.5 3 0
    endloop
  endfacet
  facet normal 0 0 -1
    outer loop
      vertex 50 0 0
      vertex 44.7865 2.11832 0
      vertex 46.4635 1.57342 0
    endloop
  endfacet
  facet normal 0 0 -1
    outer loop
      vertex 39 5.5 0
      vertex 44.7865 3.88168 0
      vertex 44.7865 2.11832 0
    endloop
  endfacet
  facet normal 0 0 -1
    outer loop
      vertex 46.4635 4.42658 0
      vertex 38.309 6.45106 0
      vertex 46.4635 20.0734 0
    endloop
  endfacet
  facet normal -0 0 -1
    outer loop
      vertex 46.4635 20.0734 0
      vertex 38.309 6.45106 0
      vertex 44.7865 20.6183 0
    endloop
  endfacet
  facet normal 0 0 -1
    outer loop
      vertex 44.7865 2.11832 0
      vertex 38.309 4.54894 0
      vertex 39 5.5 0
    endloop
  endfacet
  facet normal 0 0 -1
    outer loop
      vertex 36 4 0
      vertex 44.7865 2.11832 0
      vertex 50 0 0
    endloop
  endfacet
  facet normal 0 0 -1
    outer loop
      vertex 44.7865 2.11832 0
      vertex 36 4 0
      vertex 38.309 4.54894 0
    endloop
  endfacet
  facet normal 0 0 -1
    outer loop
      vertex 36 4 0
      vertex 37.191 6.08779 0
      vertex 37.191 4.91221 0
    endloop
  endfacet
  facet normal -0 0 -1
    outer loop
      vertex 38.309 21.0489 0
      vertex 36 18 0
      vertex 37.191 21.4122 0
    endloop
  endfacet
  facet normal -0 0 -1
    outer loop
      vertex 37.191 6.08779 0
      vertex 36 4 0
      vertex 36 18 0
    endloop
  endfacet
  facet normal -0 0 -1
    outer loop
      vertex 38.309 4.54894 0
      vertex 36 4 0
      vertex 37.191 4.91221 0
    endloop
  endfacet
  facet normal 0 0 -1
    outer loop
      vertex 4.46353 1.57342 0
      vertex 36 4 0
      vertex 50 0 0
    endloop
  endfacet
  facet normal 0 0 -1
    outer loop
      vertex 10 4 0
      vertex 9.5 5.5 0
      vertex 10 18 0
    endloop
  endfacet
  facet normal 0 0 -1
    outer loop
      vertex 10 4 0
      vertex 8.80902 4.54894 0
      vertex 9.5 5.5 0
    endloop
  endfacet
  facet normal 0 0 -1
    outer loop
      vertex 5.5 3 0
      vertex 8.80902 4.54894 0
      vertex 10 4 0
    endloop
  endfacet
  facet normal 0 0 -1
    outer loop
      vertex 4.46353 4.42658 0
      vertex 7.69098 4.91221 0
      vertex 5.5 3 0
    endloop
  endfacet
  facet normal 0 0 -1
    outer loop
      vertex 10 18 0
      vertex 7.69098 21.4122 0
      vertex 8.80902 21.0489 0
    endloop
  endfacet
  facet normal -0 0 -1
    outer loop
      vertex 7.69098 4.91221 0
      vertex 4.46353 4.42658 0
      vertex 7.69098 6.08779 0
    endloop
  endfacet
  facet normal -0 0 -1
    outer loop
      vertex 8.80902 4.54894 0
      vertex 5.5 3 0
      vertex 7.69098 4.91221 0
    endloop
  endfacet
  facet normal -0 0 -1
    outer loop
      vertex 36 4 0
      vertex 4.46353 1.57342 0
      vertex 10 4 0
    endloop
  endfacet
  facet normal 0 0 -1
    outer loop
      vertex 10 4 0
      vertex 4.46353 1.57342 0
      vertex 5.5 3 0
    endloop
  endfacet
  facet normal 0 0 -1
    outer loop
      vertex 0 0 0
      vertex 2.78647 3.88168 0
      vertex 2.78647 2.11832 0
    endloop
  endfacet
  facet normal -0 0 -1
    outer loop
      vertex 2.78647 3.88168 0
      vertex 0 0 0
      vertex 2.78647 20.6183 0
    endloop
  endfacet
  facet normal 0 0 -1
    outer loop
      vertex 0 25 0
      vertex 2.78647 20.6183 0
      vertex 0 0 0
    endloop
  endfacet
  facet normal -0 0 -1
    outer loop
      vertex 4.46353 1.57342 0
      vertex 0 0 0
      vertex 2.78647 2.11832 0
    endloop
  endfacet
  facet normal 0 0 -1
    outer loop
      vertex 0 0 0
      vertex 4.46353 1.57342 0
      vertex 50 0 0
    endloop
  endfacet
  facet normal 0 0 -1
    outer loop
      vertex 50 0 0
      vertex 47.5 21.5 0
      vertex 50 25 0
    endloop
  endfacet
  facet normal 0 0 -1
    outer loop
      vertex 46.4635 22.9266 0
      vertex 50 25 0
      vertex 47.5 21.5 0
    endloop
  endfacet
  facet normal 0 0 -1
    outer loop
      vertex 38.309 22.9511 0
      vertex 46.4635 22.9266 0
      vertex 44.7865 22.3817 0
    endloop
  endfacet
  facet normal 0 0 -1
    outer loop
      vertex 44.7865 20.6183 0
      vertex 39 22 0
      vertex 44.7865 22.3817 0
    endloop
  endfacet
  facet normal 0 0 -1
    outer loop
      vertex 38.309 22.9511 0
      vertex 44.7865 22.3817 0
      vertex 39 22 0
    endloop
  endfacet
  facet normal 0 0 -1
    outer loop
      vertex 46.4635 22.9266 0
      vertex 38.309 22.9511 0
      vertex 50 25 0
    endloop
  endfacet
  facet normal -0 0 -1
    outer loop
      vertex 37.191 21.4122 0
      vertex 36 18 0
      vertex 37.191 22.5878 0
    endloop
  endfacet
  facet normal 0 0 -1
    outer loop
      vertex 9.5 22 0
      vertex 36 18 0
      vertex 10 18 0
    endloop
  endfacet
  facet normal 0 0 -1
    outer loop
      vertex 36 18 0
      vertex 9.5 22 0
      vertex 37.191 22.5878 0
    endloop
  endfacet
  facet normal 0 0 -1
    outer loop
      vertex 8.80902 22.9511 0
      vertex 37.191 22.5878 0
      vertex 9.5 22 0
    endloop
  endfacet
  facet normal 0 0 -1
    outer loop
      vertex 8.80902 6.45106 0
      vertex 10 18 0
      vertex 9.5 5.5 0
    endloop
  endfacet
  facet normal 0 0 -1
    outer loop
      vertex 37.191 22.5878 0
      vertex 8.80902 22.9511 0
      vertex 38.309 22.9511 0
    endloop
  endfacet
  facet normal 0 0 -1
    outer loop
      vertex 0 25 0
      vertex 38.309 22.9511 0
      vertex 8.80902 22.9511 0
    endloop
  endfacet
  facet normal 0 0 -1
    outer loop
      vertex 7.69098 21.4122 0
      vertex 5.5 21.5 0
      vertex 7.69098 22.5878 0
    endloop
  endfacet
  facet normal 0 0 -1
    outer loop
      vertex 4.46353 22.9266 0
      vertex 7.69098 22.5878 0
      vertex 5.5 21.5 0
    endloop
  endfacet
  facet normal 0 0 -1
    outer loop
      vertex 4.46353 22.9266 0
      vertex 8.80902 22.9511 0
      vertex 7.69098 22.5878 0
    endloop
  endfacet
  facet normal 0 0 -1
    outer loop
      vertex 0 25 0
      vertex 8.80902 22.9511 0
      vertex 4.46353 22.9266 0
    endloop
  endfacet
  facet normal 0 0 -1
    outer loop
      vertex 38.309 22.9511 0
      vertex 0 25 0
      vertex 50 25 0
    endloop
  endfacet
  facet normal 0 0 -1
    outer loop
      vertex 2.78647 22.3817 0
      vertex 0 25 0
      vertex 4.46353 22.9266 0
    endloop
  endfacet
  facet normal 0 0 -1
    outer loop
      vertex 2.78647 20.6183 0
      vertex 0 25 0
      vertex 2.78647 22.3817 0
    endloop
  endfacet
  facet normal 0 -1 0
    outer loop
      vertex 0 0 0
      vertex 50 0 3
      vertex 0 0 3
    endloop
  endfacet
  facet normal 0 -1 -0
    outer loop
      vertex 50 0 3
      vertex 0 0 0
      vertex 50 0 0
    endloop
  endfacet
  facet normal 0 1 -0
    outer loop
      vertex 50 25 0
      vertex 0 25 3
      vertex 50 25 3
    endloop
  endfacet
  facet normal 0 1 0
    outer loop
      vertex 0 25 3
      vertex 50 25 0
      vertex 0 25 0
    endloop
  endfacet
  facet normal 1 -0 0
    outer loop
      vertex 10 4 3
      vertex 10 18 0
      vertex 10 18 3
    endloop
  endfacet
  facet normal 1 0 0
    outer loop
      vertex 10 18 0
      vertex 10 4 3
      vertex 10 4 0
    endloop
  endfacet
  facet normal -1 0 0
    outer loop
      vertex 36 4 0
      vertex 36 18 3
      vertex 36 18 0
    endloop
  endfacet
  facet normal -1 -0 0
    outer loop
      vertex 36 18 3
      vertex 36 4 0
      vertex 36 4 3
    endloop
  endfacet
  facet normal 0 -1 0
    outer loop
      vertex 10 18 0
      vertex 36 18 3
      vertex 10 18 3
    endloop
  endfacet
  facet normal 0 -1 -0
    outer loop
      vertex 36 18 3
      vertex 10 18 0
      vertex 36 18 0
    endloop
  endfacet
  facet normal 0 1 -0
    outer loop
      vertex 36 4 0
      vertex 10 4 3
      vertex 36 4 3
    endloop
  endfacet
  facet normal 0 1 0
    outer loop
      vertex 10 4 3
      vertex 36 4 0
      vertex 10 4 0
    endloop
  endfacet
  facet normal -0.809017 -0.587785 0
    outer loop
      vertex 9.5 5.5 0
      vertex 8.80902 6.45106 3
      vertex 8.80902 6.45106 0
    endloop
  endfacet
  facet normal -0.809017 -0.587785 0
    outer loop
      vertex 8.80902 6.45106 3
      vertex 9.5 5.5 0
      vertex 9.5 5.5 3
    endloop
  endfacet
  facet normal 1 -0 0
    outer loop
      vertex 7.69098 4.91221 3
      vertex 7.69098 6.08779 0
      vertex 7.69098 6.08779 3
    endloop
  endfacet
  facet normal 1 0 0
    outer loop
      vertex 7.69098 6.08779 0
      vertex 7.69098 4.91221 3
      vertex 7.69098 4.91221 0
    endloop
  endfacet
  facet normal 0.309017 -0.951057 0
    outer loop
      vertex 7.69098 6.08779 0
      vertex 8.80902 6.45106 3
      vertex 7.69098 6.08779 3
    endloop
  endfacet
  facet normal 0.309017 -0.951057 0
    outer loop
      vertex 8.80902 6.45106 3
      vertex 7.69098 6.08779 0
      vertex 8.80902 6.45106 0
    endloop
  endfacet
  facet normal -0.809017 0.587785 0
    outer loop
      vertex 8.80902 4.54894 0
      vertex 9.5 5.5 3
      vertex 9.5 5.5 0
    endloop
  endfacet
  facet normal -0.809017 0.587785 0
    outer loop
      vertex 9.5 5.5 3
      vertex 8.80902 4.54894 0
      vertex 8.80902 4.54894 3
    endloop
  endfacet
  facet normal 0.309017 0.951057 -0
    outer loop
      vertex 8.80902 4.54894 0
      vertex 7.69098 4.91221 3
      vertex 8.80902 4.54894 3
    endloop
  endfacet
  facet normal 0.309017 0.951057 0
    outer loop
      vertex 7.69098 4.91221 3
      vertex 8.80902 4.54894 0
      vertex 7.69098 4.91221 0
    endloop
  endfacet
  facet normal -0.809017 -0.587785 0
    outer loop
      vertex 9.5 22 0
      vertex 8.80902 22.9511 3
      vertex 8.80902 22.9511 0
    endloop
  endfacet
  facet normal -0.809017 -0.587785 0
    outer loop
      vertex 8.80902 22.9511 3
      vertex 9.5 22 0
      vertex 9.5 22 3
    endloop
  endfacet
  facet normal 1 -0 0
    outer loop
      vertex 7.69098 21.4122 3
      vertex 7.69098 22.5878 0
      vertex 7.69098 22.5878 3
    endloop
  endfacet
  facet normal 1 0 0
    outer loop
      vertex 7.69098 22.5878 0
      vertex 7.69098 21.4122 3
      vertex 7.69098 21.4122 0
    endloop
  endfacet
  facet normal 0.309017 -0.951056 0
    outer loop
      vertex 7.69098 22.5878 0
      vertex 8.80902 22.9511 3
      vertex 7.69098 22.5878 3
    endloop
  endfacet
  facet normal 0.309017 -0.951056 0
    outer loop
      vertex 8.80902 22.9511 3
      vertex 7.69098 22.5878 0
      vertex 8.80902 22.9511 0
    endloop
  endfacet
  facet normal 0.309017 0.951056 -0
    outer loop
      vertex 8.80902 21.0489 0
      vertex 7.69098 21.4122 3
      vertex 8.80902 21.0489 3
    endloop
  endfacet
  facet normal 0.309017 0.951056 0
    outer loop
      vertex 7.69098 21.4122 3
      vertex 8.80902 21.0489 0
      vertex 7.69098 21.4122 0
    endloop
  endfacet
  facet normal -0.809017 0.587785 0
    outer loop
      vertex 8.80902 21.0489 0
      vertex 9.5 22 3
      vertex 9.5 22 0
    endloop
  endfacet
  facet normal -0.809017 0.587785 0
    outer loop
      vertex 9.5 22 3
      vertex 8.80902 21.0489 0
      vertex 8.80902 21.0489 3
    endloop
  endfacet
  facet normal -0.809017 -0.587785 0
    outer loop
      vertex 39 5.5 0
      vertex 38.309 6.45106 3
      vertex 38.309 6.45106 0
    endloop
  endfacet
  facet normal -0.809017 -0.587785 0
    outer loop
      vertex 38.309 6.45106 3
      vertex 39 5.5 0
      vertex 39 5.5 3
    endloop
  endfacet
  facet normal 1 -0 0
    outer loop
      vertex 37.191 4.91221 3
      vertex 37.191 6.08779 0
      vertex 37.191 6.08779 3
    endloop
  endfacet
  facet normal 1 0 0
    outer loop
      vertex 37.191 6.08779 0
      vertex 37.191 4.91221 3
      vertex 37.191 4.91221 0
    endloop
  endfacet
  facet normal 0.309017 -0.951057 0
    outer loop
      vertex 37.191 6.08779 0
      vertex 38.309 6.45106 3
      vertex 37.191 6.08779 3
    endloop
  endfacet
  facet normal 0.309017 -0.951057 0
    outer loop
      vertex 38.309 6.45106 3
      vertex 37.191 6.08779 0
      vertex 38.309 6.45106 0
    endloop
  endfacet
  facet normal 0.309017 0.951057 -0
    outer loop
      vertex 38.309 4.54894 0
      vertex 37.191 4.91221 3
      vertex 38.309 4.54894 3
    endloop
  endfacet
  facet normal 0.309017 0.951057 0
    outer loop
      vertex 37.191 4.91221 3
      vertex 38.309 4.54894 0
      vertex 37.191 4.91221 0
    endloop
  endfacet
  facet normal -0.809017 0.587785 0
    outer loop
      vertex 38.309 4.54894 0
      vertex 39 5.5 3
      vertex 39 5.5 0
    endloop
  endfacet
  facet normal -0.809017 0.587785 0
    outer loop
      vertex 39 5.5 3
      vertex 38.309 4.54894 0
      vertex 38.309 4.54894 3
    endloop
  endfacet
  facet normal -0.809017 -0.587785 0
    outer loop
      vertex 39 22 0
      vertex 38.309 22.9511 3
      vertex 38.309 22.9511 0
    endloop
  endfacet
  facet normal -0.809017 -0.587785 0
    outer loop
      vertex 38.309 22.9511 3
      vertex 39 22 0
      vertex 39 22 3
    endloop
  endfacet
  facet normal 1 -0 0
    outer loop
      vertex 37.191 21.4122 3
      vertex 37.191 22.5878 0
      vertex 37.191 22.5878 3
    endloop
  endfacet
  facet normal 1 0 0
    outer loop
      vertex 37.191 22.5878 0
      vertex 37.191 21.4122 3
      vertex 37.191 21.4122 0
    endloop
  endfacet
  facet normal 0.309017 -0.951056 0
    outer loop
      vertex 37.191 22.5878 0
      vertex 38.309 22.9511 3
      vertex 37.191 22.5878 3
    endloop
  endfacet
  facet normal 0.309017 -0.951056 0
    outer loop
      vertex 38.309 22.9511 3
      vertex 37.191 22.5878 0
      vertex 38.309 22.9511 0
    endloop
  endfacet
  facet normal 0.309017 0.951056 -0
    outer loop
      vertex 38.309 21.0489 0
      vertex 37.191 21.4122 3
      vertex 38.309 21.0489 3
    endloop
  endfacet
  facet normal 0.309017 0.951056 0
    outer loop
      vertex 37.191 21.4122 3
      vertex 38.309 21.0489 0
      vertex 37.191 21.4122 0
    endloop
  endfacet
  facet normal -0.809017 0.587785 0
    outer loop
      vertex 38.309 21.0489 0
      vertex 39 22 3
      vertex 39 22 0
    endloop
  endfacet
  facet normal -0.809017 0.587785 0
    outer loop
      vertex 39 22 3
      vertex 38.309 21.0489 0
      vertex 38.309 21.0489 3
    endloop
  endfacet
  facet normal -0.809017 -0.587785 0
    outer loop
      vertex 5.5 3 0
      vertex 4.46353 4.42658 3
      vertex 4.46353 4.42658 0
    endloop
  endfacet
  facet normal -0.809017 -0.587785 0
    outer loop
      vertex 4.46353 4.42658 3
      vertex 5.5 3 0
      vertex 5.5 3 3
    endloop
  endfacet
  facet normal 1 -0 0
    outer loop
      vertex 2.78647 2.11832 3
      vertex 2.78647 3.88168 0
      vertex 2.78647 3.88168 3
    endloop
  endfacet
  facet normal 1 0 0
    outer loop
      vertex 2.78647 3.88168 0
      vertex 2.78647 2.11832 3
      vertex 2.78647 2.11832 0
    endloop
  endfacet
  facet normal 0.309017 -0.951057 0
    outer loop
      vertex 2.78647 3.88168 0
      vertex 4.46353 4.42658 3
      vertex 2.78647 3.88168 3
    endloop
  endfacet
  facet normal 0.309017 -0.951057 0
    outer loop
      vertex 4.46353 4.42658 3
      vertex 2.78647 3.88168 0
      vertex 4.46353 4.42658 0
    endloop
  endfacet
  facet normal 0.309017 0.951057 -0
    outer loop
      vertex 4.46353 1.57342 0
      vertex 2.78647 2.11832 3
      vertex 4.46353 1.57342 3
    endloop
  endfacet
  facet normal 0.309017 0.951057 0
    outer loop
      vertex 2.78647 2.11832 3
      vertex 4.46353 1.57342 0
      vertex 2.78647 2.11832 0
    endloop
  endfacet
  facet normal -0.809017 0.587785 0
    outer loop
      vertex 4.46353 1.57342 0
      vertex 5.5 3 3
      vertex 5.5 3 0
    endloop
  endfacet
  facet normal -0.809017 0.587785 0
    outer loop
      vertex 5.5 3 3
      vertex 4.46353 1.57342 0
      vertex 4.46353 1.57342 3
    endloop
  endfacet
  facet normal -0.809017 -0.587785 0
    outer loop
      vertex 5.5 21.5 0
      vertex 4.46353 22.9266 3
      vertex 4.46353 22.9266 0
    endloop
  endfacet
  facet normal -0.809017 -0.587785 0
    outer loop
      vertex 4.46353 22.9266 3
      vertex 5.5 21.5 0
      vertex 5.5 21.5 3
    endloop
  endfacet
  facet normal 1 -0 0
    outer loop
      vertex 2.78647 20.6183 3
      vertex 2.78647 22.3817 0
      vertex 2.78647 22.3817 3
    endloop
  endfacet
  facet normal 1 0 0
    outer loop
      vertex 2.78647 22.3817 0
      vertex 2.78647 20.6183 3
      vertex 2.78647 20.6183 0
    endloop
  endfacet
  facet normal 0.309017 -0.951057 0
    outer loop
      vertex 2.78647 22.3817 0
      vertex 4.46353 22.9266 3
      vertex 2.78647 22.3817 3
    endloop
  endfacet
  facet normal 0.309017 -0.951057 0
    outer loop
      vertex 4.46353 22.9266 3
      vertex 2.78647 22.3817 0
      vertex 4.46353 22.9266 0
    endloop
  endfacet
  facet normal 0.309017 0.951057 -0
    outer loop
      vertex 4.46353 20.0734 0
      vertex 2.78647 20.6183 3
      vertex 4.46353 20.0734 3
    endloop
  endfacet
  facet normal 0.309017 0.951057 0
    outer loop
      vertex 2.78647 20.6183 3
      vertex 4.46353 20.0734 0
      vertex 2.78647 20.6183 0
    endloop
  endfacet
  facet normal -0.809017 0.587785 0
    outer loop
      vertex 4.46353 20.0734 0
      vertex 5.5 21.5 3
      vertex 5.5 21.5 0
    endloop
  endfacet
  facet normal -0.809017 0.587785 0
    outer loop
      vertex 5.5 21.5 3
      vertex 4.46353 20.0734 0
      vertex 4.46353 20.0734 3
    endloop
  endfacet
  facet normal -0.809017 -0.587786 0
    outer loop
      vertex 47.5 3 0
      vertex 46.4635 4.42658 3
      vertex 46.4635 4.42658 0
    endloop
  endfacet
  facet normal -0.809017 -0.587786 0
    outer loop
      vertex 46.4635 4.42658 3
      vertex 47.5 3 0
      vertex 47.5 3 3
    endloop
  endfacet
  facet normal 1 -0 0
    outer loop
      vertex 44.7865 2.11832 3
      vertex 44.7865 3.88168 0
      vertex 44.7865 3.88168 3
    endloop
  endfacet
  facet normal 1 0 0
    outer loop
      vertex 44.7865 3.88168 0
      vertex 44.7865 2.11832 3
      vertex 44.7865 2.11832 0
    endloop
  endfacet
  facet normal 0.309018 -0.951056 0
    outer loop
      vertex 44.7865 3.88168 0
      vertex 46.4635 4.42658 3
      vertex 44.7865 3.88168 3
    endloop
  endfacet
  facet normal 0.309018 -0.951056 0
    outer loop
      vertex 46.4635 4.42658 3
      vertex 44.7865 3.88168 0
      vertex 46.4635 4.42658 0
    endloop
  endfacet
  facet normal 0.309018 0.951056 -0
    outer loop
      vertex 46.4635 1.57342 0
      vertex 44.7865 2.11832 3
      vertex 46.4635 1.57342 3
    endloop
  endfacet
  facet normal 0.309018 0.951056 0
    outer loop
      vertex 44.7865 2.11832 3
      vertex 46.4635 1.57342 0
      vertex 44.7865 2.11832 0
    endloop
  endfacet
  facet normal -0.809017 0.587786 0
    outer loop
      vertex 46.4635 1.57342 0
      vertex 47.5 3 3
      vertex 47.5 3 0
    endloop
  endfacet
  facet normal -0.809017 0.587786 0
    outer loop
      vertex 47.5 3 3
      vertex 46.4635 1.57342 0
      vertex 46.4635 1.57342 3
    endloop
  endfacet
  facet normal -0.809016 -0.587786 0
    outer loop
      vertex 47.5 21.5 0
      vertex 46.4635 22.9266 3
      vertex 46.4635 22.9266 0
    endloop
  endfacet
  facet normal -0.809016 -0.587786 0
    outer loop
      vertex 46.4635 22.9266 3
      vertex 47.5 21.5 0
      vertex 47.5 21.5 3
    endloop
  endfacet
  facet normal 1 -0 0
    outer loop
      vertex 44.7865 20.6183 3
      vertex 44.7865 22.3817 0
      vertex 44.7865 22.3817 3
    endloop
  endfacet
  facet normal 1 0 0
    outer loop
      vertex 44.7865 22.3817 0
      vertex 44.7865 20.6183 3
      vertex 44.7865 20.6183 0
    endloop
  endfacet
  facet normal 0.309017 -0.951056 0
    outer loop
      vertex 44.7865 22.3817 0
      vertex 46.4635 22.9266 3
      vertex 44.7865 22.3817 3
    endloop
  endfacet
  facet normal 0.309017 -0.951056 0
    outer loop
      vertex 46.4635 22.9266 3
      vertex 44.7865 22.3817 0
      vertex 46.4635 22.9266 0
    endloop
  endfacet
  facet normal 0.309017 0.951056 -0
    outer loop
      vertex 46.4635 20.0734 0
      vertex 44.7865 20.6183 3
      vertex 46.4635 20.0734 3
    endloop
  endfacet
  facet normal 0.309017 0.951056 0
    outer loop
      vertex 44.7865 20.6183 3
      vertex 46.4635 20.0734 0
      vertex 44.7865 20.6183 0
    endloop
  endfacet
  facet normal -0.809016 0.587786 0
    outer loop
      vertex 46.4635 20.0734 0
      vertex 47.5 21.5 3
      vertex 47.5 21.5 0
    endloop
  endfacet
  facet normal -0.809016 0.587786 0
    outer loop
      vertex 47.5 21.5 3
      vertex 46.4635 20.0734 0
      vertex 46.4635 20.0734 3
    endloop
  endfacet
endsolid OpenSCAD_Model
