0
SECTION
2
HEADER
9
$ACADVER
1
AC1014
9
$HANDSEED
5
FFFF
0
ENDSEC
0
SECTION
2
TABLES
0
TABLE
2
VPORT
5
8
100
AcDbSymbolTable
0
ENDTAB
0
TABLE
2
LTYPE
5
5
100
AcDbSymbolTable
0
LTYPE
5
14
100
AcDbSymbolTableRecord
100
AcDbLinetypeTableRecord
2
BYBLOCK
70
0
0
LTYPE
5
15
100
AcDbSymbolTableRecord
100
AcDbLinetypeTableRecord
2
BYLAYER
70
0
0
ENDTAB
0
TABLE
2
LAYER
5
2
100
AcDbSymbolTable
70
2
0
LAYER
5
50
100
AcDbSymbolTableRecord
100
AcDbLayerTableRecord
2
0
70
0
6
CONTINUOUS
0
ENDTAB
0
TABLE
2
STYLE
5
3
100
AcDbSymbolTable
70
1
0
STYLE
5
11
100
AcDbSymbolTableRecord
100
AcDbTextStyleTableRecord
2
STANDARD
70
0
0
ENDTAB
0
TABLE
2
VIEW
5
6
100
AcDbSymbolTable
70
0
0
ENDTAB
0
TABLE
2
UCS
5
7
100
AcDbSymbolTable
70
0
0
ENDTAB
0
TABLE
2
APPID
5
9
100
AcDbSymbolTable
70
2
0
APPID
5
12
100
AcDbSymbolTableRecord
100
AcDbRegAppTableRecord
2
ACAD
70
0
0
ENDTAB
0
TABLE
2
DIMSTYLE
5
A
100
AcDbSymbolTable
70
1
0
ENDTAB
0
TABLE
2
BLOCK_RECORD
5
1
100
AcDbSymbolTable
70
1
0
BLOCK_RECORD
5
1F
100
AcDbSymbolTableRecord
100
AcDbBlockTableRecord
2
*MODEL_SPACE
0
BLOCK_RECORD
5
1B
100
AcDbSymbolTableRecord
100
AcDbBlockTableRecord
2
*PAPER_SPACE
0
ENDTAB
0
ENDSEC
0
SECTION
2
BLOCKS
0
BLOCK
5
20
100
AcDbEntity
100
AcDbBlockBegin
2
*MODEL_SPACE
0
ENDBLK
5
21
100
AcDbEntity
100
AcDbBlockEnd
0
BLOCK
5
1C
100
AcDbEntity
100
AcDbBlockBegin
2
*PAPER_SPACE
0
ENDBLK
5
1D
100
AcDbEntity
100
AcDbBlockEnd
0
ENDSEC
0
SECTION
2
ENTITIES
0
LWPOLYLINE
5
100
100
AcDbEntity
8
0
100
AcDbPolyline
90
26
70
1
43
0.0
10
-14.048620830166342
20
-23.391736907874506
10
-12.514742544690872
20
-20.096320748355197
10
-17.701144062749343
20
16.538872970089415
10
-19.798061975921719
20
17.220600328763393
10
-32.308615903181853
20
15.428628765654333
10
-32.99437523536173
20
15.820358550602068
10
-29.023969690121948
20
22.770921821021215
42
-0.057131784283070794
10
-28.264544999061961
20
23.805652542202431
10
-19.864733412280607
20
25.615022980235899
10
20.090348578231286
20
25.654765532370241
10
28.49334670277592
20
23.860542646219585
42
-0.054929510060290142
10
29.229635642204311
20
22.86985379293202
10
33.257447789022521
20
15.985888331169653
10
32.305736078430833
20
15.429041262502206
10
19.798061975921843
20
17.220600328763357
10
17.701144062749442
20
16.538872970089386
10
12.514742544690908
20
-20.096320748355218
10
14.04927280943191
20
-23.387131520823665
10
13.134850526584083
20
-29.846337761264735
10
12.720419228870936
20
-30.546146312177299
10
6.5742327328919963
20
-36.351490535155897
42
-0.022742846659287802
10
6.0624492882522771
20
-36.375317186375106
10
-6.0830134228251094
20
-36.388005232554029
42
-0.03141964654182499
10
-6.7891354247545612
20
-36.344329714957333
10
-12.80855778738035
20
-30.397926999429995
10
-13.13692910716072
20
-29.831655288096684
0
LWPOLYLINE
5
101
100
AcDbEntity
8
0
100
AcDbPolyline
90
14
70
1
43
0.0
10
-13.999999999999996
20
10.978377775904047
10
-12.951468617894301
20
-1.1222569401429987
42
0.047809385666326178
10
-12.502566761575178
20
-3.5617164924171507
10
-9.4999997787529704
20
-14.101520611795378
10
-9.499999778752974
20
-30.031690062468375
42
0.41421356237309048
10
-7.9999997787529908
20
-31.531690062468382
10
8.000000221247026
20
-31.531690062468378
42
0.41421356237309048
10
9.5000002212470243
20
-30.031690062468375
10
9.5000002212470172
20
-14.101520601960749
10
12.502566899006997
20
-3.5617160099950125
42
0.047809375997812743
10
12.951468617894307
20
-1.1222569401430205
10
14.000000000000002
20
10.978377775904196
10
14.000000000000011
20
23.500000000000014
10
-13.999999999999993
20
23.500000000000014
0
ENDSEC
0
SECTION
2
OBJECTS
0
DICTIONARY
5
C
100
AcDbDictionary
3
ACAD_GROUP
350
D
3
ACAD_MLINESTYLE
350
17
0
DICTIONARY
5
D
100
AcDbDictionary
0
DICTIONARY
5
1A
330
C
100
AcDbDictionary
0
DICTIONARY
5
17
100
AcDbDictionary
0
ENDSEC
0
EOF
