solid OpenSCAD_Model
  facet normal -0.916312 -0.400466 0
    outer loop
      vertex -3.80423 -1.23607 5
      vertex -5 1.5 5
      vertex -3.80423 -1.23607 -5
    endloop
  endfacet
  facet normal -0.916312 -0.400466 0
    outer loop
      vertex -3.80423 -1.23607 -5
      vertex -5 1.5 5
      vertex -5 1.5 -5
    endloop
  endfacet
  facet normal 0 0 -1
    outer loop
      vertex -1.5 8.5 -5
      vertex -0.5 7.5 -5
      vertex -5 8.5 -5
    endloop
  endfacet
  facet normal 0 0 -1
    outer loop
      vertex -5 8.5 -5
      vertex -0.5 7.5 -5
      vertex -0.5 2.5 -5
    endloop
  endfacet
  facet normal 0 0 -1
    outer loop
      vertex 0.5 2.5 -5
      vertex 0.5 3 -5
      vertex 2 3 -5
    endloop
  endfacet
  facet normal 0 0 -1
    outer loop
      vertex 0.5 2.5 -5
      vertex 5 1.5 -5
      vertex -0.5 2.5 -5
    endloop
  endfacet
  facet normal 0 0 -1
    outer loop
      vertex 2 3 -5
      vertex 2 8.5 -5
      vertex 5 8.5 -5
    endloop
  endfacet
  facet normal 0 0 -1
    outer loop
      vertex 2 3 -5
      vertex 5 8.5 -5
      vertex 5 1.5 -5
    endloop
  endfacet
  facet normal 0 0 -1
    outer loop
      vertex 2 3 -5
      vertex 5 1.5 -5
      vertex 0.5 2.5 -5
    endloop
  endfacet
  facet normal 0 0 -1
    outer loop
      vertex -0.5 2.5 -5
      vertex 5 1.5 -5
      vertex 3.80423 -1.23607 -5
    endloop
  endfacet
  facet normal 0 0 -1
    outer loop
      vertex -0.5 2.5 -5
      vertex 3.80423 -1.23607 -5
      vertex 3.23607 -2.35114 -5
    endloop
  endfacet
  facet normal 0 0 -1
    outer loop
      vertex -0.5 2.5 -5
      vertex 3.23607 -2.35114 -5
      vertex 2.35114 -3.23607 -5
    endloop
  endfacet
  facet normal 0 0 -1
    outer loop
      vertex 0.309017 -0.048943 -5
      vertex -5 8.5 -5
      vertex -0.5 2.5 -5
    endloop
  endfacet
  facet normal 0 0 -1
    outer loop
      vertex 0.309017 -1.95106 -5
      vertex 2.35114 -3.23607 -5
      vertex 1.23607 -3.80423 -5
    endloop
  endfacet
  facet normal 0 0 -1
    outer loop
      vertex -0.809017 -1.58779 -5
      vertex 1.23607 -3.80423 -5
      vertex 0 -4 -5
    endloop
  endfacet
  facet normal 0 0 -1
    outer loop
      vertex -5 8.5 -5
      vertex 0 -4 -5
      vertex -1.23607 -3.80423 -5
    endloop
  endfacet
  facet normal 0 0 -1
    outer loop
      vertex -5 8.5 -5
      vertex -1.23607 -3.80423 -5
      vertex -2.35114 -3.23607 -5
    endloop
  endfacet
  facet normal 0 0 -1
    outer loop
      vertex -5 8.5 -5
      vertex -2.35114 -3.23607 -5
      vertex -3.23607 -2.35114 -5
    endloop
  endfacet
  facet normal 0 0 -1
    outer loop
      vertex -5 8.5 -5
      vertex -3.23607 -2.35114 -5
      vertex -3.80423 -1.23607 -5
    endloop
  endfacet
  facet normal 0 0 -1
    outer loop
      vertex -5 8.5 -5
      vertex -3.80423 -1.23607 -5
      vertex -5 1.5 -5
    endloop
  endfacet
  facet normal 0 0 -1
    outer loop
      vertex -0.309017 -1.95106 -5
      vertex 1.23607 -3.80423 -5
      vertex -0.809017 -1.58779 -5
    endloop
  endfacet
  facet normal 0 0 -1
    outer loop
      vertex -5 8.5 -5
      vertex -0.809017 -1.58779 -5
      vertex 0 -4 -5
    endloop
  endfacet
  facet normal 0 0 -1
    outer loop
      vertex 0.809017 -1.58779 -5
      vertex 2.35114 -3.23607 -5
      vertex 0.309017 -1.95106 -5
    endloop
  endfacet
  facet normal 0 0 -1
    outer loop
      vertex 1 -1 -5
      vertex 2.35114 -3.23607 -5
      vertex 0.809017 -1.58779 -5
    endloop
  endfacet
  facet normal 0 0 -1
    outer loop
      vertex 0.809017 -0.412215 -5
      vertex 2.35114 -3.23607 -5
      vertex 1 -1 -5
    endloop
  endfacet
  facet normal 0 0 -1
    outer loop
      vertex -0.5 2.5 -5
      vertex 2.35114 -3.23607 -5
      vertex 0.809017 -0.412215 -5
    endloop
  endfacet
  facet normal 0 0 -1
    outer loop
      vertex 0.309017 -0.048943 -5
      vertex -0.5 2.5 -5
      vertex 0.809017 -0.412215 -5
    endloop
  endfacet
  facet normal 0 0 -1
    outer loop
      vertex -0.809017 -0.412215 -5
      vertex -5 8.5 -5
      vertex -0.309017 -0.048943 -5
    endloop
  endfacet
  facet normal 0 0 -1
    outer loop
      vertex -0.309017 -0.048943 -5
      vertex -5 8.5 -5
      vertex 0.309017 -0.048943 -5
    endloop
  endfacet
  facet normal 0 0 -1
    outer loop
      vertex -5 8.5 -5
      vertex -1 -1 -5
      vertex -0.809017 -1.58779 -5
    endloop
  endfacet
  facet normal 0 0 -1
    outer loop
      vertex 0.309017 -1.95106 -5
      vertex 1.23607 -3.80423 -5
      vertex -0.309017 -1.95106 -5
    endloop
  endfacet
  facet normal 0 0 -1
    outer loop
      vertex -1 -1 -5
      vertex -5 8.5 -5
      vertex -0.809017 -0.412215 -5
    endloop
  endfacet
  facet normal -1 0 0
    outer loop
      vertex -5 8.5 5
      vertex -5 8.5 -5
      vertex -5 1.5 5
    endloop
  endfacet
  facet normal -1 0 0
    outer loop
      vertex -5 1.5 5
      vertex -5 8.5 -5
      vertex -5 1.5 -5
    endloop
  endfacet
  facet normal -0.891007 -0.45399 0
    outer loop
      vertex -3.23607 -2.35114 5
      vertex -3.80423 -1.23607 5
      vertex -3.23607 -2.35114 -5
    endloop
  endfacet
  facet normal -0.891007 -0.45399 0
    outer loop
      vertex -3.23607 -2.35114 -5
      vertex -3.80423 -1.23607 5
      vertex -3.80423 -1.23607 -5
    endloop
  endfacet
  facet normal 0 0 1
    outer loop
      vertex -3.80423 -1.23607 5
      vertex -3.23607 -2.35114 5
      vertex -2.35114 -3.23607 5
    endloop
  endfacet
  facet normal 0 0 1
    outer loop
      vertex 0 -4 5
      vertex -3.80423 -1.23607 5
      vertex -1.23607 -3.80423 5
    endloop
  endfacet
  facet normal 0 0 1
    outer loop
      vertex -1.23607 -3.80423 5
      vertex -3.80423 -1.23607 5
      vertex -2.35114 -3.23607 5
    endloop
  endfacet
  facet normal 0 0 1
    outer loop
      vertex -1.1 -2.90526 5
      vertex -3.80423 -1.23607 5
      vertex 0 -4 5
    endloop
  endfacet
  facet normal 0 0 1
    outer loop
      vertex 2.2 -1 5
      vertex 3.23607 -2.35114 5
      vertex 3.80423 -1.23607 5
    endloop
  endfacet
  facet normal 0 0 1
    outer loop
      vertex -1.1 0.905256 5
      vertex 1.1 0.905256 5
      vertex 2 3 5
    endloop
  endfacet
  facet normal 0 0 1
    outer loop
      vertex 2.2 -1 5
      vertex 2.35114 -3.23607 5
      vertex 3.23607 -2.35114 5
    endloop
  endfacet
  facet normal 0 0 1
    outer loop
      vertex 5 8.5 5
      vertex 2 3 5
      vertex 5 1.5 5
    endloop
  endfacet
  facet normal 0 0 1
    outer loop
      vertex 0.5 2.5 5
      vertex -0.5 2.5 5
      vertex -3.80423 -1.23607 5
    endloop
  endfacet
  facet normal 0 0 1
    outer loop
      vertex 0.5 3 5
      vertex 0.5 2.5 5
      vertex 2 3 5
    endloop
  endfacet
  facet normal 0 0 1
    outer loop
      vertex -0.5 2.5 5
      vertex -0.5 7.5 5
      vertex -3.80423 -1.23607 5
    endloop
  endfacet
  facet normal 0 0 1
    outer loop
      vertex 1.1 -2.90526 5
      vertex -1.1 -2.90526 5
      vertex 1.23607 -3.80423 5
    endloop
  endfacet
  facet normal 0 0 1
    outer loop
      vertex -1.5 8.5 5
      vertex -3.80423 -1.23607 5
      vertex -0.5 7.5 5
    endloop
  endfacet
  facet normal 0 0 1
    outer loop
      vertex -5 8.5 5
      vertex -3.80423 -1.23607 5
      vertex -1.5 8.5 5
    endloop
  endfacet
  facet normal 0 0 1
    outer loop
      vertex -5 1.5 5
      vertex -3.80423 -1.23607 5
      vertex -5 8.5 5
    endloop
  endfacet
  facet normal 0 0 1
    outer loop
      vertex 2.2 -1 5
      vertex 1.1 -2.90526 5
      vertex 2.35114 -3.23607 5
    endloop
  endfacet
  facet normal 0 0 1
    outer loop
      vertex 0.5 2.5 5
      vertex -1.1 0.905256 5
      vertex 2 3 5
    endloop
  endfacet
  facet normal 0 0 1
    outer loop
      vertex 0.5 2.5 5
      vertex -3.80423 -1.23607 5
      vertex -1.1 0.905256 5
    endloop
  endfacet
  facet normal 0 0 1
    outer loop
      vertex 2 3 5
      vertex 1.1 0.905256 5
      vertex 5 1.5 5
    endloop
  endfacet
  facet normal 0 0 1
    outer loop
      vertex 1.1 0.905256 5
      vertex 2.2 -1 5
      vertex 5 1.5 5
    endloop
  endfacet
  facet normal 0 0 1
    outer loop
      vertex 5 1.5 5
      vertex 2.2 -1 5
      vertex 3.80423 -1.23607 5
    endloop
  endfacet
  facet normal 0 0 1
    outer loop
      vertex 2.35114 -3.23607 5
      vertex 1.1 -2.90526 5
      vertex 1.23607 -3.80423 5
    endloop
  endfacet
  facet normal 0 0 1
    outer loop
      vertex -2.2 -1 5
      vertex -1.1 0.905256 5
      vertex -3.80423 -1.23607 5
    endloop
  endfacet
  facet normal 0 0 1
    outer loop
      vertex 1.23607 -3.80423 5
      vertex -1.1 -2.90526 5
      vertex 0 -4 5
    endloop
  endfacet
  facet normal 0 0 1
    outer loop
      vertex 2 8.5 5
      vertex 2 3 5
      vertex 5 8.5 5
    endloop
  endfacet
  facet normal 0 0 1
    outer loop
      vertex -1.1 -2.90526 5
      vertex -2.2 -1 5
      vertex -3.80423 -1.23607 5
    endloop
  endfacet
  facet normal 0 1 0
    outer loop
      vertex -1.5 8.5 5
      vertex -1.5 8.5 -5
      vertex -5 8.5 5
    endloop
  endfacet
  facet normal 0 1 0
    outer loop
      vertex -5 8.5 5
      vertex -1.5 8.5 -5
      vertex -5 8.5 -5
    endloop
  endfacet
  facet normal -0.707107 -0.707107 0
    outer loop
      vertex -2.35114 -3.23607 -5
      vertex -2.35114 -3.23607 5
      vertex -3.23607 -2.35114 5
    endloop
  endfacet
  facet normal -0.707107 -0.707107 0
    outer loop
      vertex -3.23607 -2.35114 -5
      vertex -2.35114 -3.23607 -5
      vertex -3.23607 -2.35114 5
    endloop
  endfacet
  facet normal -0.45399 -0.891007 0
    outer loop
      vertex -1.23607 -3.80423 -5
      vertex -1.23607 -3.80423 5
      vertex -2.35114 -3.23607 5
    endloop
  endfacet
  facet normal -0.45399 -0.891007 0
    outer loop
      vertex -2.35114 -3.23607 -5
      vertex -1.23607 -3.80423 -5
      vertex -2.35114 -3.23607 5
    endloop
  endfacet
  facet normal -0.156435 -0.987688 0
    outer loop
      vertex 0 -4 -5
      vertex 0 -4 5
      vertex -1.23607 -3.80423 5
    endloop
  endfacet
  facet normal -0.156435 -0.987688 0
    outer loop
      vertex -1.23607 -3.80423 -5
      vertex 0 -4 -5
      vertex -1.23607 -3.80423 5
    endloop
  endfacet
  facet normal 0.156435 -0.987688 0
    outer loop
      vertex 1.23607 -3.80423 -5
      vertex 1.23607 -3.80423 5
      vertex 0 -4 5
    endloop
  endfacet
  facet normal 0.156435 -0.987688 0
    outer loop
      vertex 0 -4 -5
      vertex 1.23607 -3.80423 -5
      vertex 0 -4 5
    endloop
  endfacet
  facet normal 0.45399 -0.891007 0
    outer loop
      vertex 2.35114 -3.23607 -5
      vertex 2.35114 -3.23607 5
      vertex 1.23607 -3.80423 5
    endloop
  endfacet
  facet normal 0.45399 -0.891007 0
    outer loop
      vertex 1.23607 -3.80423 -5
      vertex 2.35114 -3.23607 -5
      vertex 1.23607 -3.80423 5
    endloop
  endfacet
  facet normal 0.707107 -0.707107 0
    outer loop
      vertex 3.23607 -2.35114 -5
      vertex 3.23607 -2.35114 5
      vertex 2.35114 -3.23607 5
    endloop
  endfacet
  facet normal 0.707107 -0.707107 0
    outer loop
      vertex 2.35114 -3.23607 -5
      vertex 3.23607 -2.35114 -5
      vertex 2.35114 -3.23607 5
    endloop
  endfacet
  facet normal 0.891007 -0.45399 0
    outer loop
      vertex 3.80423 -1.23607 -5
      vertex 3.80423 -1.23607 5
      vertex 3.23607 -2.35114 5
    endloop
  endfacet
  facet normal 0.891007 -0.45399 0
    outer loop
      vertex 3.23607 -2.35114 -5
      vertex 3.80423 -1.23607 -5
      vertex 3.23607 -2.35114 5
    endloop
  endfacet
  facet normal 0.916312 -0.400466 0
    outer loop
      vertex 5 1.5 -5
      vertex 5 1.5 5
      vertex 3.80423 -1.23607 5
    endloop
  endfacet
  facet normal 0.916312 -0.400466 0
    outer loop
      vertex 3.80423 -1.23607 -5
      vertex 5 1.5 -5
      vertex 3.80423 -1.23607 5
    endloop
  endfacet
  facet normal 1 0 0
    outer loop
      vertex 5 8.5 -5
      vertex 5 8.5 5
      vertex 5 1.5 5
    endloop
  endfacet
  facet normal 1 0 0
    outer loop
      vertex 5 1.5 -5
      vertex 5 8.5 -5
      vertex 5 1.5 5
    endloop
  endfacet
  facet normal 0 1 0
    outer loop
      vertex 1.5 8.5 -2
      vertex 2 8.5 -3
      vertex 1.5 8.5 -3
    endloop
  endfacet
  facet normal 0 1 0
    outer loop
      vertex 2 8.5 -2
      vertex 2 8.5 -3
      vertex 1.5 8.5 -2
    endloop
  endfacet
  facet normal 0 1 0
    outer loop
      vertex 2 8.5 -4
      vertex 2 8.5 -3
      vertex 5 8.5 5
    endloop
  endfacet
  facet normal 0 1 0
    outer loop
      vertex 2 8.5 -3
      vertex 2 8.5 -2
      vertex 5 8.5 5
    endloop
  endfacet
  facet normal 0 1 0
    outer loop
      vertex 1.5 8.5 0
      vertex 2 8.5 -1
      vertex 1.5 8.5 -1
    endloop
  endfacet
  facet normal 0 1 0
    outer loop
      vertex 2 8.5 0
      vertex 2 8.5 -1
      vertex 1.5 8.5 0
    endloop
  endfacet
  facet normal 0 1 0
    outer loop
      vertex 2 8.5 -2
      vertex 2 8.5 -1
      vertex 5 8.5 5
    endloop
  endfacet
  facet normal 0 1 0
    outer loop
      vertex 2 8.5 -1
      vertex 2 8.5 0
      vertex 5 8.5 5
    endloop
  endfacet
  facet normal 0 1 0
    outer loop
      vertex 1.5 8.5 2
      vertex 2 8.5 1
      vertex 1.5 8.5 1
    endloop
  endfacet
  facet normal 0 1 0
    outer loop
      vertex 2 8.5 2
      vertex 2 8.5 1
      vertex 1.5 8.5 2
    endloop
  endfacet
  facet normal 0 1 0
    outer loop
      vertex 2 8.5 0
      vertex 2 8.5 1
      vertex 5 8.5 5
    endloop
  endfacet
  facet normal 0 1 0
    outer loop
      vertex 2 8.5 1
      vertex 2 8.5 2
      vertex 5 8.5 5
    endloop
  endfacet
  facet normal 0 1 0
    outer loop
      vertex 1.5 8.5 4
      vertex 2 8.5 3
      vertex 1.5 8.5 3
    endloop
  endfacet
  facet normal 0 1 0
    outer loop
      vertex 2 8.5 4
      vertex 2 8.5 3
      vertex 1.5 8.5 4
    endloop
  endfacet
  facet normal 0 1 0
    outer loop
      vertex 2 8.5 2
      vertex 2 8.5 3
      vertex 5 8.5 5
    endloop
  endfacet
  facet normal 0 1 0
    outer loop
      vertex 5 8.5 5
      vertex 2 8.5 4
      vertex 2 8.5 5
    endloop
  endfacet
  facet normal 0 1 0
    outer loop
      vertex 2 8.5 3
      vertex 2 8.5 4
      vertex 5 8.5 5
    endloop
  endfacet
  facet normal 0 1 0
    outer loop
      vertex 2 8.5 -4
      vertex 5 8.5 5
      vertex 5 8.5 -5
    endloop
  endfacet
  facet normal 0 1 0
    outer loop
      vertex 2 8.5 -4
      vertex 5 8.5 -5
      vertex 1.5 8.5 -4
    endloop
  endfacet
  facet normal 0 1 0
    outer loop
      vertex 5 8.5 -5
      vertex 2 8.5 -5
      vertex 1.5 8.5 -4
    endloop
  endfacet
  facet normal 0 1 0
    outer loop
      vertex 2 8.5 -5
      vertex 1.5 8.5 -5
      vertex 1.5 8.5 -4
    endloop
  endfacet
  facet normal 0 0 -1
    outer loop
      vertex 1.5 8.5 -5
      vertex 2 8.5 -5
      vertex 0.5 7.5 -5
    endloop
  endfacet
  facet normal 0 0 -1
    outer loop
      vertex 0.5 7.5 -5
      vertex 2 8.5 -5
      vertex 2 3 -5
    endloop
  endfacet
  facet normal 0 0 -1
    outer loop
      vertex 0.5 7.5 -5
      vertex 2 3 -5
      vertex 0.5 3 -5
    endloop
  endfacet
  facet normal -1 0 0
    outer loop
      vertex 0.5 2.5 -5
      vertex 0.5 2.5 5
      vertex 0.5 3 -5
    endloop
  endfacet
  facet normal -1 0 0
    outer loop
      vertex 0.5 3 4
      vertex 0.5 2.5 5
      vertex 0.5 3 5
    endloop
  endfacet
  facet normal -1 0 0
    outer loop
      vertex 0.5 3 -5
      vertex 0.5 2.5 5
      vertex 0.5 3 -4
    endloop
  endfacet
  facet normal -1 0 0
    outer loop
      vertex 0.5 3 4
      vertex 0.5 7.5 4
      vertex 0.5 3 3
    endloop
  endfacet
  facet normal -1 0 0
    outer loop
      vertex 0.5 3 4
      vertex 0.5 3 3
      vertex 0.5 2.5 5
    endloop
  endfacet
  facet normal -1 0 0
    outer loop
      vertex 0.5 3 3
      vertex 0.5 3 2
      vertex 0.5 2.5 5
    endloop
  endfacet
  facet normal -1 0 0
    outer loop
      vertex 0.5 3 1
      vertex 0.5 7.5 2
      vertex 0.5 7.5 1
    endloop
  endfacet
  facet normal -1 0 0
    outer loop
      vertex 0.5 7.5 0
      vertex 0.5 3 -1
      vertex 0.5 3 0
    endloop
  endfacet
  facet normal -1 0 0
    outer loop
      vertex 0.5 3 2
      vertex 0.5 3 1
      vertex 0.5 2.5 5
    endloop
  endfacet
  facet normal -1 0 0
    outer loop
      vertex 0.5 3 1
      vertex 0.5 3 0
      vertex 0.5 2.5 5
    endloop
  endfacet
  facet normal -1 0 0
    outer loop
      vertex 0.5 3 -1
      vertex 0.5 7.5 0
      vertex 0.5 7.5 -1
    endloop
  endfacet
  facet normal -1 0 0
    outer loop
      vertex 0.5 7.5 -4
      vertex 0.5 3 -5
      vertex 0.5 3 -4
    endloop
  endfacet
  facet normal -1 0 0
    outer loop
      vertex 0.5 3 0
      vertex 0.5 3 -1
      vertex 0.5 2.5 5
    endloop
  endfacet
  facet normal -1 0 0
    outer loop
      vertex 0.5 7.5 -2
      vertex 0.5 3 -3
      vertex 0.5 3 -2
    endloop
  endfacet
  facet normal -1 0 0
    outer loop
      vertex 0.5 3 -1
      vertex 0.5 3 -2
      vertex 0.5 2.5 5
    endloop
  endfacet
  facet normal -1 0 0
    outer loop
      vertex 0.5 3 -3
      vertex 0.5 7.5 -2
      vertex 0.5 7.5 -3
    endloop
  endfacet
  facet normal -1 0 0
    outer loop
      vertex 0.5 3 -2
      vertex 0.5 3 -3
      vertex 0.5 2.5 5
    endloop
  endfacet
  facet normal -1 0 0
    outer loop
      vertex 0.5 7.5 2
      vertex 0.5 3 1
      vertex 0.5 3 2
    endloop
  endfacet
  facet normal -1 0 0
    outer loop
      vertex 0.5 3 -3
      vertex 0.5 3 -4
      vertex 0.5 2.5 5
    endloop
  endfacet
  facet normal -1 0 0
    outer loop
      vertex 0.5 3 -5
      vertex 0.5 7.5 -4
      vertex 0.5 7.5 -5
    endloop
  endfacet
  facet normal -1 0 0
    outer loop
      vertex 0.5 3 3
      vertex 0.5 7.5 4
      vertex 0.5 7.5 3
    endloop
  endfacet
  facet normal 0 1 0
    outer loop
      vertex -0.5 2.5 -5
      vertex -0.5 2.5 5
      vertex 0.5 2.5 -5
    endloop
  endfacet
  facet normal 0 1 0
    outer loop
      vertex 0.5 2.5 -5
      vertex -0.5 2.5 5
      vertex 0.5 2.5 5
    endloop
  endfacet
  facet normal 1 0 0
    outer loop
      vertex -0.5 2.5 5
      vertex -0.5 2.5 -5
      vertex -0.5 7.5 -5
    endloop
  endfacet
  facet normal 1 0 0
    outer loop
      vertex -0.5 7.5 5
      vertex -0.5 2.5 5
      vertex -0.5 7.5 -5
    endloop
  endfacet
  facet normal 0.707107 0.707107 0
    outer loop
      vertex -1.5 8.5 -5
      vertex -1.5 8.5 5
      vertex -0.5 7.5 -5
    endloop
  endfacet
  facet normal 0.707107 0.707107 0
    outer loop
      vertex -0.5 7.5 -5
      vertex -1.5 8.5 5
      vertex -0.5 7.5 5
    endloop
  endfacet
  facet normal 0.951056 0.309017 0
    outer loop
      vertex -0.809017 -1.58779 -5
      vertex -1 -1 -5
      vertex -1 -1 -2
    endloop
  endfacet
  facet normal 0.951056 0.309017 0
    outer loop
      vertex -0.809017 -1.58779 -2
      vertex -0.809017 -1.58779 -5
      vertex -1 -1 -2
    endloop
  endfacet
  facet normal 0.587786 0.809016 0
    outer loop
      vertex -0.809017 -1.58779 -5
      vertex -0.809017 -1.58779 -2
      vertex -0.309017 -1.95106 -5
    endloop
  endfacet
  facet normal 0.587786 0.809016 0
    outer loop
      vertex -0.309017 -1.95106 -5
      vertex -0.809017 -1.58779 -2
      vertex -0.309017 -1.95106 -2
    endloop
  endfacet
  facet normal 0.951056 -0.309017 0
    outer loop
      vertex -1 -1 -2
      vertex -1 -1 -5
      vertex -0.809017 -0.412215 -5
    endloop
  endfacet
  facet normal 0.951056 -0.309017 0
    outer loop
      vertex -0.809017 -0.412215 -2
      vertex -1 -1 -2
      vertex -0.809017 -0.412215 -5
    endloop
  endfacet
  facet normal 0.587786 -0.809016 0
    outer loop
      vertex -0.809017 -0.412215 -2
      vertex -0.809017 -0.412215 -5
      vertex -0.309017 -0.048943 -5
    endloop
  endfacet
  facet normal 0.587786 -0.809016 0
    outer loop
      vertex -0.309017 -0.048943 -2
      vertex -0.809017 -0.412215 -2
      vertex -0.309017 -0.048943 -5
    endloop
  endfacet
  facet normal 0 -1 0
    outer loop
      vertex -0.309017 -0.048943 -2
      vertex -0.309017 -0.048943 -5
      vertex 0.309017 -0.048943 -5
    endloop
  endfacet
  facet normal 0 -1 0
    outer loop
      vertex 0.309017 -0.048943 -2
      vertex -0.309017 -0.048943 -2
      vertex 0.309017 -0.048943 -5
    endloop
  endfacet
  facet normal -0.587786 -0.809016 0
    outer loop
      vertex 0.309017 -0.048943 -2
      vertex 0.309017 -0.048943 -5
      vertex 0.809017 -0.412215 -5
    endloop
  endfacet
  facet normal -0.587786 -0.809016 0
    outer loop
      vertex 0.809017 -0.412215 -2
      vertex 0.309017 -0.048943 -2
      vertex 0.809017 -0.412215 -5
    endloop
  endfacet
  facet normal -0.951056 -0.309017 0
    outer loop
      vertex 0.809017 -0.412215 -5
      vertex 1 -1 -5
      vertex 0.809017 -0.412215 -2
    endloop
  endfacet
  facet normal -0.951056 -0.309017 0
    outer loop
      vertex 0.809017 -0.412215 -2
      vertex 1 -1 -5
      vertex 1 -1 -2
    endloop
  endfacet
  facet normal -0.951056 0.309017 0
    outer loop
      vertex 0.809017 -1.58779 -5
      vertex 0.809017 -1.58779 -2
      vertex 1 -1 -5
    endloop
  endfacet
  facet normal -0.951056 0.309017 0
    outer loop
      vertex 1 -1 -5
      vertex 0.809017 -1.58779 -2
      vertex 1 -1 -2
    endloop
  endfacet
  facet normal -0.587786 0.809016 0
    outer loop
      vertex 0.309017 -1.95106 -5
      vertex 0.309017 -1.95106 -2
      vertex 0.809017 -1.58779 -5
    endloop
  endfacet
  facet normal -0.587786 0.809016 0
    outer loop
      vertex 0.809017 -1.58779 -5
      vertex 0.309017 -1.95106 -2
      vertex 0.809017 -1.58779 -2
    endloop
  endfacet
  facet normal 0 1 0
    outer loop
      vertex -0.309017 -1.95106 -5
      vertex -0.309017 -1.95106 -2
      vertex 0.309017 -1.95106 -5
    endloop
  endfacet
  facet normal 0 1 0
    outer loop
      vertex 0.309017 -1.95106 -5
      vertex -0.309017 -1.95106 -2
      vertex 0.309017 -1.95106 -2
    endloop
  endfacet
  facet normal 0 1 0
    outer loop
      vertex 0.5 3 4
      vertex 0.5 3 5
      vertex 2 3 4
    endloop
  endfacet
  facet normal 0 1 0
    outer loop
      vertex 2 3 4
      vertex 0.5 3 5
      vertex 2 3 5
    endloop
  endfacet
  facet normal -1 0 0
    outer loop
      vertex 2 3 4
      vertex 2 3 5
      vertex 2 8.5 4
    endloop
  endfacet
  facet normal -1 0 0
    outer loop
      vertex 2 8.5 4
      vertex 2 3 5
      vertex 2 8.5 5
    endloop
  endfacet
  facet normal 0.866025 -0.5 0
    outer loop
      vertex -1.1 0.905256 -2
      vertex -1.1 0.905256 5
      vertex -2.2 -1 5
    endloop
  endfacet
  facet normal 0.866025 -0.5 0
    outer loop
      vertex -2.2 -1 -2
      vertex -1.1 0.905256 -2
      vertex -2.2 -1 5
    endloop
  endfacet
  facet normal 0.866025 0.5 0
    outer loop
      vertex -2.2 -1 5
      vertex -1.1 -2.90526 5
      vertex -1.1 -2.90526 -2
    endloop
  endfacet
  facet normal 0.866025 0.5 0
    outer loop
      vertex -2.2 -1 -2
      vertex -2.2 -1 5
      vertex -1.1 -2.90526 -2
    endloop
  endfacet
  facet normal 0 1 0
    outer loop
      vertex 1.1 -2.90526 5
      vertex 1.1 -2.90526 -2
      vertex -1.1 -2.90526 5
    endloop
  endfacet
  facet normal 0 1 0
    outer loop
      vertex -1.1 -2.90526 5
      vertex 1.1 -2.90526 -2
      vertex -1.1 -2.90526 -2
    endloop
  endfacet
  facet normal -0.866025 0.5 0
    outer loop
      vertex 2.2 -1 5
      vertex 2.2 -1 -2
      vertex 1.1 -2.90526 5
    endloop
  endfacet
  facet normal -0.866025 0.5 0
    outer loop
      vertex 1.1 -2.90526 5
      vertex 2.2 -1 -2
      vertex 1.1 -2.90526 -2
    endloop
  endfacet
  facet normal -0.866025 -0.5 0
    outer loop
      vertex 2.2 -1 5
      vertex 1.1 0.905256 5
      vertex 2.2 -1 -2
    endloop
  endfacet
  facet normal -0.866025 -0.5 0
    outer loop
      vertex 2.2 -1 -2
      vertex 1.1 0.905256 5
      vertex 1.1 0.905256 -2
    endloop
  endfacet
  facet normal 0 -1 0
    outer loop
      vertex 1.1 0.905256 -2
      vertex 1.1 0.905256 5
      vertex -1.1 0.905256 5
    endloop
  endfacet
  facet normal 0 -1 0
    outer loop
      vertex -1.1 0.905256 -2
      vertex 1.1 0.905256 -2
      vertex -1.1 0.905256 5
    endloop
  endfacet
  facet normal 0 0 1
    outer loop
      vertex 0.5 7.5 -4
      vertex 0.5 3 -4
      vertex 2 3 -4
    endloop
  endfacet
  facet normal 0 0 1
    outer loop
      vertex 1.5 8.5 -4
      vertex 0.5 7.5 -4
      vertex 2 8.5 -4
    endloop
  endfacet
  facet normal 0 0 1
    outer loop
      vertex 2 8.5 -4
      vertex 0.5 7.5 -4
      vertex 2 3 -4
    endloop
  endfacet
  facet normal -0.707107 0.707107 0
    outer loop
      vertex 0.5 7.5 -5
      vertex 0.5 7.5 -4
      vertex 1.5 8.5 -5
    endloop
  endfacet
  facet normal -0.707107 0.707107 0
    outer loop
      vertex 1.5 8.5 -5
      vertex 0.5 7.5 -4
      vertex 1.5 8.5 -4
    endloop
  endfacet
  facet normal 0 0 1
    outer loop
      vertex 0.5 7.5 4
      vertex 0.5 3 4
      vertex 2 3 4
    endloop
  endfacet
  facet normal 0 0 1
    outer loop
      vertex 1.5 8.5 4
      vertex 0.5 7.5 4
      vertex 2 8.5 4
    endloop
  endfacet
  facet normal 0 0 1
    outer loop
      vertex 2 8.5 4
      vertex 0.5 7.5 4
      vertex 2 3 4
    endloop
  endfacet
  facet normal -0.707107 0.707107 0
    outer loop
      vertex 0.5 7.5 3
      vertex 0.5 7.5 4
      vertex 1.5 8.5 3
    endloop
  endfacet
  facet normal -0.707107 0.707107 0
    outer loop
      vertex 1.5 8.5 3
      vertex 0.5 7.5 4
      vertex 1.5 8.5 4
    endloop
  endfacet
  facet normal 0 0 -1
    outer loop
      vertex 0.5 3 3
      vertex 0.5 7.5 3
      vertex 2 3 3
    endloop
  endfacet
  facet normal 0 0 -1
    outer loop
      vertex 2 3 3
      vertex 0.5 7.5 3
      vertex 1.5 8.5 3
    endloop
  endfacet
  facet normal 0 0 -1
    outer loop
      vertex 2 3 3
      vertex 1.5 8.5 3
      vertex 2 8.5 3
    endloop
  endfacet
  facet normal -1 0 0
    outer loop
      vertex 2 3 2
      vertex 2 3 3
      vertex 2 8.5 2
    endloop
  endfacet
  facet normal -1 0 0
    outer loop
      vertex 2 8.5 2
      vertex 2 3 3
      vertex 2 8.5 3
    endloop
  endfacet
  facet normal 0 0 1
    outer loop
      vertex 0.5 7.5 2
      vertex 0.5 3 2
      vertex 2 3 2
    endloop
  endfacet
  facet normal 0 0 1
    outer loop
      vertex 1.5 8.5 2
      vertex 0.5 7.5 2
      vertex 2 8.5 2
    endloop
  endfacet
  facet normal 0 0 1
    outer loop
      vertex 2 8.5 2
      vertex 0.5 7.5 2
      vertex 2 3 2
    endloop
  endfacet
  facet normal -0.707107 0.707107 0
    outer loop
      vertex 0.5 7.5 1
      vertex 0.5 7.5 2
      vertex 1.5 8.5 1
    endloop
  endfacet
  facet normal -0.707107 0.707107 0
    outer loop
      vertex 1.5 8.5 1
      vertex 0.5 7.5 2
      vertex 1.5 8.5 2
    endloop
  endfacet
  facet normal 0 0 -1
    outer loop
      vertex 0.5 3 1
      vertex 0.5 7.5 1
      vertex 2 3 1
    endloop
  endfacet
  facet normal 0 0 -1
    outer loop
      vertex 2 3 1
      vertex 0.5 7.5 1
      vertex 1.5 8.5 1
    endloop
  endfacet
  facet normal 0 0 -1
    outer loop
      vertex 2 3 1
      vertex 1.5 8.5 1
      vertex 2 8.5 1
    endloop
  endfacet
  facet normal -1 0 0
    outer loop
      vertex 2 3 0
      vertex 2 3 1
      vertex 2 8.5 0
    endloop
  endfacet
  facet normal -1 0 0
    outer loop
      vertex 2 8.5 0
      vertex 2 3 1
      vertex 2 8.5 1
    endloop
  endfacet
  facet normal 0 0 1
    outer loop
      vertex 0.5 7.5 0
      vertex 0.5 3 0
      vertex 2 3 0
    endloop
  endfacet
  facet normal 0 0 1
    outer loop
      vertex 1.5 8.5 0
      vertex 0.5 7.5 0
      vertex 2 8.5 0
    endloop
  endfacet
  facet normal 0 0 1
    outer loop
      vertex 2 8.5 0
      vertex 0.5 7.5 0
      vertex 2 3 0
    endloop
  endfacet
  facet normal -0.707107 0.707107 0
    outer loop
      vertex 0.5 7.5 -1
      vertex 0.5 7.5 0
      vertex 1.5 8.5 -1
    endloop
  endfacet
  facet normal -0.707107 0.707107 0
    outer loop
      vertex 1.5 8.5 -1
      vertex 0.5 7.5 0
      vertex 1.5 8.5 0
    endloop
  endfacet
  facet normal 0 0 -1
    outer loop
      vertex 0.5 3 -1
      vertex 0.5 7.5 -1
      vertex 2 3 -1
    endloop
  endfacet
  facet normal 0 0 -1
    outer loop
      vertex 2 3 -1
      vertex 0.5 7.5 -1
      vertex 1.5 8.5 -1
    endloop
  endfacet
  facet normal 0 0 -1
    outer loop
      vertex 2 3 -1
      vertex 1.5 8.5 -1
      vertex 2 8.5 -1
    endloop
  endfacet
  facet normal -1 0 0
    outer loop
      vertex 2 3 -2
      vertex 2 3 -1
      vertex 2 8.5 -2
    endloop
  endfacet
  facet normal -1 0 0
    outer loop
      vertex 2 8.5 -2
      vertex 2 3 -1
      vertex 2 8.5 -1
    endloop
  endfacet
  facet normal 0 0 1
    outer loop
      vertex 0.5 7.5 -2
      vertex 0.5 3 -2
      vertex 2 3 -2
    endloop
  endfacet
  facet normal 0 0 1
    outer loop
      vertex 1.5 8.5 -2
      vertex 0.5 7.5 -2
      vertex 2 8.5 -2
    endloop
  endfacet
  facet normal 0 0 1
    outer loop
      vertex 2 8.5 -2
      vertex 0.5 7.5 -2
      vertex 2 3 -2
    endloop
  endfacet
  facet normal -0.707107 0.707107 0
    outer loop
      vertex 0.5 7.5 -3
      vertex 0.5 7.5 -2
      vertex 1.5 8.5 -3
    endloop
  endfacet
  facet normal -0.707107 0.707107 0
    outer loop
      vertex 1.5 8.5 -3
      vertex 0.5 7.5 -2
      vertex 1.5 8.5 -2
    endloop
  endfacet
  facet normal 0 0 -1
    outer loop
      vertex 0.5 3 -3
      vertex 0.5 7.5 -3
      vertex 2 3 -3
    endloop
  endfacet
  facet normal 0 0 -1
    outer loop
      vertex 2 3 -3
      vertex 0.5 7.5 -3
      vertex 1.5 8.5 -3
    endloop
  endfacet
  facet normal 0 0 -1
    outer loop
      vertex 2 3 -3
      vertex 1.5 8.5 -3
      vertex 2 8.5 -3
    endloop
  endfacet
  facet normal -1 0 0
    outer loop
      vertex 2 3 -4
      vertex 2 3 -3
      vertex 2 8.5 -4
    endloop
  endfacet
  facet normal -1 0 0
    outer loop
      vertex 2 8.5 -4
      vertex 2 3 -3
      vertex 2 8.5 -3
    endloop
  endfacet
  facet normal 0 1 0
    outer loop
      vertex 0.5 3 -4
      vertex 0.5 3 -3
      vertex 2 3 -4
    endloop
  endfacet
  facet normal 0 1 0
    outer loop
      vertex 2 3 -4
      vertex 0.5 3 -3
      vertex 2 3 -3
    endloop
  endfacet
  facet normal 0 1 0
    outer loop
      vertex 0.5 3 -2
      vertex 0.5 3 -1
      vertex 2 3 -2
    endloop
  endfacet
  facet normal 0 1 0
    outer loop
      vertex 2 3 -2
      vertex 0.5 3 -1
      vertex 2 3 -1
    endloop
  endfacet
  facet normal 0 1 0
    outer loop
      vertex 0.5 3 0
      vertex 0.5 3 1
      vertex 2 3 0
    endloop
  endfacet
  facet normal 0 1 0
    outer loop
      vertex 2 3 0
      vertex 0.5 3 1
      vertex 2 3 1
    endloop
  endfacet
  facet normal 0 1 0
    outer loop
      vertex 0.5 3 2
      vertex 0.5 3 3
      vertex 2 3 2
    endloop
  endfacet
  facet normal 0 1 0
    outer loop
      vertex 2 3 2
      vertex 0.5 3 3
      vertex 2 3 3
    endloop
  endfacet
  facet normal 0 0 1
    outer loop
      vertex -1.1 -2.90526 -2
      vertex 1.1 -2.90526 -2
      vertex 2.2 -1 -2
    endloop
  endfacet
  facet normal 0 0 1
    outer loop
      vertex 0.309017 -1.95106 -2
      vertex -1.1 -2.90526 -2
      vertex 2.2 -1 -2
    endloop
  endfacet
  facet normal 0 0 1
    outer loop
      vertex -2.2 -1 -2
      vertex -1.1 -2.90526 -2
      vertex -1.1 0.905256 -2
    endloop
  endfacet
  facet normal 0 0 1
    outer loop
      vertex 0.309017 -0.048943 -2
      vertex 0.809017 -0.412215 -2
      vertex 1.1 0.905256 -2
    endloop
  endfacet
  facet normal 0 0 1
    outer loop
      vertex -1.1 0.905256 -2
      vertex -1.1 -2.90526 -2
      vertex -1 -1 -2
    endloop
  endfacet
  facet normal 0 0 1
    outer loop
      vertex 0.309017 -1.95106 -2
      vertex -0.309017 -1.95106 -2
      vertex -1.1 -2.90526 -2
    endloop
  endfacet
  facet normal 0 0 1
    outer loop
      vertex -1.1 0.905256 -2
      vertex -1 -1 -2
      vertex -0.809017 -0.412215 -2
    endloop
  endfacet
  facet normal 0 0 1
    outer loop
      vertex -1.1 0.905256 -2
      vertex -0.309017 -0.048943 -2
      vertex 1.1 0.905256 -2
    endloop
  endfacet
  facet normal 0 0 1
    outer loop
      vertex -1.1 0.905256 -2
      vertex -0.809017 -0.412215 -2
      vertex -0.309017 -0.048943 -2
    endloop
  endfacet
  facet normal 0 0 1
    outer loop
      vertex 1.1 0.905256 -2
      vertex 0.809017 -0.412215 -2
      vertex 2.2 -1 -2
    endloop
  endfacet
  facet normal 0 0 1
    outer loop
      vertex 0.809017 -0.412215 -2
      vertex 1 -1 -2
      vertex 2.2 -1 -2
    endloop
  endfacet
  facet normal 0 0 1
    outer loop
      vertex 1 -1 -2
      vertex 0.809017 -1.58779 -2
      vertex 2.2 -1 -2
    endloop
  endfacet
  facet normal 0 0 1
    outer loop
      vertex 0.809017 -1.58779 -2
      vertex 0.309017 -1.95106 -2
      vertex 2.2 -1 -2
    endloop
  endfacet
  facet normal 0 0 1
    outer loop
      vertex -0.309017 -1.95106 -2
      vertex -0.809017 -1.58779 -2
      vertex -1.1 -2.90526 -2
    endloop
  endfacet
  facet normal 0 0 1
    outer loop
      vertex -1 -1 -2
      vertex -1.1 -2.90526 -2
      vertex -0.809017 -1.58779 -2
    endloop
  endfacet
  facet normal 0 0 1
    outer loop
      vertex -0.309017 -0.048943 -2
      vertex 0.309017 -0.048943 -2
      vertex 1.1 0.905256 -2
    endloop
  endfacet
  facet normal -0.916312 -0.400466 0
    outer loop
      vertex -3.80423 -1.23607 -15
      vertex -5 1.5 -15
      vertex -3.80423 -1.23607 -25
    endloop
  endfacet
  facet normal -0.916312 -0.400466 0
    outer loop
      vertex -3.80423 -1.23607 -25
      vertex -5 1.5 -15
      vertex -5 1.5 -25
    endloop
  endfacet
  facet normal 0 0 -1
    outer loop
      vertex -1.5 8.5 -25
      vertex -0.5 7.5 -25
      vertex -5 8.5 -25
    endloop
  endfacet
  facet normal 0 0 -1
    outer loop
      vertex -5 8.5 -25
      vertex -0.5 7.5 -25
      vertex -0.5 2.5 -25
    endloop
  endfacet
  facet normal 0 0 -1
    outer loop
      vertex 0.5 2.5 -25
      vertex 0.5 3 -25
      vertex 2 3 -25
    endloop
  endfacet
  facet normal 0 0 -1
    outer loop
      vertex 0.5 2.5 -25
      vertex 5 1.5 -25
      vertex -0.5 2.5 -25
    endloop
  endfacet
  facet normal 0 0 -1
    outer loop
      vertex 2 3 -25
      vertex 2 8.5 -25
      vertex 5 8.5 -25
    endloop
  endfacet
  facet normal 0 0 -1
    outer loop
      vertex 2 3 -25
      vertex 5 8.5 -25
      vertex 5 1.5 -25
    endloop
  endfacet
  facet normal 0 0 -1
    outer loop
      vertex 2 3 -25
      vertex 5 1.5 -25
      vertex 0.5 2.5 -25
    endloop
  endfacet
  facet normal 0 0 -1
    outer loop
      vertex -0.5 2.5 -25
      vertex 5 1.5 -25
      vertex 3.80423 -1.23607 -25
    endloop
  endfacet
  facet normal 0 0 -1
    outer loop
      vertex 1.90211 -0.381966 -25
      vertex 3.80423 -1.23607 -25
      vertex 3.23607 -2.35114 -25
    endloop
  endfacet
  facet normal 0 0 -1
    outer loop
      vertex 1.90211 -1.61803 -25
      vertex 3.23607 -2.35114 -25
      vertex 2.35114 -3.23607 -25
    endloop
  endfacet
  facet normal 0 0 -1
    outer loop
      vertex 1.17557 -2.61803 -25
      vertex 2.35114 -3.23607 -25
      vertex 1.23607 -3.80423 -25
    endloop
  endfacet
  facet normal 0 0 -1
    outer loop
      vertex 0 -3 -25
      vertex 1.23607 -3.80423 -25
      vertex 0 -4 -25
    endloop
  endfacet
  facet normal 0 0 -1
    outer loop
      vertex -1.61803 -2.17557 -25
      vertex 0 -4 -25
      vertex -1.23607 -3.80423 -25
    endloop
  endfacet
  facet normal 0 0 -1
    outer loop
      vertex -5 8.5 -25
      vertex -1.23607 -3.80423 -25
      vertex -2.35114 -3.23607 -25
    endloop
  endfacet
  facet normal 0 0 -1
    outer loop
      vertex -5 8.5 -25
      vertex -2.35114 -3.23607 -25
      vertex -3.23607 -2.35114 -25
    endloop
  endfacet
  facet normal 0 0 -1
    outer loop
      vertex -5 8.5 -25
      vertex -3.23607 -2.35114 -25
      vertex -3.80423 -1.23607 -25
    endloop
  endfacet
  facet normal 0 0 -1
    outer loop
      vertex -5 8.5 -25
      vertex -3.80423 -1.23607 -25
      vertex -5 1.5 -25
    endloop
  endfacet
  facet normal 0 0 -1
    outer loop
      vertex 0 -3 -25
      vertex 0 -4 -25
      vertex -0.618034 -2.90211 -25
    endloop
  endfacet
  facet normal 0 0 -1
    outer loop
      vertex -5 8.5 -25
      vertex -1.90211 -1.61803 -25
      vertex -1.23607 -3.80423 -25
    endloop
  endfacet
  facet normal 0 0 -1
    outer loop
      vertex -1.17557 -2.61803 -25
      vertex 0 -4 -25
      vertex -1.61803 -2.17557 -25
    endloop
  endfacet
  facet normal 0 0 -1
    outer loop
      vertex -1.90211 -1.61803 -25
      vertex -1.61803 -2.17557 -25
      vertex -1.23607 -3.80423 -25
    endloop
  endfacet
  facet normal 0 0 -1
    outer loop
      vertex -0.618034 0.902113 -25
      vertex -5 8.5 -25
      vertex 0 1 -25
    endloop
  endfacet
  facet normal 0 0 -1
    outer loop
      vertex 0.618034 -2.90211 -25
      vertex 1.23607 -3.80423 -25
      vertex 0 -3 -25
    endloop
  endfacet
  facet normal 0 0 -1
    outer loop
      vertex 1.17557 -2.61803 -25
      vertex 1.23607 -3.80423 -25
      vertex 0.618034 -2.90211 -25
    endloop
  endfacet
  facet normal 0 0 -1
    outer loop
      vertex 1.61803 -2.17557 -25
      vertex 2.35114 -3.23607 -25
      vertex 1.17557 -2.61803 -25
    endloop
  endfacet
  facet normal 0 0 -1
    outer loop
      vertex 1.90211 -1.61803 -25
      vertex 2.35114 -3.23607 -25
      vertex 1.61803 -2.17557 -25
    endloop
  endfacet
  facet normal 0 0 -1
    outer loop
      vertex 2 -1 -25
      vertex 3.23607 -2.35114 -25
      vertex 1.90211 -1.61803 -25
    endloop
  endfacet
  facet normal 0 0 -1
    outer loop
      vertex 1.90211 -0.381966 -25
      vertex 3.23607 -2.35114 -25
      vertex 2 -1 -25
    endloop
  endfacet
  facet normal 0 0 -1
    outer loop
      vertex 1.61803 0.175571 -25
      vertex 3.80423 -1.23607 -25
      vertex 1.90211 -0.381966 -25
    endloop
  endfacet
  facet normal 0 0 -1
    outer loop
      vertex 0.618034 0.902113 -25
      vertex -0.5 2.5 -25
      vertex 1.17557 0.618034 -25
    endloop
  endfacet
  facet normal 0 0 -1
    outer loop
      vertex -0.5 2.5 -25
      vertex 3.80423 -1.23607 -25
      vertex 1.61803 0.175571 -25
    endloop
  endfacet
  facet normal 0 0 -1
    outer loop
      vertex -0.5 2.5 -25
      vertex 1.61803 0.175571 -25
      vertex 1.17557 0.618034 -25
    endloop
  endfacet
  facet normal 0 0 -1
    outer loop
      vertex 0 1 -25
      vertex -0.5 2.5 -25
      vertex 0.618034 0.902113 -25
    endloop
  endfacet
  facet normal 0 0 -1
    outer loop
      vertex -0.5 2.5 -25
      vertex 0 1 -25
      vertex -5 8.5 -25
    endloop
  endfacet
  facet normal 0 0 -1
    outer loop
      vertex -1.17557 0.618034 -25
      vertex -5 8.5 -25
      vertex -0.618034 0.902113 -25
    endloop
  endfacet
  facet normal 0 0 -1
    outer loop
      vertex -1.61803 0.175571 -25
      vertex -5 8.5 -25
      vertex -1.17557 0.618034 -25
    endloop
  endfacet
  facet normal 0 0 -1
    outer loop
      vertex -1.90211 -0.381966 -25
      vertex -5 8.5 -25
      vertex -1.61803 0.175571 -25
    endloop
  endfacet
  facet normal 0 0 -1
    outer loop
      vertex -5 8.5 -25
      vertex -1.90211 -0.381966 -25
      vertex -2 -1 -25
    endloop
  endfacet
  facet normal 0 0 -1
    outer loop
      vertex -5 8.5 -25
      vertex -2 -1 -25
      vertex -1.90211 -1.61803 -25
    endloop
  endfacet
  facet normal 0 0 -1
    outer loop
      vertex -0.618034 -2.90211 -25
      vertex 0 -4 -25
      vertex -1.17557 -2.61803 -25
    endloop
  endfacet
  facet normal -1 0 0
    outer loop
      vertex -5 8.5 -15
      vertex -5 8.5 -25
      vertex -5 1.5 -15
    endloop
  endfacet
  facet normal -1 0 0
    outer loop
      vertex -5 1.5 -15
      vertex -5 8.5 -25
      vertex -5 1.5 -25
    endloop
  endfacet
  facet normal -0.891007 -0.45399 0
    outer loop
      vertex -3.23607 -2.35114 -15
      vertex -3.80423 -1.23607 -15
      vertex -3.23607 -2.35114 -25
    endloop
  endfacet
  facet normal -0.891007 -0.45399 0
    outer loop
      vertex -3.23607 -2.35114 -25
      vertex -3.80423 -1.23607 -15
      vertex -3.80423 -1.23607 -25
    endloop
  endfacet
  facet normal 0 0 1
    outer loop
      vertex -3.80423 -1.23607 -15
      vertex -3.23607 -2.35114 -15
      vertex -2.35114 -3.23607 -15
    endloop
  endfacet
  facet normal 0 0 1
    outer loop
      vertex 0 -4 -15
      vertex -3.80423 -1.23607 -15
      vertex -1.23607 -3.80423 -15
    endloop
  endfacet
  facet normal 0 0 1
    outer loop
      vertex -1.23607 -3.80423 -15
      vertex -3.80423 -1.23607 -15
      vertex -2.35114 -3.23607 -15
    endloop
  endfacet
  facet normal 0 0 1
    outer loop
      vertex 1.23607 -3.80423 -15
      vertex -3.80423 -1.23607 -15
      vertex 0 -4 -15
    endloop
  endfacet
  facet normal 0 0 1
    outer loop
      vertex 2.35114 -3.23607 -15
      vertex -3.80423 -1.23607 -15
      vertex 1.23607 -3.80423 -15
    endloop
  endfacet
  facet normal 0 0 1
    outer loop
      vertex -0.309017 -1.95106 -15
      vertex -3.80423 -1.23607 -15
      vertex 2.35114 -3.23607 -15
    endloop
  endfacet
  facet normal 0 0 1
    outer loop
      vertex -0.309017 -1.95106 -15
      vertex -0.809017 -1.58779 -15
      vertex -3.80423 -1.23607 -15
    endloop
  endfacet
  facet normal 0 0 1
    outer loop
      vertex 0.309017 -0.048943 -15
      vertex 0.809017 -0.412215 -15
      vertex 5 1.5 -15
    endloop
  endfacet
  facet normal 0 0 1
    outer loop
      vertex -0.809017 -1.58779 -15
      vertex -1 -1 -15
      vertex -3.80423 -1.23607 -15
    endloop
  endfacet
  facet normal 0 0 1
    outer loop
      vertex 5 8.5 -15
      vertex 2 3 -15
      vertex 5 1.5 -15
    endloop
  endfacet
  facet normal 0 0 1
    outer loop
      vertex 0.5 2.5 -15
      vertex -3.80423 -1.23607 -15
      vertex 2 3 -15
    endloop
  endfacet
  facet normal 0 0 1
    outer loop
      vertex 0.5 2.5 -15
      vertex -0.5 2.5 -15
      vertex -3.80423 -1.23607 -15
    endloop
  endfacet
  facet normal 0 0 1
    outer loop
      vertex 0.5 3 -15
      vertex 0.5 2.5 -15
      vertex 2 3 -15
    endloop
  endfacet
  facet normal 0 0 1
    outer loop
      vertex -0.5 2.5 -15
      vertex -0.5 7.5 -15
      vertex -3.80423 -1.23607 -15
    endloop
  endfacet
  facet normal 0 0 1
    outer loop
      vertex -1.5 8.5 -15
      vertex -3.80423 -1.23607 -15
      vertex -0.5 7.5 -15
    endloop
  endfacet
  facet normal 0 0 1
    outer loop
      vertex -5 8.5 -15
      vertex -3.80423 -1.23607 -15
      vertex -1.5 8.5 -15
    endloop
  endfacet
  facet normal 0 0 1
    outer loop
      vertex -5 1.5 -15
      vertex -3.80423 -1.23607 -15
      vertex -5 8.5 -15
    endloop
  endfacet
  facet normal 0 0 1
    outer loop
      vertex -0.809017 -0.412215 -15
      vertex -3.80423 -1.23607 -15
      vertex -1 -1 -15
    endloop
  endfacet
  facet normal 0 0 1
    outer loop
      vertex -0.309017 -0.048943 -15
      vertex 0.309017 -0.048943 -15
      vertex 5 1.5 -15
    endloop
  endfacet
  facet normal 0 0 1
    outer loop
      vertex 2 3 -15
      vertex -0.309017 -0.048943 -15
      vertex 5 1.5 -15
    endloop
  endfacet
  facet normal 0 0 1
    outer loop
      vertex 2 3 -15
      vertex -3.80423 -1.23607 -15
      vertex -0.309017 -0.048943 -15
    endloop
  endfacet
  facet normal 0 0 1
    outer loop
      vertex 1 -1 -15
      vertex 0.809017 -1.58779 -15
      vertex 3.80423 -1.23607 -15
    endloop
  endfacet
  facet normal 0 0 1
    outer loop
      vertex 5 1.5 -15
      vertex 0.809017 -0.412215 -15
      vertex 3.80423 -1.23607 -15
    endloop
  endfacet
  facet normal 0 0 1
    outer loop
      vertex 0.809017 -0.412215 -15
      vertex 1 -1 -15
      vertex 3.80423 -1.23607 -15
    endloop
  endfacet
  facet normal 0 0 1
    outer loop
      vertex 3.80423 -1.23607 -15
      vertex 0.809017 -1.58779 -15
      vertex 3.23607 -2.35114 -15
    endloop
  endfacet
  facet normal 0 0 1
    outer loop
      vertex -0.809017 -0.412215 -15
      vertex -0.309017 -0.048943 -15
      vertex -3.80423 -1.23607 -15
    endloop
  endfacet
  facet normal 0 0 1
    outer loop
      vertex 3.23607 -2.35114 -15
      vertex 0.309017 -1.95106 -15
      vertex 2.35114 -3.23607 -15
    endloop
  endfacet
  facet normal 0 0 1
    outer loop
      vertex 0.309017 -1.95106 -15
      vertex -0.309017 -1.95106 -15
      vertex 2.35114 -3.23607 -15
    endloop
  endfacet
  facet normal 0 0 1
    outer loop
      vertex 0.809017 -1.58779 -15
      vertex 0.309017 -1.95106 -15
      vertex 3.23607 -2.35114 -15
    endloop
  endfacet
  facet normal 0 0 1
    outer loop
      vertex 2 8.5 -15
      vertex 2 3 -15
      vertex 5 8.5 -15
    endloop
  endfacet
  facet normal 0 1 0
    outer loop
      vertex -1.5 8.5 -15
      vertex -1.5 8.5 -25
      vertex -5 8.5 -15
    endloop
  endfacet
  facet normal 0 1 0
    outer loop
      vertex -5 8.5 -15
      vertex -1.5 8.5 -25
      vertex -5 8.5 -25
    endloop
  endfacet
  facet normal -0.707107 -0.707107 0
    outer loop
      vertex -2.35114 -3.23607 -25
      vertex -2.35114 -3.23607 -15
      vertex -3.23607 -2.35114 -15
    endloop
  endfacet
  facet normal -0.707107 -0.707107 0
    outer loop
      vertex -3.23607 -2.35114 -25
      vertex -2.35114 -3.23607 -25
      vertex -3.23607 -2.35114 -15
    endloop
  endfacet
  facet normal -0.45399 -0.891007 0
    outer loop
      vertex -1.23607 -3.80423 -25
      vertex -1.23607 -3.80423 -15
      vertex -2.35114 -3.23607 -15
    endloop
  endfacet
  facet normal -0.45399 -0.891007 0
    outer loop
      vertex -2.35114 -3.23607 -25
      vertex -1.23607 -3.80423 -25
      vertex -2.35114 -3.23607 -15
    endloop
  endfacet
  facet normal -0.156435 -0.987688 0
    outer loop
      vertex 0 -4 -25
      vertex 0 -4 -15
      vertex -1.23607 -3.80423 -15
    endloop
  endfacet
  facet normal -0.156435 -0.987688 0
    outer loop
      vertex -1.23607 -3.80423 -25
      vertex 0 -4 -25
      vertex -1.23607 -3.80423 -15
    endloop
  endfacet
  facet normal 0.156435 -0.987688 0
    outer loop
      vertex 1.23607 -3.80423 -25
      vertex 1.23607 -3.80423 -15
      vertex 0 -4 -15
    endloop
  endfacet
  facet normal 0.156435 -0.987688 0
    outer loop
      vertex 0 -4 -25
      vertex 1.23607 -3.80423 -25
      vertex 0 -4 -15
    endloop
  endfacet
  facet normal 0.45399 -0.891007 0
    outer loop
      vertex 2.35114 -3.23607 -25
      vertex 2.35114 -3.23607 -15
      vertex 1.23607 -3.80423 -15
    endloop
  endfacet
  facet normal 0.45399 -0.891007 0
    outer loop
      vertex 1.23607 -3.80423 -25
      vertex 2.35114 -3.23607 -25
      vertex 1.23607 -3.80423 -15
    endloop
  endfacet
  facet normal 0.707107 -0.707107 0
    outer loop
      vertex 3.23607 -2.35114 -25
      vertex 3.23607 -2.35114 -15
      vertex 2.35114 -3.23607 -15
    endloop
  endfacet
  facet normal 0.707107 -0.707107 0
    outer loop
      vertex 2.35114 -3.23607 -25
      vertex 3.23607 -2.35114 -25
      vertex 2.35114 -3.23607 -15
    endloop
  endfacet
  facet normal 0.891007 -0.45399 0
    outer loop
      vertex 3.80423 -1.23607 -25
      vertex 3.80423 -1.23607 -15
      vertex 3.23607 -2.35114 -15
    endloop
  endfacet
  facet normal 0.891007 -0.45399 0
    outer loop
      vertex 3.23607 -2.35114 -25
      vertex 3.80423 -1.23607 -25
      vertex 3.23607 -2.35114 -15
    endloop
  endfacet
  facet normal 0.916312 -0.400466 0
    outer loop
      vertex 5 1.5 -25
      vertex 5 1.5 -15
      vertex 3.80423 -1.23607 -15
    endloop
  endfacet
  facet normal 0.916312 -0.400466 0
    outer loop
      vertex 3.80423 -1.23607 -25
      vertex 5 1.5 -25
      vertex 3.80423 -1.23607 -15
    endloop
  endfacet
  facet normal 1 0 0
    outer loop
      vertex 5 8.5 -25
      vertex 5 8.5 -15
      vertex 5 1.5 -15
    endloop
  endfacet
  facet normal 1 0 0
    outer loop
      vertex 5 1.5 -25
      vertex 5 8.5 -25
      vertex 5 1.5 -15
    endloop
  endfacet
  facet normal 0 1 0
    outer loop
      vertex 1.5 8.5 -22
      vertex 2 8.5 -23
      vertex 1.5 8.5 -23
    endloop
  endfacet
  facet normal 0 1 0
    outer loop
      vertex 2 8.5 -22
      vertex 2 8.5 -23
      vertex 1.5 8.5 -22
    endloop
  endfacet
  facet normal 0 1 0
    outer loop
      vertex 2 8.5 -24
      vertex 2 8.5 -23
      vertex 5 8.5 -15
    endloop
  endfacet
  facet normal 0 1 0
    outer loop
      vertex 2 8.5 -23
      vertex 2 8.5 -22
      vertex 5 8.5 -15
    endloop
  endfacet
  facet normal 0 1 0
    outer loop
      vertex 1.5 8.5 -20
      vertex 2 8.5 -21
      vertex 1.5 8.5 -21
    endloop
  endfacet
  facet normal 0 1 0
    outer loop
      vertex 2 8.5 -20
      vertex 2 8.5 -21
      vertex 1.5 8.5 -20
    endloop
  endfacet
  facet normal 0 1 0
    outer loop
      vertex 2 8.5 -22
      vertex 2 8.5 -21
      vertex 5 8.5 -15
    endloop
  endfacet
  facet normal 0 1 0
    outer loop
      vertex 2 8.5 -21
      vertex 2 8.5 -20
      vertex 5 8.5 -15
    endloop
  endfacet
  facet normal 0 1 0
    outer loop
      vertex 1.5 8.5 -18
      vertex 2 8.5 -19
      vertex 1.5 8.5 -19
    endloop
  endfacet
  facet normal 0 1 0
    outer loop
      vertex 2 8.5 -18
      vertex 2 8.5 -19
      vertex 1.5 8.5 -18
    endloop
  endfacet
  facet normal 0 1 0
    outer loop
      vertex 2 8.5 -20
      vertex 2 8.5 -19
      vertex 5 8.5 -15
    endloop
  endfacet
  facet normal 0 1 0
    outer loop
      vertex 2 8.5 -19
      vertex 2 8.5 -18
      vertex 5 8.5 -15
    endloop
  endfacet
  facet normal 0 1 0
    outer loop
      vertex 1.5 8.5 -16
      vertex 2 8.5 -17
      vertex 1.5 8.5 -17
    endloop
  endfacet
  facet normal 0 1 0
    outer loop
      vertex 2 8.5 -16
      vertex 2 8.5 -17
      vertex 1.5 8.5 -16
    endloop
  endfacet
  facet normal 0 1 0
    outer loop
      vertex 2 8.5 -18
      vertex 2 8.5 -17
      vertex 5 8.5 -15
    endloop
  endfacet
  facet normal 0 1 0
    outer loop
      vertex 5 8.5 -15
      vertex 2 8.5 -16
      vertex 2 8.5 -15
    endloop
  endfacet
  facet normal 0 1 0
    outer loop
      vertex 2 8.5 -17
      vertex 2 8.5 -16
      vertex 5 8.5 -15
    endloop
  endfacet
  facet normal 0 1 0
    outer loop
      vertex 2 8.5 -24
      vertex 5 8.5 -15
      vertex 5 8.5 -25
    endloop
  endfacet
  facet normal 0 1 0
    outer loop
      vertex 2 8.5 -24
      vertex 5 8.5 -25
      vertex 1.5 8.5 -24
    endloop
  endfacet
  facet normal 0 1 0
    outer loop
      vertex 5 8.5 -25
      vertex 2 8.5 -25
      vertex 1.5 8.5 -24
    endloop
  endfacet
  facet normal 0 1 0
    outer loop
      vertex 2 8.5 -25
      vertex 1.5 8.5 -25
      vertex 1.5 8.5 -24
    endloop
  endfacet
  facet normal 0 0 -1
    outer loop
      vertex 1.5 8.5 -25
      vertex 2 8.5 -25
      vertex 0.5 7.5 -25
    endloop
  endfacet
  facet normal 0 0 -1
    outer loop
      vertex 0.5 7.5 -25
      vertex 2 8.5 -25
      vertex 2 3 -25
    endloop
  endfacet
  facet normal 0 0 -1
    outer loop
      vertex 0.5 7.5 -25
      vertex 2 3 -25
      vertex 0.5 3 -25
    endloop
  endfacet
  facet normal -1 0 0
    outer loop
      vertex 0.5 2.5 -25
      vertex 0.5 2.5 -15
      vertex 0.5 3 -25
    endloop
  endfacet
  facet normal -1 0 0
    outer loop
      vertex 0.5 3 -16
      vertex 0.5 2.5 -15
      vertex 0.5 3 -15
    endloop
  endfacet
  facet normal -1 0 0
    outer loop
      vertex 0.5 3 -25
      vertex 0.5 2.5 -15
      vertex 0.5 3 -24
    endloop
  endfacet
  facet normal -1 0 0
    outer loop
      vertex 0.5 3 -16
      vertex 0.5 7.5 -16
      vertex 0.5 3 -17
    endloop
  endfacet
  facet normal -1 0 0
    outer loop
      vertex 0.5 3 -16
      vertex 0.5 3 -17
      vertex 0.5 2.5 -15
    endloop
  endfacet
  facet normal -1 0 0
    outer loop
      vertex 0.5 3 -17
      vertex 0.5 3 -18
      vertex 0.5 2.5 -15
    endloop
  endfacet
  facet normal -1 0 0
    outer loop
      vertex 0.5 3 -19
      vertex 0.5 7.5 -18
      vertex 0.5 7.5 -19
    endloop
  endfacet
  facet normal -1 0 0
    outer loop
      vertex 0.5 7.5 -20
      vertex 0.5 3 -21
      vertex 0.5 3 -20
    endloop
  endfacet
  facet normal -1 0 0
    outer loop
      vertex 0.5 3 -18
      vertex 0.5 3 -19
      vertex 0.5 2.5 -15
    endloop
  endfacet
  facet normal -1 0 0
    outer loop
      vertex 0.5 3 -19
      vertex 0.5 3 -20
      vertex 0.5 2.5 -15
    endloop
  endfacet
  facet normal -1 0 0
    outer loop
      vertex 0.5 3 -21
      vertex 0.5 7.5 -20
      vertex 0.5 7.5 -21
    endloop
  endfacet
  facet normal -1 0 0
    outer loop
      vertex 0.5 7.5 -24
      vertex 0.5 3 -25
      vertex 0.5 3 -24
    endloop
  endfacet
  facet normal -1 0 0
    outer loop
      vertex 0.5 3 -20
      vertex 0.5 3 -21
      vertex 0.5 2.5 -15
    endloop
  endfacet
  facet normal -1 0 0
    outer loop
      vertex 0.5 7.5 -22
      vertex 0.5 3 -23
      vertex 0.5 3 -22
    endloop
  endfacet
  facet normal -1 0 0
    outer loop
      vertex 0.5 3 -21
      vertex 0.5 3 -22
      vertex 0.5 2.5 -15
    endloop
  endfacet
  facet normal -1 0 0
    outer loop
      vertex 0.5 3 -23
      vertex 0.5 7.5 -22
      vertex 0.5 7.5 -23
    endloop
  endfacet
  facet normal -1 0 0
    outer loop
      vertex 0.5 3 -22
      vertex 0.5 3 -23
      vertex 0.5 2.5 -15
    endloop
  endfacet
  facet normal -1 0 0
    outer loop
      vertex 0.5 7.5 -18
      vertex 0.5 3 -19
      vertex 0.5 3 -18
    endloop
  endfacet
  facet normal -1 0 0
    outer loop
      vertex 0.5 3 -23
      vertex 0.5 3 -24
      vertex 0.5 2.5 -15
    endloop
  endfacet
  facet normal -1 0 0
    outer loop
      vertex 0.5 3 -25
      vertex 0.5 7.5 -24
      vertex 0.5 7.5 -25
    endloop
  endfacet
  facet normal -1 0 0
    outer loop
      vertex 0.5 3 -17
      vertex 0.5 7.5 -16
      vertex 0.5 7.5 -17
    endloop
  endfacet
  facet normal 0 1 0
    outer loop
      vertex -0.5 2.5 -25
      vertex -0.5 2.5 -15
      vertex 0.5 2.5 -25
    endloop
  endfacet
  facet normal 0 1 0
    outer loop
      vertex 0.5 2.5 -25
      vertex -0.5 2.5 -15
      vertex 0.5 2.5 -15
    endloop
  endfacet
  facet normal 1 0 0
    outer loop
      vertex -0.5 2.5 -15
      vertex -0.5 2.5 -25
      vertex -0.5 7.5 -25
    endloop
  endfacet
  facet normal 1 0 0
    outer loop
      vertex -0.5 7.5 -15
      vertex -0.5 2.5 -15
      vertex -0.5 7.5 -25
    endloop
  endfacet
  facet normal 0.707107 0.707107 0
    outer loop
      vertex -1.5 8.5 -25
      vertex -1.5 8.5 -15
      vertex -0.5 7.5 -25
    endloop
  endfacet
  facet normal 0.707107 0.707107 0
    outer loop
      vertex -0.5 7.5 -25
      vertex -1.5 8.5 -15
      vertex -0.5 7.5 -15
    endloop
  endfacet
  facet normal 0.891007 0.45399 0
    outer loop
      vertex -1.90211 -1.61803 -18
      vertex -1.61803 -2.17557 -18
      vertex -1.61803 -2.17557 -25
    endloop
  endfacet
  facet normal 0.891007 0.45399 0
    outer loop
      vertex -1.90211 -1.61803 -25
      vertex -1.90211 -1.61803 -18
      vertex -1.61803 -2.17557 -25
    endloop
  endfacet
  facet normal 0.987688 0.156435 0
    outer loop
      vertex -2 -1 -18
      vertex -1.90211 -1.61803 -18
      vertex -1.90211 -1.61803 -25
    endloop
  endfacet
  facet normal 0.987688 0.156435 0
    outer loop
      vertex -2 -1 -25
      vertex -2 -1 -18
      vertex -1.90211 -1.61803 -25
    endloop
  endfacet
  facet normal 0.987688 -0.156435 0
    outer loop
      vertex -1.90211 -0.381966 -25
      vertex -1.90211 -0.381966 -18
      vertex -2 -1 -18
    endloop
  endfacet
  facet normal 0.987688 -0.156435 0
    outer loop
      vertex -2 -1 -25
      vertex -1.90211 -0.381966 -25
      vertex -2 -1 -18
    endloop
  endfacet
  facet normal 0.891007 -0.45399 0
    outer loop
      vertex -1.61803 0.175571 -25
      vertex -1.61803 0.175571 -18
      vertex -1.90211 -0.381966 -18
    endloop
  endfacet
  facet normal 0.891007 -0.45399 0
    outer loop
      vertex -1.90211 -0.381966 -25
      vertex -1.61803 0.175571 -25
      vertex -1.90211 -0.381966 -18
    endloop
  endfacet
  facet normal 0.707107 -0.707107 0
    outer loop
      vertex -1.17557 0.618034 -25
      vertex -1.17557 0.618034 -18
      vertex -1.61803 0.175571 -18
    endloop
  endfacet
  facet normal 0.707107 -0.707107 0
    outer loop
      vertex -1.61803 0.175571 -25
      vertex -1.17557 0.618034 -25
      vertex -1.61803 0.175571 -18
    endloop
  endfacet
  facet normal 0.45399 -0.891007 0
    outer loop
      vertex -0.618034 0.902113 -25
      vertex -0.618034 0.902113 -18
      vertex -1.17557 0.618034 -18
    endloop
  endfacet
  facet normal 0.45399 -0.891007 0
    outer loop
      vertex -1.17557 0.618034 -25
      vertex -0.618034 0.902113 -25
      vertex -1.17557 0.618034 -18
    endloop
  endfacet
  facet normal 0.156435 -0.987688 0
    outer loop
      vertex 0 1 -25
      vertex 0 1 -18
      vertex -0.618034 0.902113 -18
    endloop
  endfacet
  facet normal 0.156435 -0.987688 0
    outer loop
      vertex -0.618034 0.902113 -25
      vertex 0 1 -25
      vertex -0.618034 0.902113 -18
    endloop
  endfacet
  facet normal -0.156435 -0.987688 0
    outer loop
      vertex 0.618034 0.902113 -25
      vertex 0.618034 0.902113 -18
      vertex 0 1 -18
    endloop
  endfacet
  facet normal -0.156435 -0.987688 0
    outer loop
      vertex 0 1 -25
      vertex 0.618034 0.902113 -25
      vertex 0 1 -18
    endloop
  endfacet
  facet normal -0.45399 -0.891007 0
    outer loop
      vertex 1.17557 0.618034 -25
      vertex 1.17557 0.618034 -18
      vertex 0.618034 0.902113 -18
    endloop
  endfacet
  facet normal -0.45399 -0.891007 0
    outer loop
      vertex 0.618034 0.902113 -25
      vertex 1.17557 0.618034 -25
      vertex 0.618034 0.902113 -18
    endloop
  endfacet
  facet normal -0.707107 -0.707107 0
    outer loop
      vertex 1.61803 0.175571 -25
      vertex 1.61803 0.175571 -18
      vertex 1.17557 0.618034 -18
    endloop
  endfacet
  facet normal -0.707107 -0.707107 0
    outer loop
      vertex 1.17557 0.618034 -25
      vertex 1.61803 0.175571 -25
      vertex 1.17557 0.618034 -18
    endloop
  endfacet
  facet normal -0.891007 -0.45399 0
    outer loop
      vertex 1.90211 -0.381966 -18
      vertex 1.61803 0.175571 -18
      vertex 1.90211 -0.381966 -25
    endloop
  endfacet
  facet normal -0.891007 -0.45399 0
    outer loop
      vertex 1.90211 -0.381966 -25
      vertex 1.61803 0.175571 -18
      vertex 1.61803 0.175571 -25
    endloop
  endfacet
  facet normal -0.987688 -0.156435 0
    outer loop
      vertex 2 -1 -18
      vertex 1.90211 -0.381966 -18
      vertex 2 -1 -25
    endloop
  endfacet
  facet normal -0.987688 -0.156435 0
    outer loop
      vertex 2 -1 -25
      vertex 1.90211 -0.381966 -18
      vertex 1.90211 -0.381966 -25
    endloop
  endfacet
  facet normal -0.987688 0.156435 0
    outer loop
      vertex 2 -1 -18
      vertex 2 -1 -25
      vertex 1.90211 -1.61803 -18
    endloop
  endfacet
  facet normal -0.987688 0.156435 0
    outer loop
      vertex 1.90211 -1.61803 -18
      vertex 2 -1 -25
      vertex 1.90211 -1.61803 -25
    endloop
  endfacet
  facet normal -0.891007 0.45399 0
    outer loop
      vertex 1.90211 -1.61803 -18
      vertex 1.90211 -1.61803 -25
      vertex 1.61803 -2.17557 -18
    endloop
  endfacet
  facet normal -0.891007 0.45399 0
    outer loop
      vertex 1.61803 -2.17557 -18
      vertex 1.90211 -1.61803 -25
      vertex 1.61803 -2.17557 -25
    endloop
  endfacet
  facet normal -0.707107 0.707107 0
    outer loop
      vertex 1.61803 -2.17557 -18
      vertex 1.61803 -2.17557 -25
      vertex 1.17557 -2.61803 -18
    endloop
  endfacet
  facet normal -0.707107 0.707107 0
    outer loop
      vertex 1.17557 -2.61803 -18
      vertex 1.61803 -2.17557 -25
      vertex 1.17557 -2.61803 -25
    endloop
  endfacet
  facet normal -0.45399 0.891007 0
    outer loop
      vertex 1.17557 -2.61803 -18
      vertex 1.17557 -2.61803 -25
      vertex 0.618034 -2.90211 -18
    endloop
  endfacet
  facet normal -0.45399 0.891007 0
    outer loop
      vertex 0.618034 -2.90211 -18
      vertex 1.17557 -2.61803 -25
      vertex 0.618034 -2.90211 -25
    endloop
  endfacet
  facet normal -0.156435 0.987688 0
    outer loop
      vertex 0.618034 -2.90211 -18
      vertex 0.618034 -2.90211 -25
      vertex 0 -3 -18
    endloop
  endfacet
  facet normal -0.156435 0.987688 0
    outer loop
      vertex 0 -3 -18
      vertex 0.618034 -2.90211 -25
      vertex 0 -3 -25
    endloop
  endfacet
  facet normal 0.156435 0.987688 0
    outer loop
      vertex 0 -3 -18
      vertex 0 -3 -25
      vertex -0.618034 -2.90211 -18
    endloop
  endfacet
  facet normal 0.156435 0.987688 0
    outer loop
      vertex -0.618034 -2.90211 -18
      vertex 0 -3 -25
      vertex -0.618034 -2.90211 -25
    endloop
  endfacet
  facet normal 0.45399 0.891007 0
    outer loop
      vertex -0.618034 -2.90211 -18
      vertex -0.618034 -2.90211 -25
      vertex -1.17557 -2.61803 -18
    endloop
  endfacet
  facet normal 0.45399 0.891007 0
    outer loop
      vertex -1.17557 -2.61803 -18
      vertex -0.618034 -2.90211 -25
      vertex -1.17557 -2.61803 -25
    endloop
  endfacet
  facet normal 0.707107 0.707107 0
    outer loop
      vertex -1.17557 -2.61803 -18
      vertex -1.17557 -2.61803 -25
      vertex -1.61803 -2.17557 -18
    endloop
  endfacet
  facet normal 0.707107 0.707107 0
    outer loop
      vertex -1.61803 -2.17557 -18
      vertex -1.17557 -2.61803 -25
      vertex -1.61803 -2.17557 -25
    endloop
  endfacet
  facet normal 0 1 0
    outer loop
      vertex 0.5 3 -16
      vertex 0.5 3 -15
      vertex 2 3 -16
    endloop
  endfacet
  facet normal 0 1 0
    outer loop
      vertex 2 3 -16
      vertex 0.5 3 -15
      vertex 2 3 -15
    endloop
  endfacet
  facet normal -1 0 0
    outer loop
      vertex 2 3 -16
      vertex 2 3 -15
      vertex 2 8.5 -16
    endloop
  endfacet
  facet normal -1 0 0
    outer loop
      vertex 2 8.5 -16
      vertex 2 3 -15
      vertex 2 8.5 -15
    endloop
  endfacet
  facet normal 0.951056 0.309017 0
    outer loop
      vertex -0.809017 -1.58779 -18
      vertex -1 -1 -18
      vertex -1 -1 -15
    endloop
  endfacet
  facet normal 0.951056 0.309017 0
    outer loop
      vertex -0.809017 -1.58779 -15
      vertex -0.809017 -1.58779 -18
      vertex -1 -1 -15
    endloop
  endfacet
  facet normal 0.951056 -0.309017 0
    outer loop
      vertex -1 -1 -15
      vertex -1 -1 -18
      vertex -0.809017 -0.412215 -18
    endloop
  endfacet
  facet normal 0.951056 -0.309017 0
    outer loop
      vertex -0.809017 -0.412215 -15
      vertex -1 -1 -15
      vertex -0.809017 -0.412215 -18
    endloop
  endfacet
  facet normal 0.587786 0.809016 0
    outer loop
      vertex -0.809017 -1.58779 -18
      vertex -0.809017 -1.58779 -15
      vertex -0.309017 -1.95106 -18
    endloop
  endfacet
  facet normal 0.587786 0.809016 0
    outer loop
      vertex -0.309017 -1.95106 -18
      vertex -0.809017 -1.58779 -15
      vertex -0.309017 -1.95106 -15
    endloop
  endfacet
  facet normal 0 1 0
    outer loop
      vertex -0.309017 -1.95106 -18
      vertex -0.309017 -1.95106 -15
      vertex 0.309017 -1.95106 -18
    endloop
  endfacet
  facet normal 0 1 0
    outer loop
      vertex 0.309017 -1.95106 -18
      vertex -0.309017 -1.95106 -15
      vertex 0.309017 -1.95106 -15
    endloop
  endfacet
  facet normal -0.587786 0.809016 0
    outer loop
      vertex 0.309017 -1.95106 -18
      vertex 0.309017 -1.95106 -15
      vertex 0.809017 -1.58779 -18
    endloop
  endfacet
  facet normal -0.587786 0.809016 0
    outer loop
      vertex 0.809017 -1.58779 -18
      vertex 0.309017 -1.95106 -15
      vertex 0.809017 -1.58779 -15
    endloop
  endfacet
  facet normal -0.951056 0.309017 0
    outer loop
      vertex 0.809017 -1.58779 -18
      vertex 0.809017 -1.58779 -15
      vertex 1 -1 -18
    endloop
  endfacet
  facet normal -0.951056 0.309017 0
    outer loop
      vertex 1 -1 -18
      vertex 0.809017 -1.58779 -15
      vertex 1 -1 -15
    endloop
  endfacet
  facet normal -0.951056 -0.309017 0
    outer loop
      vertex 0.809017 -0.412215 -18
      vertex 1 -1 -18
      vertex 0.809017 -0.412215 -15
    endloop
  endfacet
  facet normal -0.951056 -0.309017 0
    outer loop
      vertex 0.809017 -0.412215 -15
      vertex 1 -1 -18
      vertex 1 -1 -15
    endloop
  endfacet
  facet normal -0.587786 -0.809016 0
    outer loop
      vertex 0.309017 -0.048943 -15
      vertex 0.309017 -0.048943 -18
      vertex 0.809017 -0.412215 -18
    endloop
  endfacet
  facet normal -0.587786 -0.809016 0
    outer loop
      vertex 0.809017 -0.412215 -15
      vertex 0.309017 -0.048943 -15
      vertex 0.809017 -0.412215 -18
    endloop
  endfacet
  facet normal 0 -1 0
    outer loop
      vertex -0.309017 -0.048943 -15
      vertex -0.309017 -0.048943 -18
      vertex 0.309017 -0.048943 -18
    endloop
  endfacet
  facet normal 0 -1 0
    outer loop
      vertex 0.309017 -0.048943 -15
      vertex -0.309017 -0.048943 -15
      vertex 0.309017 -0.048943 -18
    endloop
  endfacet
  facet normal 0.587786 -0.809016 0
    outer loop
      vertex -0.809017 -0.412215 -15
      vertex -0.809017 -0.412215 -18
      vertex -0.309017 -0.048943 -18
    endloop
  endfacet
  facet normal 0.587786 -0.809016 0
    outer loop
      vertex -0.309017 -0.048943 -15
      vertex -0.809017 -0.412215 -15
      vertex -0.309017 -0.048943 -18
    endloop
  endfacet
  facet normal 0 0 1
    outer loop
      vertex 0.5 7.5 -24
      vertex 0.5 3 -24
      vertex 2 3 -24
    endloop
  endfacet
  facet normal 0 0 1
    outer loop
      vertex 1.5 8.5 -24
      vertex 0.5 7.5 -24
      vertex 2 8.5 -24
    endloop
  endfacet
  facet normal 0 0 1
    outer loop
      vertex 2 8.5 -24
      vertex 0.5 7.5 -24
      vertex 2 3 -24
    endloop
  endfacet
  facet normal -0.707107 0.707107 0
    outer loop
      vertex 0.5 7.5 -25
      vertex 0.5 7.5 -24
      vertex 1.5 8.5 -25
    endloop
  endfacet
  facet normal -0.707107 0.707107 0
    outer loop
      vertex 1.5 8.5 -25
      vertex 0.5 7.5 -24
      vertex 1.5 8.5 -24
    endloop
  endfacet
  facet normal 0 0 1
    outer loop
      vertex 0.5 7.5 -16
      vertex 0.5 3 -16
      vertex 2 3 -16
    endloop
  endfacet
  facet normal 0 0 1
    outer loop
      vertex 1.5 8.5 -16
      vertex 0.5 7.5 -16
      vertex 2 8.5 -16
    endloop
  endfacet
  facet normal 0 0 1
    outer loop
      vertex 2 8.5 -16
      vertex 0.5 7.5 -16
      vertex 2 3 -16
    endloop
  endfacet
  facet normal -0.707107 0.707107 0
    outer loop
      vertex 0.5 7.5 -17
      vertex 0.5 7.5 -16
      vertex 1.5 8.5 -17
    endloop
  endfacet
  facet normal -0.707107 0.707107 0
    outer loop
      vertex 1.5 8.5 -17
      vertex 0.5 7.5 -16
      vertex 1.5 8.5 -16
    endloop
  endfacet
  facet normal 0 0 -1
    outer loop
      vertex 0.5 3 -17
      vertex 0.5 7.5 -17
      vertex 2 3 -17
    endloop
  endfacet
  facet normal 0 0 -1
    outer loop
      vertex 2 3 -17
      vertex 0.5 7.5 -17
      vertex 1.5 8.5 -17
    endloop
  endfacet
  facet normal 0 0 -1
    outer loop
      vertex 2 3 -17
      vertex 1.5 8.5 -17
      vertex 2 8.5 -17
    endloop
  endfacet
  facet normal -1 0 0
    outer loop
      vertex 2 3 -18
      vertex 2 3 -17
      vertex 2 8.5 -18
    endloop
  endfacet
  facet normal -1 0 0
    outer loop
      vertex 2 8.5 -18
      vertex 2 3 -17
      vertex 2 8.5 -17
    endloop
  endfacet
  facet normal 0 0 1
    outer loop
      vertex 0.5 7.5 -18
      vertex 0.5 3 -18
      vertex 2 3 -18
    endloop
  endfacet
  facet normal 0 0 1
    outer loop
      vertex 1.5 8.5 -18
      vertex 0.5 7.5 -18
      vertex 2 8.5 -18
    endloop
  endfacet
  facet normal 0 0 1
    outer loop
      vertex 2 8.5 -18
      vertex 0.5 7.5 -18
      vertex 2 3 -18
    endloop
  endfacet
  facet normal -0.707107 0.707107 0
    outer loop
      vertex 0.5 7.5 -19
      vertex 0.5 7.5 -18
      vertex 1.5 8.5 -19
    endloop
  endfacet
  facet normal -0.707107 0.707107 0
    outer loop
      vertex 1.5 8.5 -19
      vertex 0.5 7.5 -18
      vertex 1.5 8.5 -18
    endloop
  endfacet
  facet normal 0 0 -1
    outer loop
      vertex 0.5 3 -19
      vertex 0.5 7.5 -19
      vertex 2 3 -19
    endloop
  endfacet
  facet normal 0 0 -1
    outer loop
      vertex 2 3 -19
      vertex 0.5 7.5 -19
      vertex 1.5 8.5 -19
    endloop
  endfacet
  facet normal 0 0 -1
    outer loop
      vertex 2 3 -19
      vertex 1.5 8.5 -19
      vertex 2 8.5 -19
    endloop
  endfacet
  facet normal -1 0 0
    outer loop
      vertex 2 3 -20
      vertex 2 3 -19
      vertex 2 8.5 -20
    endloop
  endfacet
  facet normal -1 0 0
    outer loop
      vertex 2 8.5 -20
      vertex 2 3 -19
      vertex 2 8.5 -19
    endloop
  endfacet
  facet normal 0 0 1
    outer loop
      vertex 0.5 7.5 -20
      vertex 0.5 3 -20
      vertex 2 3 -20
    endloop
  endfacet
  facet normal 0 0 1
    outer loop
      vertex 1.5 8.5 -20
      vertex 0.5 7.5 -20
      vertex 2 8.5 -20
    endloop
  endfacet
  facet normal 0 0 1
    outer loop
      vertex 2 8.5 -20
      vertex 0.5 7.5 -20
      vertex 2 3 -20
    endloop
  endfacet
  facet normal -0.707107 0.707107 0
    outer loop
      vertex 0.5 7.5 -21
      vertex 0.5 7.5 -20
      vertex 1.5 8.5 -21
    endloop
  endfacet
  facet normal -0.707107 0.707107 0
    outer loop
      vertex 1.5 8.5 -21
      vertex 0.5 7.5 -20
      vertex 1.5 8.5 -20
    endloop
  endfacet
  facet normal 0 0 -1
    outer loop
      vertex 0.5 3 -21
      vertex 0.5 7.5 -21
      vertex 2 3 -21
    endloop
  endfacet
  facet normal 0 0 -1
    outer loop
      vertex 2 3 -21
      vertex 0.5 7.5 -21
      vertex 1.5 8.5 -21
    endloop
  endfacet
  facet normal 0 0 -1
    outer loop
      vertex 2 3 -21
      vertex 1.5 8.5 -21
      vertex 2 8.5 -21
    endloop
  endfacet
  facet normal -1 0 0
    outer loop
      vertex 2 3 -22
      vertex 2 3 -21
      vertex 2 8.5 -22
    endloop
  endfacet
  facet normal -1 0 0
    outer loop
      vertex 2 8.5 -22
      vertex 2 3 -21
      vertex 2 8.5 -21
    endloop
  endfacet
  facet normal 0 0 1
    outer loop
      vertex 0.5 7.5 -22
      vertex 0.5 3 -22
      vertex 2 3 -22
    endloop
  endfacet
  facet normal 0 0 1
    outer loop
      vertex 1.5 8.5 -22
      vertex 0.5 7.5 -22
      vertex 2 8.5 -22
    endloop
  endfacet
  facet normal 0 0 1
    outer loop
      vertex 2 8.5 -22
      vertex 0.5 7.5 -22
      vertex 2 3 -22
    endloop
  endfacet
  facet normal -0.707107 0.707107 0
    outer loop
      vertex 0.5 7.5 -23
      vertex 0.5 7.5 -22
      vertex 1.5 8.5 -23
    endloop
  endfacet
  facet normal -0.707107 0.707107 0
    outer loop
      vertex 1.5 8.5 -23
      vertex 0.5 7.5 -22
      vertex 1.5 8.5 -22
    endloop
  endfacet
  facet normal 0 0 -1
    outer loop
      vertex 0.5 3 -23
      vertex 0.5 7.5 -23
      vertex 2 3 -23
    endloop
  endfacet
  facet normal 0 0 -1
    outer loop
      vertex 2 3 -23
      vertex 0.5 7.5 -23
      vertex 1.5 8.5 -23
    endloop
  endfacet
  facet normal 0 0 -1
    outer loop
      vertex 2 3 -23
      vertex 1.5 8.5 -23
      vertex 2 8.5 -23
    endloop
  endfacet
  facet normal -1 0 0
    outer loop
      vertex 2 3 -24
      vertex 2 3 -23
      vertex 2 8.5 -24
    endloop
  endfacet
  facet normal -1 0 0
    outer loop
      vertex 2 8.5 -24
      vertex 2 3 -23
      vertex 2 8.5 -23
    endloop
  endfacet
  facet normal 0 1 0
    outer loop
      vertex 0.5 3 -24
      vertex 0.5 3 -23
      vertex 2 3 -24
    endloop
  endfacet
  facet normal 0 1 0
    outer loop
      vertex 2 3 -24
      vertex 0.5 3 -23
      vertex 2 3 -23
    endloop
  endfacet
  facet normal 0 1 0
    outer loop
      vertex 0.5 3 -22
      vertex 0.5 3 -21
      vertex 2 3 -22
    endloop
  endfacet
  facet normal 0 1 0
    outer loop
      vertex 2 3 -22
      vertex 0.5 3 -21
      vertex 2 3 -21
    endloop
  endfacet
  facet normal 0 1 0
    outer loop
      vertex 0.5 3 -20
      vertex 0.5 3 -19
      vertex 2 3 -20
    endloop
  endfacet
  facet normal 0 1 0
    outer loop
      vertex 2 3 -20
      vertex 0.5 3 -19
      vertex 2 3 -19
    endloop
  endfacet
  facet normal 0 1 0
    outer loop
      vertex 0.5 3 -18
      vertex 0.5 3 -17
      vertex 2 3 -18
    endloop
  endfacet
  facet normal 0 1 0
    outer loop
      vertex 2 3 -18
      vertex 0.5 3 -17
      vertex 2 3 -17
    endloop
  endfacet
  facet normal 0 0 -1
    outer loop
      vertex -1.61803 0.175571 -18
      vertex -1.17557 0.618034 -18
      vertex -1.90211 -0.381966 -18
    endloop
  endfacet
  facet normal 0 0 -1
    outer loop
      vertex -1.90211 -0.381966 -18
      vertex -1.17557 0.618034 -18
      vertex -0.618034 0.902113 -18
    endloop
  endfacet
  facet normal 0 0 -1
    outer loop
      vertex -1.90211 -0.381966 -18
      vertex -0.618034 0.902113 -18
      vertex 0 1 -18
    endloop
  endfacet
  facet normal 0 0 -1
    outer loop
      vertex -1.90211 -0.381966 -18
      vertex 0 1 -18
      vertex 0.618034 0.902113 -18
    endloop
  endfacet
  facet normal 0 0 -1
    outer loop
      vertex -1.90211 -0.381966 -18
      vertex 0.618034 0.902113 -18
      vertex 1.17557 0.618034 -18
    endloop
  endfacet
  facet normal 0 0 -1
    outer loop
      vertex -0.309017 -0.048943 -18
      vertex 1.17557 0.618034 -18
      vertex 1.61803 0.175571 -18
    endloop
  endfacet
  facet normal 0 0 -1
    outer loop
      vertex 0.309017 -0.048943 -18
      vertex 1.61803 0.175571 -18
      vertex 1.90211 -0.381966 -18
    endloop
  endfacet
  facet normal 0 0 -1
    outer loop
      vertex 0.809017 -0.412215 -18
      vertex 1.90211 -0.381966 -18
      vertex 2 -1 -18
    endloop
  endfacet
  facet normal 0 0 -1
    outer loop
      vertex 1 -1 -18
      vertex 2 -1 -18
      vertex 1.90211 -1.61803 -18
    endloop
  endfacet
  facet normal 0 0 -1
    outer loop
      vertex 0.809017 -1.58779 -18
      vertex 1.90211 -1.61803 -18
      vertex 1.61803 -2.17557 -18
    endloop
  endfacet
  facet normal 0 0 -1
    outer loop
      vertex 0.309017 -1.95106 -18
      vertex 1.61803 -2.17557 -18
      vertex 1.17557 -2.61803 -18
    endloop
  endfacet
  facet normal 0 0 -1
    outer loop
      vertex -0.309017 -1.95106 -18
      vertex 1.17557 -2.61803 -18
      vertex 0.618034 -2.90211 -18
    endloop
  endfacet
  facet normal 0 0 -1
    outer loop
      vertex -0.809017 -1.58779 -18
      vertex 0.618034 -2.90211 -18
      vertex 0 -3 -18
    endloop
  endfacet
  facet normal 0 0 -1
    outer loop
      vertex -1.90211 -0.381966 -18
      vertex 0 -3 -18
      vertex -0.618034 -2.90211 -18
    endloop
  endfacet
  facet normal 0 0 -1
    outer loop
      vertex -1.90211 -0.381966 -18
      vertex -0.618034 -2.90211 -18
      vertex -1.17557 -2.61803 -18
    endloop
  endfacet
  facet normal 0 0 -1
    outer loop
      vertex -1.90211 -0.381966 -18
      vertex -1.17557 -2.61803 -18
      vertex -1.61803 -2.17557 -18
    endloop
  endfacet
  facet normal 0 0 -1
    outer loop
      vertex -1.90211 -0.381966 -18
      vertex -1.61803 -2.17557 -18
      vertex -1.90211 -1.61803 -18
    endloop
  endfacet
  facet normal 0 0 -1
    outer loop
      vertex -1.90211 -0.381966 -18
      vertex -1.90211 -1.61803 -18
      vertex -2 -1 -18
    endloop
  endfacet
  facet normal 0 0 -1
    outer loop
      vertex 0.309017 -1.95106 -18
      vertex 1.17557 -2.61803 -18
      vertex -0.309017 -1.95106 -18
    endloop
  endfacet
  facet normal 0 0 -1
    outer loop
      vertex -1.90211 -0.381966 -18
      vertex -0.809017 -1.58779 -18
      vertex 0 -3 -18
    endloop
  endfacet
  facet normal 0 0 -1
    outer loop
      vertex 1 -1 -18
      vertex 1.90211 -1.61803 -18
      vertex 0.809017 -1.58779 -18
    endloop
  endfacet
  facet normal 0 0 -1
    outer loop
      vertex 0.809017 -0.412215 -18
      vertex 2 -1 -18
      vertex 1 -1 -18
    endloop
  endfacet
  facet normal 0 0 -1
    outer loop
      vertex 0.309017 -0.048943 -18
      vertex 1.90211 -0.381966 -18
      vertex 0.809017 -0.412215 -18
    endloop
  endfacet
  facet normal 0 0 -1
    outer loop
      vertex -0.309017 -0.048943 -18
      vertex 1.61803 0.175571 -18
      vertex 0.309017 -0.048943 -18
    endloop
  endfacet
  facet normal 0 0 -1
    outer loop
      vertex -1.90211 -0.381966 -18
      vertex 1.17557 0.618034 -18
      vertex -0.309017 -0.048943 -18
    endloop
  endfacet
  facet normal 0 0 -1
    outer loop
      vertex -0.809017 -0.412215 -18
      vertex -1.90211 -0.381966 -18
      vertex -0.309017 -0.048943 -18
    endloop
  endfacet
  facet normal 0 0 -1
    outer loop
      vertex -1 -1 -18
      vertex -1.90211 -0.381966 -18
      vertex -0.809017 -0.412215 -18
    endloop
  endfacet
  facet normal 0 0 -1
    outer loop
      vertex -0.809017 -1.58779 -18
      vertex -1.90211 -0.381966 -18
      vertex -1 -1 -18
    endloop
  endfacet
  facet normal 0 0 -1
    outer loop
      vertex 0.809017 -1.58779 -18
      vertex 1.61803 -2.17557 -18
      vertex 0.309017 -1.95106 -18
    endloop
  endfacet
  facet normal 0 0 -1
    outer loop
      vertex -0.309017 -1.95106 -18
      vertex 0.618034 -2.90211 -18
      vertex -0.809017 -1.58779 -18
    endloop
  endfacet
endsolid OpenSCAD_Model
