<?xml version="1.0" encoding="utf-8"?>
<!-- Generator: Adobe Illustrator 16.0.4, SVG Export Plug-In . SVG Version: 6.00 Build 0)  -->
<!DOCTYPE svg PUBLIC "-//W3C//DTD SVG 1.1//EN" "http://www.w3.org/Graphics/SVG/1.1/DTD/svg11.dtd">
<svg version="1.1" id="图层_1" xmlns="http://www.w3.org/2000/svg" xmlns:xlink="http://www.w3.org/1999/xlink" x="0px" y="0px"
	 width="595.28px" height="841.89px" viewBox="0 0 595.28 841.89" enable-background="new 0 0 595.28 841.89" xml:space="preserve">
<polygon fill="none" stroke="#000000" points="136.333,306.667 156.333,306.667 156.333,276 181.667,276 215.667,311.333 
	215.667,420.945 181,456.667 155.667,456.667 156.333,426.667 136.333,426 136.333,516 225,516 225,495.334 194.333,494.667 
	194.333,471.334 229.667,436 340.333,435.334 376.333,472 376.333,495.334 345,494.667 345,516 434.333,516 434.333,426.667 
	415,426 415,456.667 390.333,456.667 355.667,420.945 355.667,310.667 389,276 414.333,276 415,307.333 434.333,307.333 
	434.333,218.667 345,218.667 345,235.333 375.667,236.667 375.667,262 341,296 230.333,295.333 194.333,261.333 194.333,236.667 
	225.667,236 225.667,218.667 136.333,218.667 "/>
<circle fill="none" stroke="#000000" cx="285.333" cy="367.333" r="50.001"/>
</svg>
